<?xml version="1.0" encoding="utf-8"?>
<!-- Generator: Adobe Illustrator 23.0.3, SVG Export Plug-In . SVG Version: 6.00 Build 0)  -->
<svg version="1.1" id="Vrstva_1" xmlns="http://www.w3.org/2000/svg" xmlns:xlink="http://www.w3.org/1999/xlink" x="0px" y="0px"
	 viewBox="0 0 38.838 38.838" enable-background="new 0 0 38.838 38.838" xml:space="preserve">
<filter  filterUnits="userSpaceOnUse" height="128.838" id="Rectangle_68" width="128.838" x="0" y="0">
	<feOffset  input="SourceAlpha"></feOffset>
	<feGaussianBlur  result="blur" stdDeviation="15"></feGaussianBlur>
	<feFlood  flood-color="#038000" flood-opacity="0.149"></feFlood>
	<feComposite  in2="blur" operator="in"></feComposite>
	<feComposite  in="SourceGraphic" operator="over"></feComposite>
</filter>
<g id="Group_531" transform="translate(45 45)">
	<g transform="matrix(1, 0, 0, 1, -45, -45)" filter="url(#Rectangle_68)">
		<path id="Rectangle_68-2_1_" fill="#038000" d="M10,0h18.838c5.523,0,10,4.477,10,10v18.838c0,5.523-4.477,10-10,10H10
			c-5.523,0-10-4.477-10-10V10C0,4.477,4.477,0,10,0z"/>
	</g>
	<g id="seeding" transform="translate(7.133 6.279)">
		<g id="Group_525" transform="translate(7.128 7.142)">
			<g id="Group_524">
				<path id="Path_4411" fill="#FFFFFF" d="M-39.81-43.003c0.156,0.056,0.328-0.026,0.383-0.182
					c0.022-0.062,0.023-0.129,0.004-0.191c-0.534-1.646-2.469-2.26-4.267-0.8c-0.403,0.357-0.842,0.671-1.31,0.936
					c0.624,0.623,1.336,2.715,2.891,2.947c1.713,0.311,3.228-1.374,1.988-2.145c-0.842-0.524-1.814-0.801-2.805-0.8
					C-41.887-43.474-40.802-43.392-39.81-43.003z"/>
			</g>
		</g>
		<g id="Group_527" transform="translate(11.993 0)">
			<g id="Group_526">
				<path id="Path_4412" fill="#FFFFFF" d="M-36.921-37.035c-3.1-2.521-5.083,1.455-3.853,1.061c0.901-0.29,1.864-0.334,2.788-0.125
					c-1.596,0.004-3.106,0.721-4.118,1.955c0.039-1.333,0.156-2.662,0.35-3.981c1.109-0.154,2.065-0.857,2.542-1.87
					c1.047-1.873,0.561-3.793,0.405-5.005c-0.818,0.8-4.39-0.137-5.806,2.29c-0.578,1.059-0.494,2.355,0.214,3.331
					c0.131,0.178,0.382,0.216,0.559,0.085c0.094-0.07,0.154-0.177,0.162-0.295c0.004-1.523,0.927-2.892,2.336-3.468
					c-0.643,0.832-1.095,1.794-1.326,2.82c-0.615,2.456-0.901,4.982-0.85,7.513c-0.013,0.489,0.372,0.896,0.862,0.91
					c0.011,0,0.022,0,0.032,0c0.361-0.009,0.682-0.234,0.814-0.57c0.248-0.589,0.632-1.11,1.121-1.521
					c0.55,0.614,1.379,0.899,2.19,0.753c1.548-0.23,2.27-2.327,2.891-2.947C-36.077-36.364-36.518-36.678-36.921-37.035z"/>
			</g>
		</g>
		<g id="Group_529" transform="translate(0 13.327)">
			<g id="Group_528">
				<path id="Path_4413" fill="#FFFFFF" d="M-20.365-44.204c-0.784-0.457-1.762-0.422-2.511,0.091l-6.086,4.455h-3.565l-0.891-0.891
					h3.273c1.067,0.08,1.999-0.716,2.087-1.782c-0.06-1.048-0.958-1.848-2.005-1.788c-0.027,0.002-0.054,0.004-0.082,0.006h-1.226
					c-0.922,0.102-1.854-0.008-2.727-0.321c-0.748-0.377-1.574-0.572-2.411-0.569c-1.384-0.012-2.715,0.535-3.691,1.516l-4.8,4.723
					l5.346,5.346l1.782-2.673h8.42c0.898,0,1.765-0.33,2.436-0.926l6.712-5.962c0.325-0.283,0.359-0.775,0.077-1.1
					C-20.268-44.126-20.314-44.168-20.365-44.204z"/>
			</g>
		</g>
	</g>
</g>
</svg>
