<svg xmlns="http://www.w3.org/2000/svg" width="35.94" height="57.697" viewBox="0 0 35.94 57.697">
  <g id="wired" transform="translate(0)">
    <path id="Path_4444" data-name="Path 4444" d="M35.1,16.913a7.33,7.33,0,0,0-5.647,2.655V7.162a4.3,4.3,0,0,0-4.291-4.291h-.052a4.271,4.271,0,0,0-2.626.9A4.3,4.3,0,0,0,18.221,0h-.051a4.3,4.3,0,0,0-4.291,4.291v.751a4.269,4.269,0,0,0-2.595-.876h-.052A4.3,4.3,0,0,0,6.941,8.458v2.617A4.27,4.27,0,0,0,4.346,10.2H4.295A4.3,4.3,0,0,0,0,14.491v5.682a.848.848,0,1,0,1.7,0V14.491A2.6,2.6,0,0,1,4.295,11.9h.051a2.6,2.6,0,0,1,2.595,2.595v8.883a.848.848,0,1,0,1.7,0V8.458a2.6,2.6,0,0,1,2.595-2.595h.052a2.6,2.6,0,0,1,2.595,2.595v5.113a.848.848,0,1,0,1.7,0V4.291A2.6,2.6,0,0,1,18.169,1.7h.051a2.6,2.6,0,0,1,2.595,2.595V23.374a.848.848,0,0,0,1.7,0V7.162a2.6,2.6,0,0,1,2.595-2.595h.051a2.6,2.6,0,0,1,2.595,2.595v22.12a.848.848,0,1,0,1.7,0V24.256a5.656,5.656,0,0,1,4.8-5.583V32.725a.848.848,0,1,0,1.7,0V17.761a.848.848,0,0,0-.848-.848Zm0,0" transform="translate(-0.003 0)" fill="#fff"/>
    <path id="Path_4445" data-name="Path 4445" d="M35.093,214.139a.848.848,0,0,0-.848.848v2.976a7.873,7.873,0,0,1-2.525,5.768l-2.311,2.134a.849.849,0,0,0-.273.623v8.383H23.882V228.65l3.165-2.728a.848.848,0,0,0,.294-.643v-9.622a2.952,2.952,0,1,0-1.7,0v9.234l-1.764,1.52v-2.7a.848.848,0,0,0-.848-.848H18.821v-9.613a2.954,2.954,0,1,0-1.7.015v9.6H12.857a.848.848,0,0,0-.848.848v2.655L10.3,224.89v-9.234a2.952,2.952,0,1,0-1.7,0v9.622a.849.849,0,0,0,.294.643l3.11,2.681v6.268H6.976v-8.383a.848.848,0,0,0-.189-.534L4.2,222.761A11.261,11.261,0,0,1,1.7,215.7v-5.376c0-.03,0-.059,0-.088v-7.8a.848.848,0,1,0-1.7,0v7.888a.846.846,0,0,0,0,.089V215.7a12.961,12.961,0,0,0,2.878,8.13l2.4,2.96v8.931a.848.848,0,0,0,.848.848H29.985a.848.848,0,0,0,.848-.848v-8.86l2.038-1.882a9.575,9.575,0,0,0,3.07-7.014v-2.976a.848.848,0,0,0-.848-.848Zm-9.855-1.31a1.256,1.256,0,1,1,1.256,1.256A1.258,1.258,0,0,1,25.237,212.829Zm-8.546-2.4a1.256,1.256,0,1,1,1.256,1.256A1.257,1.257,0,0,1,16.691,210.426Zm-8.495,2.4a1.256,1.256,0,1,1,1.256,1.256A1.258,1.258,0,0,1,8.2,212.829Zm5.509,22.042V224.556h8.48v10.315Zm0,0" transform="translate(0 -178.87)" fill="#fff"/>
    <path id="Path_4446" data-name="Path 4446" d="M124.818,150.269v-6.41a.848.848,0,0,0-1.7,0v6.41a.848.848,0,0,0,1.7,0Zm0,0" transform="translate(-109.247 -126.896)" fill="#fff"/>
  </g>
</svg>
