<svg xmlns="http://www.w3.org/2000/svg" width="61.135" height="61.135" viewBox="0 0 61.135 61.135">
  <g id="hosting" transform="translate(0)">
    <g id="Group_545" data-name="Group 545" transform="translate(35.049 8.423)">
      <g id="Group_544" data-name="Group 544">
        <circle id="Ellipse_31" data-name="Ellipse 31" cx="0.974" cy="0.974" r="0.974" fill="#fff"/>
      </g>
    </g>
    <g id="Group_547" data-name="Group 547" transform="translate(35.049 10.854)">
      <g id="Group_546" data-name="Group 546">
        <circle id="Ellipse_32" data-name="Ellipse 32" cx="0.974" cy="0.974" r="0.974" fill="#fff"/>
      </g>
    </g>
    <g id="Group_549" data-name="Group 549" transform="translate(35.049 13.287)">
      <g id="Group_548" data-name="Group 548">
        <circle id="Ellipse_33" data-name="Ellipse 33" cx="0.974" cy="0.974" r="0.974" fill="#fff"/>
      </g>
    </g>
    <g id="Group_551" data-name="Group 551" transform="translate(38.406 8.501)">
      <g id="Group_550" data-name="Group 550">
        <path id="Path_4447" data-name="Path 4447" d="M327.957,71.2h-5.415a.9.9,0,1,0,0,1.791h5.415a.9.9,0,0,0,0-1.791Z" transform="translate(-321.646 -71.196)" fill="#fff"/>
      </g>
    </g>
    <g id="Group_553" data-name="Group 553" transform="translate(38.406 10.933)">
      <g id="Group_552" data-name="Group 552">
        <path id="Path_4448" data-name="Path 4448" d="M327.957,91.563h-5.415a.9.9,0,1,0,0,1.791h5.415a.9.9,0,0,0,0-1.791Z" transform="translate(-321.646 -91.563)" fill="#fff"/>
      </g>
    </g>
    <g id="Group_555" data-name="Group 555" transform="translate(38.406 13.376)">
      <g id="Group_554" data-name="Group 554">
        <path id="Path_4449" data-name="Path 4449" d="M327.957,112.022h-5.415a.9.9,0,1,0,0,1.791h5.415a.9.9,0,0,0,0-1.791Z" transform="translate(-321.646 -112.022)" fill="#fff"/>
      </g>
    </g>
    <g id="Group_557" data-name="Group 557" transform="translate(16.061 8.423)">
      <g id="Group_556" data-name="Group 556">
        <circle id="Ellipse_34" data-name="Ellipse 34" cx="0.974" cy="0.974" r="0.974" fill="#fff"/>
      </g>
    </g>
    <g id="Group_559" data-name="Group 559" transform="translate(16.061 10.854)">
      <g id="Group_558" data-name="Group 558">
        <circle id="Ellipse_35" data-name="Ellipse 35" cx="0.974" cy="0.974" r="0.974" fill="#fff"/>
      </g>
    </g>
    <g id="Group_561" data-name="Group 561" transform="translate(16.061 13.287)">
      <g id="Group_560" data-name="Group 560">
        <circle id="Ellipse_36" data-name="Ellipse 36" cx="0.974" cy="0.974" r="0.974" fill="#fff"/>
      </g>
    </g>
    <g id="Group_563" data-name="Group 563" transform="translate(19.419 8.501)">
      <g id="Group_562" data-name="Group 562">
        <path id="Path_4450" data-name="Path 4450" d="M168.943,71.2h-5.415a.9.9,0,1,0,0,1.791h5.415a.9.9,0,1,0,0-1.791Z" transform="translate(-162.632 -71.196)" fill="#fff"/>
      </g>
    </g>
    <g id="Group_565" data-name="Group 565" transform="translate(19.419 10.933)">
      <g id="Group_564" data-name="Group 564">
        <path id="Path_4451" data-name="Path 4451" d="M168.943,91.563h-5.415a.9.9,0,1,0,0,1.791h5.415a.9.9,0,1,0,0-1.791Z" transform="translate(-162.632 -91.563)" fill="#fff"/>
      </g>
    </g>
    <g id="Group_567" data-name="Group 567" transform="translate(19.419 13.376)">
      <g id="Group_566" data-name="Group 566">
        <path id="Path_4452" data-name="Path 4452" d="M168.943,112.022h-5.415a.9.9,0,0,0,0,1.791h5.415a.9.9,0,0,0,0-1.791Z" transform="translate(-162.632 -112.022)" fill="#fff"/>
      </g>
    </g>
    <g id="Group_569" data-name="Group 569">
      <g id="Group_568" data-name="Group 568">
        <path id="Path_4453" data-name="Path 4453" d="M57.852,45.223a3.289,3.289,0,0,0-3.158,2.388h-8.46V41.493h2.6a4.709,4.709,0,1,0,0-9.418V.9a.9.9,0,0,0-.9-.9H32.418a.9.9,0,0,0-.9.9V22.7a7.41,7.41,0,0,0-1.672-.666V.9a.9.9,0,0,0-.9-.9H13.433a.9.9,0,0,0-.9.9v18.15a.9.9,0,1,0,1.791,0v-.47H28.06v3.217H28a7.366,7.366,0,0,0-7.245,6.049,5.409,5.409,0,0,0-6.427,1.586v-6.5a.9.9,0,1,0-1.791,0v9.155c-.079,0-.157-.006-.236-.006a4.709,4.709,0,1,0,0,9.419h2.6v6.118H6.442a3.284,3.284,0,1,0,0,1.791H15.8a.9.9,0,0,0,.9-.9V41.493h3.844v.517a.9.9,0,0,0,1.791,0v-.517h7.343v8.483a3.284,3.284,0,1,0,1.791,0V41.493h7.343v13.2a3.284,3.284,0,1,0,1.791,0v-13.2h3.844v7.014a.9.9,0,0,0,.9.9h9.356a3.283,3.283,0,1,0,3.158-4.179ZM3.284,50a1.493,1.493,0,1,1,1.493-1.493A1.494,1.494,0,0,1,3.284,50ZM33.314,1.791H47.045V5.082H33.314Zm0,16.784h8.7a.9.9,0,0,0,0-1.791h-8.7V6.873H47.045v9.911H45.871a.9.9,0,1,0,0,1.791h1.174v13.5a4.171,4.171,0,0,0-3.9-2.7q-.129,0-.256.008.006-.121.006-.243a5.212,5.212,0,0,0-8.657-3.895,7.346,7.346,0,0,0-.922-1.174ZM14.329,1.791H28.06V5.082H14.329Zm0,14.993V6.873H28.06v9.911ZM32.06,53.135a1.493,1.493,0,1,1-1.493-1.493A1.494,1.494,0,0,1,32.06,53.135Zm9.134,4.716A1.493,1.493,0,1,1,39.7,56.359,1.494,1.494,0,0,1,41.195,57.852ZM12.3,39.7a2.918,2.918,0,1,1,1.377-5.493.9.9,0,0,0,1.309-.919,3.615,3.615,0,0,1,5.964-3.223l0,0a3.6,3.6,0,0,1,.322,5.087.9.9,0,0,0,1.341,1.188,5.382,5.382,0,0,0-.181-7.333,5.57,5.57,0,0,1,10.609-2.228,5.185,5.185,0,0,0,1.83,6.726A.9.9,0,1,0,35.841,32,3.4,3.4,0,0,1,34.8,27.318v0a3.414,3.414,0,0,1,6.109,2.958.9.9,0,0,0,1.226,1.111,2.346,2.346,0,0,1,1.012-.226,2.372,2.372,0,0,1,2.373,2.365,2.314,2.314,0,0,1-.011.232.9.9,0,0,0,1.462.78A2.922,2.922,0,1,1,48.833,39.7ZM57.852,50a1.493,1.493,0,1,1,1.493-1.493A1.494,1.494,0,0,1,57.852,50Z" fill="#fff"/>
      </g>
    </g>
    <g id="Group_571" data-name="Group 571" transform="translate(18.15 44.936)">
      <g id="Group_570" data-name="Group 570">
        <path id="Path_4454" data-name="Path 4454" d="M156.179,386.09v-8.862a.9.9,0,1,0-1.791,0v8.862a3.284,3.284,0,1,0,1.791,0Zm-.9,4.651a1.493,1.493,0,1,1,1.493-1.493A1.494,1.494,0,0,1,155.284,390.741Z" transform="translate(-152 -376.333)" fill="#fff"/>
      </g>
    </g>
  </g>
</svg>
