<?xml version="1.0" encoding="utf-8"?>
<!-- Generator: Adobe Illustrator 23.0.6, SVG Export Plug-In . SVG Version: 6.00 Build 0)  -->
<svg version="1.1" id="Vrstva_1" xmlns="http://www.w3.org/2000/svg" xmlns:xlink="http://www.w3.org/1999/xlink" x="0px" y="0px"
	 viewBox="0 0 252.3 252.3" style="enable-background:new 0 0 252.3 252.3;" xml:space="preserve">
<style type="text/css">
	.st0{fill:#FFFFFF;stroke:#00558F;stroke-width:5;stroke-miterlimit:10;}
	.st1{fill:#00558F;}
	.st2{fill:#FFFFFF;}
</style>
<circle class="st0" cx="126.1" cy="126.6" r="123.3"/>
<g>
	<path class="st1" d="M155.2,27.3c0,0,0.1,0,0.1,0.1c0,0,0.1,0.1,0.1,0.1l0.6,1c-0.5,0.4-1,0.6-1.5,0.7c-0.6,0.1-1.2,0-1.9-0.1
		c-0.6-0.2-1.2-0.4-1.6-0.8c-0.4-0.4-0.8-0.8-1.1-1.3s-0.4-1-0.4-1.6c0-0.6,0-1.2,0.2-1.8c0.2-0.6,0.4-1.2,0.8-1.6
		c0.4-0.5,0.8-0.8,1.3-1.1c0.5-0.3,1-0.5,1.6-0.5c0.6-0.1,1.2,0,1.9,0.2c0.3,0.1,0.6,0.2,0.9,0.3c0.3,0.1,0.5,0.3,0.7,0.4
		c0.2,0.2,0.4,0.3,0.6,0.5c0.2,0.2,0.3,0.4,0.4,0.6l-0.9,0.7c-0.1,0-0.1,0.1-0.2,0.1c-0.1,0-0.2,0-0.3,0c-0.1,0-0.1-0.1-0.2-0.1
		c-0.1,0-0.1-0.1-0.2-0.2c-0.1-0.1-0.1-0.1-0.2-0.2s-0.2-0.1-0.3-0.2c-0.1-0.1-0.2-0.1-0.4-0.2c-0.1-0.1-0.3-0.1-0.5-0.2
		c-0.4-0.1-0.7-0.1-1-0.1c-0.3,0-0.6,0.2-0.9,0.3c-0.3,0.2-0.5,0.4-0.7,0.7c-0.2,0.3-0.4,0.7-0.5,1.1c-0.1,0.4-0.2,0.8-0.1,1.2
		c0,0.4,0.1,0.7,0.3,1c0.1,0.3,0.3,0.5,0.6,0.7c0.2,0.2,0.5,0.3,0.8,0.4c0.2,0,0.3,0.1,0.5,0.1c0.2,0,0.3,0,0.4,0
		c0.1,0,0.3,0,0.4-0.1s0.3-0.1,0.4-0.2c0.1,0,0.1,0,0.2-0.1C155.1,27.3,155.2,27.3,155.2,27.3z"/>
	<path class="st1" d="M172.1,26.7l-0.6,1.4l-3.3-1.4l-0.8,1.9l2.5,1.1l-0.6,1.4l-2.5-1.1l-0.8,1.9l3.3,1.4l-0.6,1.4l-5.2-2.2l3.4-8
		L172.1,26.7z"/>
	<path class="st1" d="M182,31.9c0,0,0.1,0.1,0.1,0.1c0,0,0.1,0.1,0.1,0.2c0,0.1,0,0.1,0,0.2L183,39c0.1-0.2,0.1-0.3,0.2-0.4
		c0.1-0.1,0.1-0.3,0.2-0.4l2.4-3.9l1.5,0.9l-4.6,7.4l-0.9-0.6c-0.1-0.1-0.2-0.2-0.3-0.3c-0.1-0.1-0.1-0.2-0.1-0.4l-0.8-6.6
		c-0.1,0.1-0.1,0.3-0.2,0.4c-0.1,0.1-0.1,0.2-0.2,0.4l-2.5,4l-1.5-0.9l4.6-7.4l0.9,0.6C181.9,31.8,181.9,31.8,182,31.9z"/>
	<path class="st1" d="M200.3,45.4l-1,1.2l-1.9-1.6l-4.6,5.4l-1.5-1.3l4.6-5.4l-1.9-1.6l1-1.2L200.3,45.4z"/>
	<path class="st1" d="M210.8,56.3l-1.2,1l-2.4-2.7l-1.5,1.3l1.8,2.1l-1.1,1l-1.8-2.1l-1.6,1.4l2.4,2.7l-1.2,1l-3.7-4.2l6.6-5.8
		L210.8,56.3z"/>
	<path class="st1" d="M213.2,68.8l-2.7,1.8l-1.1-1.7l7.3-4.7l1.5,2.4c0.3,0.5,0.6,1,0.7,1.5c0.1,0.4,0.2,0.8,0.1,1.2
		c0,0.4-0.2,0.7-0.4,1c-0.2,0.3-0.4,0.5-0.8,0.7c-0.2,0.2-0.5,0.3-0.7,0.3s-0.5,0.1-0.8,0.1c-0.3,0-0.5-0.1-0.8-0.2
		c-0.3-0.1-0.5-0.2-0.8-0.4c0,0.2,0,0.3,0,0.5s-0.1,0.3-0.1,0.5l-1.5,3.2l-1-1.5c-0.2-0.3-0.2-0.6-0.1-0.8l1.3-2.6
		c0.1-0.1,0.1-0.2,0.1-0.3c0-0.1-0.1-0.2-0.1-0.3L213.2,68.8z M214.3,68.1l0.4,0.7c0.1,0.2,0.3,0.4,0.5,0.5c0.2,0.1,0.3,0.2,0.5,0.2
		c0.2,0,0.3,0,0.5,0c0.2,0,0.3-0.1,0.5-0.2c0.3-0.2,0.5-0.5,0.6-0.8c0-0.3-0.1-0.7-0.4-1.2l-0.4-0.7L214.3,68.1z"/>
	<path class="st1" d="M231,93.6l-1.5,0.5l-1.2-3.4l-2.1,0.7l1,2.8l-1.5,0.5l-1-2.8l-3.2,1.1l-0.7-1.9l8.3-2.9L231,93.6z"/>
	<path class="st1" d="M230.8,112.3c-0.6,0.1-1.2,0.1-1.8,0c-0.6-0.1-1.1-0.3-1.6-0.7c-0.5-0.3-0.9-0.7-1.2-1.2
		c-0.3-0.5-0.5-1.1-0.7-1.8c-0.1-0.7-0.1-1.3,0-1.9c0.1-0.6,0.4-1.1,0.7-1.6c0.3-0.5,0.7-0.9,1.2-1.2c0.5-0.3,1.1-0.5,1.7-0.6
		c0.6-0.1,1.2-0.1,1.8,0c0.6,0.1,1.1,0.3,1.6,0.7c0.5,0.3,0.9,0.7,1.2,1.2c0.3,0.5,0.5,1.1,0.7,1.8c0.1,0.7,0.1,1.3,0,1.9
		c-0.1,0.6-0.4,1.1-0.7,1.6c-0.3,0.5-0.7,0.8-1.2,1.2C232,112,231.5,112.2,230.8,112.3z M230.5,110.2c0.4-0.1,0.8-0.2,1.1-0.4
		c0.3-0.2,0.6-0.4,0.8-0.6c0.2-0.3,0.3-0.5,0.4-0.9c0.1-0.3,0.1-0.7,0-1.1c-0.1-0.4-0.2-0.7-0.4-1c-0.2-0.3-0.4-0.5-0.7-0.7
		c-0.3-0.2-0.6-0.3-1-0.3c-0.4,0-0.8,0-1.2,0c-0.4,0.1-0.8,0.2-1.1,0.4c-0.3,0.2-0.6,0.4-0.8,0.6c-0.2,0.2-0.3,0.5-0.4,0.9
		c-0.1,0.3-0.1,0.7,0,1.1c0.1,0.4,0.2,0.7,0.4,1c0.2,0.3,0.4,0.5,0.7,0.7c0.3,0.2,0.6,0.3,1,0.3C229.6,110.3,230,110.3,230.5,110.2z
		"/>
	<path class="st1" d="M230.5,123.3l-3.2,0.1l0-2l8.7-0.2l0.1,2.8c0,0.6,0,1.2-0.2,1.6c-0.1,0.4-0.3,0.8-0.5,1.1
		c-0.2,0.3-0.5,0.5-0.8,0.6c-0.3,0.1-0.7,0.2-1,0.2c-0.3,0-0.6,0-0.8-0.1c-0.3-0.1-0.5-0.2-0.7-0.3c-0.2-0.1-0.4-0.3-0.6-0.5
		c-0.2-0.2-0.3-0.5-0.4-0.7c-0.1,0.1-0.1,0.3-0.2,0.4c-0.1,0.1-0.2,0.2-0.4,0.3l-3,1.9l0-1.8c0-0.3,0.1-0.6,0.4-0.7l2.5-1.5
		c0.1-0.1,0.2-0.1,0.2-0.2c0-0.1,0.1-0.2,0.1-0.4L230.5,123.3z M231.9,123.3l0,0.8c0,0.3,0,0.5,0.1,0.7s0.2,0.3,0.3,0.5
		c0.1,0.1,0.3,0.2,0.4,0.3c0.2,0.1,0.3,0.1,0.5,0.1c0.4,0,0.7-0.1,0.9-0.4s0.3-0.6,0.3-1.2l0-0.8L231.9,123.3z"/>
	<path class="st1" d="M227.9,155.1c-0.6-0.1-1.2-0.4-1.6-0.7c-0.5-0.3-0.8-0.7-1.1-1.2c-0.3-0.5-0.5-1-0.6-1.6
		c-0.1-0.6,0-1.2,0.1-1.9l0.8-3.3l8.5,2l-0.8,3.3c-0.2,0.7-0.4,1.2-0.8,1.7c-0.3,0.5-0.8,0.9-1.2,1.2c-0.5,0.3-1,0.5-1.6,0.6
		C229.1,155.3,228.5,155.3,227.9,155.1z M228.4,153.1c0.4,0.1,0.8,0.1,1.2,0.1c0.4,0,0.7-0.1,1-0.3c0.3-0.1,0.5-0.4,0.7-0.6
		c0.2-0.3,0.3-0.6,0.4-1l0.3-1.3l-5.5-1.3l-0.3,1.3c-0.1,0.4-0.1,0.7-0.1,1.1c0.1,0.3,0.2,0.6,0.4,0.9c0.2,0.3,0.4,0.5,0.7,0.7
		C227.6,152.8,227.9,153,228.4,153.1z"/>
	<path class="st1" d="M218,169.2l0.6-1.5c0.1-0.2,0.2-0.3,0.3-0.4c0.1-0.1,0.2-0.1,0.4-0.1l1.6,0.1l1.3-3.1l-1.2-1.1
		c-0.1-0.1-0.2-0.2-0.2-0.3c0-0.1,0-0.3,0-0.4l0.6-1.5l6.8,6.5l-0.8,1.9L218,169.2z M223.3,165.3l-0.9,2.2l2.5,0.2
		c0.2,0,0.4,0,0.6,0c0.2,0,0.4,0,0.7,0.1c-0.2-0.2-0.4-0.3-0.6-0.4c-0.2-0.1-0.3-0.3-0.4-0.4L223.3,165.3z"/>
	<path class="st1" d="M219.1,185.5l-1.4-0.8l1.2-2.1l-6.1-3.6l1-1.7l6.1,3.6l1.2-2.1l1.4,0.8L219.1,185.5z"/>
	<path class="st1" d="M202.3,193.3l1-1.2c0.1-0.1,0.2-0.2,0.4-0.3c0.1,0,0.3,0,0.4,0l1.5,0.6l2.1-2.6l-0.9-1.4
		c-0.1-0.1-0.1-0.2-0.1-0.4c0-0.1,0.1-0.3,0.2-0.4l1-1.2l4.7,8.1l-1.3,1.6L202.3,193.3z M208.5,191.1l-1.5,1.9l2.4,0.9
		c0.1,0.1,0.3,0.1,0.5,0.2c0.2,0.1,0.4,0.2,0.7,0.3c-0.2-0.2-0.3-0.4-0.4-0.6c-0.1-0.2-0.2-0.3-0.3-0.5L208.5,191.1z"/>
	<path class="st1" d="M182.9,210.5l1.3-0.9c0.1-0.1,0.3-0.2,0.4-0.2c0.1,0,0.3,0,0.4,0.1l1.3,0.9l2.7-2l-0.5-1.5c0-0.1,0-0.2,0-0.4
		c0-0.1,0.1-0.3,0.3-0.4l1.3-0.9l2.5,9l-1.7,1.2L182.9,210.5z M189.4,209.9l-1.9,1.4l2.1,1.4c0.1,0.1,0.3,0.2,0.5,0.3
		c0.2,0.1,0.4,0.3,0.6,0.4c-0.1-0.2-0.2-0.5-0.2-0.7c-0.1-0.2-0.1-0.4-0.2-0.5L189.4,209.9z"/>
	<path class="st1" d="M178.9,223.1c-0.1,0-0.1,0-0.2,0c-0.1,0-0.1,0-0.2,0c-0.1,0-0.1,0-0.2-0.1l-6.1-2.8c0.1,0.1,0.2,0.3,0.3,0.4
		c0.1,0.1,0.2,0.3,0.2,0.4l2.1,4.1l-1.6,0.8l-4-7.8l0.9-0.5c0.1-0.1,0.3-0.1,0.4-0.1c0.1,0,0.3,0,0.4,0.1l6.1,2.7
		c-0.1-0.1-0.2-0.3-0.2-0.4c-0.1-0.1-0.1-0.2-0.2-0.4l-2.1-4.2l1.6-0.8l4,7.8l-0.9,0.5C179,223,178.9,223.1,178.9,223.1z"/>
	<path class="st1" d="M153.4,224.1l1.5-0.5c0.2-0.1,0.3-0.1,0.5,0c0.1,0,0.2,0.1,0.3,0.2l1,1.3l3.2-1l0-1.6c0-0.1,0-0.2,0.1-0.4
		c0.1-0.1,0.2-0.2,0.4-0.3l1.5-0.5l-0.5,9.4l-2,0.6L153.4,224.1z M159.7,225.6l-2.3,0.7l1.5,2c0.1,0.1,0.2,0.3,0.3,0.5
		c0.1,0.2,0.3,0.4,0.4,0.6c0-0.3,0-0.5,0-0.7c0-0.2,0-0.4,0-0.6L159.7,225.6z"/>
	<path class="st1" d="M143.8,227.9l-3.2,0.5l-0.3-1.6l5.2-0.9l1.5,8.6l-2,0.3L143.8,227.9z"/>
	<path class="st1" d="M129.2,231.1l-0.1-3.3l2-0.1l0.1,3.3l3.4,5.3l-1.8,0.1c-0.2,0-0.3,0-0.4-0.1c-0.1-0.1-0.2-0.2-0.3-0.3
		l-1.3-2.5c-0.1-0.2-0.2-0.4-0.3-0.6c-0.1-0.2-0.2-0.3-0.2-0.5c-0.1,0.2-0.1,0.3-0.2,0.5c-0.1,0.2-0.2,0.4-0.2,0.6l-1.1,2.6
		c0,0.1-0.1,0.1-0.1,0.2c0,0.1-0.1,0.1-0.1,0.1c-0.1,0-0.1,0.1-0.2,0.1c-0.1,0-0.1,0-0.2,0l-1.8,0.1L129.2,231.1z"/>
	<path class="st1" d="M110.6,235.5l0.2-1.6l2.4,0.3l0.8-7.1l2,0.2l-0.8,7.1l2.4,0.3l-0.2,1.6L110.6,235.5z"/>
	<path class="st1" d="M101.4,224.7l2,0.5l-2.1,8.5l-2-0.5L101.4,224.7z"/>
	<path class="st1" d="M86.4,222.1c0,0-0.1,0-0.1-0.1c0,0-0.1-0.1-0.1-0.1l-0.4-1.1c0.5-0.3,1-0.5,1.6-0.5c0.6,0,1.2,0.1,1.9,0.4
		c0.6,0.2,1.1,0.6,1.5,1c0.4,0.4,0.7,0.9,0.9,1.4c0.2,0.5,0.3,1,0.3,1.6s-0.1,1.2-0.4,1.8c-0.2,0.6-0.6,1.1-1,1.6
		c-0.4,0.4-0.9,0.8-1.4,1c-0.5,0.2-1.1,0.3-1.7,0.3c-0.6,0-1.2-0.1-1.8-0.4c-0.3-0.1-0.6-0.3-0.8-0.4c-0.2-0.2-0.5-0.3-0.7-0.5
		c-0.2-0.2-0.4-0.4-0.5-0.6c-0.1-0.2-0.3-0.4-0.4-0.6l1-0.6c0.1,0,0.1-0.1,0.2-0.1c0.1,0,0.2,0,0.3,0c0.1,0,0.1,0.1,0.2,0.1
		c0,0.1,0.1,0.1,0.1,0.2c0.1,0.1,0.1,0.1,0.2,0.2s0.1,0.2,0.2,0.3c0.1,0.1,0.2,0.2,0.3,0.3c0.1,0.1,0.3,0.2,0.5,0.2
		c0.3,0.1,0.7,0.2,1,0.2c0.3,0,0.6-0.1,0.9-0.2s0.6-0.4,0.8-0.6c0.2-0.3,0.4-0.6,0.6-1c0.2-0.4,0.2-0.8,0.3-1.2c0-0.4,0-0.7-0.1-1
		c-0.1-0.3-0.3-0.6-0.5-0.8c-0.2-0.2-0.5-0.4-0.8-0.5c-0.2-0.1-0.3-0.1-0.5-0.2c-0.1,0-0.3-0.1-0.4-0.1c-0.1,0-0.3,0-0.4,0
		c-0.1,0-0.3,0.1-0.4,0.1c-0.1,0-0.1,0-0.2,0C86.5,222.2,86.5,222.1,86.4,222.1z"/>
	<path class="st1" d="M71.1,219.7c0.1-0.1,0.2-0.1,0.3-0.1c0.1,0,0.2,0,0.3,0.1c0.1,0,0.2,0.1,0.2,0.2c0.1,0.1,0.1,0.2,0.2,0.3
		c0.1,0.1,0.2,0.3,0.3,0.4c0.1,0.1,0.3,0.3,0.5,0.4c0.3,0.2,0.6,0.3,0.9,0.2c0.2-0.1,0.4-0.2,0.6-0.4c0.1-0.2,0.1-0.3,0.1-0.5
		s-0.1-0.3-0.2-0.5c-0.1-0.2-0.3-0.3-0.4-0.5c-0.2-0.2-0.3-0.4-0.5-0.6c-0.2-0.2-0.3-0.4-0.5-0.6c-0.1-0.2-0.3-0.4-0.3-0.7
		c-0.1-0.2-0.1-0.5-0.1-0.8c0-0.3,0.1-0.6,0.3-0.9c0.2-0.4,0.4-0.6,0.7-0.9c0.3-0.2,0.6-0.4,1-0.5c0.4-0.1,0.7-0.1,1.2-0.1
		c0.4,0.1,0.8,0.2,1.3,0.5c0.2,0.1,0.5,0.3,0.7,0.5c0.2,0.2,0.4,0.4,0.6,0.6c0.2,0.2,0.3,0.4,0.5,0.7c0.1,0.2,0.2,0.5,0.3,0.7
		l-1,0.5c-0.1,0-0.2,0.1-0.2,0.1c-0.1,0-0.2,0-0.3-0.1c-0.1-0.1-0.2-0.1-0.3-0.3c-0.1-0.1-0.1-0.3-0.2-0.4c-0.1-0.2-0.2-0.3-0.3-0.5
		c-0.1-0.2-0.3-0.3-0.6-0.4c-0.3-0.2-0.6-0.3-0.9-0.2c-0.3,0-0.5,0.2-0.6,0.5c-0.1,0.2-0.1,0.4-0.1,0.5c0,0.2,0.1,0.3,0.2,0.5
		c0.1,0.2,0.3,0.3,0.4,0.5c0.2,0.2,0.3,0.3,0.5,0.5c0.2,0.2,0.3,0.4,0.5,0.6c0.1,0.2,0.3,0.4,0.3,0.7s0.1,0.5,0,0.8
		c0,0.3-0.2,0.6-0.4,1c-0.2,0.3-0.4,0.5-0.6,0.7c-0.3,0.2-0.6,0.4-0.9,0.4c-0.3,0.1-0.7,0.1-1.1,0c-0.4-0.1-0.8-0.2-1.2-0.4
		c-0.2-0.1-0.4-0.3-0.7-0.4c-0.2-0.2-0.4-0.3-0.5-0.5c-0.2-0.2-0.3-0.4-0.4-0.6c-0.1-0.2-0.2-0.4-0.3-0.6L71.1,219.7z"/>
	<path class="st1" d="M53.4,197l1.1,1.1c0.1,0.1,0.2,0.3,0.2,0.4c0,0.1,0,0.3,0,0.4l-0.7,1.5l2.4,2.3l1.4-0.8
		c0.1-0.1,0.2-0.1,0.4-0.1c0.1,0,0.3,0.1,0.4,0.2l1.2,1.1l-8.5,4l-1.5-1.4L53.4,197z M55.1,203.3l-1.7-1.6l-1.1,2.3
		c-0.1,0.1-0.1,0.3-0.2,0.5c-0.1,0.2-0.2,0.4-0.3,0.6c0.2-0.1,0.4-0.3,0.6-0.4c0.2-0.1,0.4-0.2,0.5-0.3L55.1,203.3z"/>
	<path class="st1" d="M40.3,195.3c0-0.1-0.1-0.1-0.1-0.2c0-0.1,0-0.1,0-0.2c0-0.1,0-0.1,0-0.2l1.7-6.5c-0.1,0.1-0.2,0.2-0.4,0.3
		c-0.1,0.1-0.2,0.2-0.3,0.3l-3.7,2.8l-1.1-1.4l7-5.3l0.6,0.8c0.1,0.1,0.2,0.2,0.2,0.4c0,0.1,0,0.3,0,0.4l-1.6,6.4
		c0.1-0.1,0.2-0.2,0.3-0.3c0.1-0.1,0.2-0.2,0.3-0.3l3.7-2.8L48,191l-7,5.3l-0.6-0.9C40.4,195.4,40.3,195.3,40.3,195.3z"/>
	<path class="st1" d="M31.1,172.6c0.6-0.3,1.1-0.5,1.7-0.5c0.6-0.1,1.1,0,1.7,0.2c0.5,0.2,1,0.4,1.5,0.8c0.5,0.4,0.8,0.9,1.2,1.5
		l1.6,3l-7.7,4.1l-1.6-3c-0.3-0.6-0.5-1.2-0.6-1.8c-0.1-0.6,0-1.2,0.1-1.7c0.2-0.5,0.4-1,0.8-1.5C30,173.3,30.5,172.9,31.1,172.6z
		 M32,174.4c-0.4,0.2-0.7,0.4-1,0.7c-0.3,0.3-0.4,0.5-0.6,0.8c-0.1,0.3-0.2,0.6-0.1,0.9c0,0.3,0.1,0.7,0.3,1l0.6,1.2l5-2.6l-0.6-1.2
		c-0.2-0.3-0.4-0.6-0.7-0.8s-0.5-0.3-0.9-0.4s-0.6-0.1-1,0C32.8,174.1,32.4,174.2,32,174.4z"/>
	<path class="st1" d="M28,151.4l0.5,2l-8.5,2.2l-0.5-2L28,151.4z"/>
	<path class="st1" d="M17.3,142.3c0-0.1,0-0.1,0-0.2c0-0.1,0-0.1,0.1-0.1c0,0,0.1-0.1,0.1-0.2l4.7-4.8c-0.2,0-0.3,0.1-0.5,0.1
		c-0.2,0-0.3,0-0.4,0.1l-4.6,0.6l-0.2-1.8l8.7-1.1l0.1,1c0,0.2,0,0.3,0,0.4c0,0.1-0.1,0.2-0.2,0.3l-4.7,4.7c0.1,0,0.3-0.1,0.4-0.1
		c0.1,0,0.3,0,0.4-0.1l4.7-0.6l0.2,1.8l-8.7,1.1l-0.1-1.1C17.3,142.5,17.3,142.4,17.3,142.3z"/>
	<path class="st1" d="M16.4,119.6l1.6,0.1l-0.1,2.5l7.1,0.2l-0.1,2l-7.1-0.2l-0.1,2.5l-1.6-0.1L16.4,119.6z"/>
	<path class="st1" d="M18.4,104.6l1.5,0.3l-0.6,3.5l2,0.4l0.5-2.7l1.5,0.3l-0.5,2.7l2,0.4l0.6-3.5l1.5,0.3l-1,5.5l-8.6-1.5
		L18.4,104.6z"/>
	<path class="st1" d="M28.2,95.4l1-3.1l1.5,0.5l-1.6,5l-8.3-2.7l0.6-1.9L28.2,95.4z"/>
	<path class="st1" d="M33.3,82.5l1.4-2.9l1.5,0.7l-2.3,4.8L26,81.3l0.9-1.8L33.3,82.5z"/>
	<path class="st1" d="M41.5,71.1l-1.1,1.7L33,68.2l1.1-1.7L41.5,71.1z"/>
	<path class="st1" d="M48.2,59.7c0.2-0.2,0.3-0.4,0.4-0.6c0.1-0.2,0.2-0.4,0.3-0.6l-1-0.9l-0.6,0.7c-0.1,0.1-0.2,0.2-0.3,0.2
		c-0.1,0-0.2,0-0.3-0.1L46,57.7l2-2.4l2.8,2.4c0,0.3-0.1,0.5-0.1,0.8c-0.1,0.3-0.2,0.5-0.3,0.8c-0.1,0.3-0.3,0.5-0.4,0.8
		c-0.2,0.3-0.4,0.5-0.6,0.8c-0.4,0.5-0.9,0.9-1.4,1.1c-0.5,0.3-1.1,0.4-1.6,0.5c-0.6,0-1.1,0-1.7-0.2c-0.6-0.2-1.1-0.5-1.6-0.9
		c-0.5-0.4-0.9-0.9-1.2-1.4c-0.3-0.5-0.4-1.1-0.5-1.6c0-0.6,0-1.1,0.2-1.7c0.2-0.6,0.5-1.1,1-1.7c0.2-0.3,0.5-0.5,0.7-0.7
		s0.5-0.4,0.8-0.5c0.3-0.1,0.5-0.2,0.8-0.3c0.3-0.1,0.5-0.1,0.7-0.2l0.3,1c0,0.1,0,0.2,0,0.3c0,0.1,0,0.2-0.1,0.2
		c-0.1,0.1-0.2,0.2-0.3,0.2c-0.2,0.1-0.3,0.1-0.5,0.2c-0.1,0.1-0.3,0.1-0.4,0.2c-0.1,0.1-0.3,0.2-0.4,0.3c-0.1,0.1-0.2,0.2-0.4,0.4
		c-0.2,0.3-0.4,0.6-0.5,0.9c-0.1,0.3-0.1,0.6-0.1,1c0,0.3,0.2,0.6,0.3,0.9c0.2,0.3,0.4,0.6,0.8,0.9c0.4,0.3,0.7,0.5,1.1,0.7
		c0.4,0.1,0.7,0.2,1,0.2c0.3,0,0.7-0.1,1-0.2C47.7,60.2,48,60,48.2,59.7z"/>
	<path class="st1" d="M56,41.9l1,1.2l-2.7,2.4l1.3,1.5l2.1-1.8l1,1.1l-2.1,1.8l1.4,1.6l2.7-2.4l1,1.2l-4.2,3.7l-5.8-6.6L56,41.9z"/>
	<path class="st1" d="M65,35.2c0.1,0,0.1,0,0.2,0c0.1,0,0.1,0,0.2,0c0.1,0,0.1,0,0.2,0.1l6.3,2.2c-0.1-0.1-0.2-0.3-0.3-0.4
		c-0.1-0.1-0.2-0.3-0.3-0.4l-2.5-3.9l1.5-1l4.7,7.4l-0.9,0.6c-0.1,0.1-0.3,0.1-0.4,0.2c-0.1,0-0.3,0-0.4-0.1L67,37.7
		c0.1,0.1,0.2,0.2,0.3,0.4c0.1,0.1,0.2,0.2,0.2,0.3l2.5,4l-1.5,1l-4.7-7.4l0.9-0.6C64.8,35.3,64.9,35.3,65,35.2z"/>
	<path class="st1" d="M87.3,30.7c0,0,0.1,0,0.1,0c0.1,0,0.1,0,0.2,0l1.1,0.5c-0.1,0.6-0.4,1.1-0.8,1.5c-0.4,0.4-0.9,0.8-1.6,1.1
		c-0.6,0.3-1.2,0.4-1.8,0.4c-0.6,0-1.1-0.1-1.6-0.3c-0.5-0.2-0.9-0.5-1.3-1c-0.4-0.4-0.7-0.9-1-1.5c-0.3-0.6-0.4-1.2-0.4-1.8
		c0-0.6,0.1-1.1,0.3-1.7c0.2-0.5,0.5-1,1-1.4c0.4-0.4,0.9-0.8,1.6-1c0.3-0.1,0.6-0.2,0.9-0.3c0.3-0.1,0.6-0.1,0.8-0.1
		c0.3,0,0.5,0,0.8,0.1c0.3,0,0.5,0.1,0.7,0.2l-0.3,1.1c0,0.1,0,0.1-0.1,0.2c0,0.1-0.1,0.1-0.2,0.2c-0.1,0-0.1,0-0.2,0
		c-0.1,0-0.1,0-0.2,0s-0.2,0-0.3,0c-0.1,0-0.2,0-0.3,0c-0.1,0-0.3,0-0.4,0.1c-0.2,0-0.3,0.1-0.5,0.2c-0.3,0.1-0.6,0.3-0.8,0.6
		s-0.4,0.5-0.5,0.8c-0.1,0.3-0.1,0.6-0.1,1c0,0.4,0.1,0.7,0.3,1.1c0.2,0.4,0.4,0.8,0.6,1s0.5,0.5,0.8,0.6c0.3,0.1,0.6,0.2,0.9,0.2
		c0.3,0,0.6-0.1,0.9-0.2c0.2-0.1,0.3-0.1,0.5-0.2c0.1-0.1,0.2-0.2,0.4-0.3c0.1-0.1,0.2-0.2,0.3-0.3c0.1-0.1,0.2-0.2,0.2-0.4
		c0-0.1,0.1-0.1,0.1-0.2C87.2,30.8,87.2,30.7,87.3,30.7z"/>
	<path class="st1" d="M100.2,19.7l0.4,1.5l-3.5,0.9l0.5,2l2.7-0.7l0.4,1.4l-2.7,0.7l0.5,2l3.5-0.9l0.4,1.5L97,29.7l-2.3-8.4
		L100.2,19.7z"/>
</g>
<polygon class="st1" points="81.4,204.2 36.6,126.6 81.4,49 170.9,49 215.7,126.6 170.9,204.2 "/>
<path class="st2" d="M194.2,126.6c0,37.6-30.5,68-68,68c-37.6,0-68-30.5-68-68c0-37.6,30.5-68,68-68
	C163.7,58.6,194.2,89,194.2,126.6z"/>
<circle class="st1" cx="126.3" cy="20.7" r="4.7"/>
<g>
	<path class="st1" d="M83.6,131.9c0.1,0,0.2,0,0.4,0.1c0.1,0,0.2,0.1,0.4,0.2l2,2.1c-0.9,1.2-2,2.1-3.4,2.6
		c-1.3,0.6-2.9,0.9-4.8,0.9c-1.7,0-3.2-0.3-4.5-0.9c-1.3-0.6-2.5-1.4-3.4-2.4c-0.9-1-1.6-2.2-2.1-3.6c-0.5-1.4-0.7-2.9-0.7-4.5
		c0-1.7,0.3-3.2,0.9-4.6c0.6-1.4,1.4-2.6,2.4-3.6c1-1,2.2-1.8,3.7-2.3c1.4-0.6,3-0.8,4.7-0.8c0.8,0,1.6,0.1,2.4,0.2
		c0.7,0.1,1.4,0.3,2.1,0.6c0.6,0.3,1.2,0.6,1.8,0.9c0.5,0.4,1,0.8,1.4,1.2l-1.7,2.3c-0.1,0.1-0.2,0.3-0.4,0.4
		c-0.2,0.1-0.4,0.2-0.6,0.2c-0.2,0-0.4,0-0.5-0.1c-0.2-0.1-0.3-0.2-0.5-0.3c-0.2-0.1-0.4-0.2-0.6-0.4c-0.2-0.1-0.5-0.3-0.8-0.4
		c-0.3-0.1-0.6-0.2-1.1-0.3c-0.4-0.1-0.9-0.1-1.4-0.1c-0.9,0-1.8,0.2-2.6,0.5c-0.8,0.3-1.4,0.8-2,1.4c-0.6,0.6-1,1.4-1.3,2.2
		c-0.3,0.9-0.5,1.9-0.5,2.9c0,1.1,0.2,2.1,0.5,3c0.3,0.9,0.7,1.6,1.3,2.2c0.5,0.6,1.2,1.1,1.9,1.4c0.7,0.3,1.5,0.5,2.3,0.5
		c0.5,0,0.9,0,1.3-0.1c0.4,0,0.7-0.1,1.1-0.2c0.3-0.1,0.6-0.3,0.9-0.4c0.3-0.2,0.6-0.4,0.9-0.7c0.1-0.1,0.3-0.2,0.4-0.3
		C83.3,132,83.5,131.9,83.6,131.9z"/>
	<path class="st1" d="M104.2,115.5v4h-9.1v5.2h7v3.8h-7v5.3h9.1v4H90v-22.2L104.2,115.5L104.2,115.5z"/>
	<path class="st1" d="M111.7,115.5c0.2,0,0.3,0.1,0.4,0.1c0.1,0.1,0.2,0.1,0.4,0.2c0.1,0.1,0.2,0.2,0.4,0.4l10.5,13.3
		c0-0.4-0.1-0.8-0.1-1.2c0-0.4,0-0.8,0-1.1v-11.7h4.5v22.2h-2.7c-0.4,0-0.7-0.1-1-0.2c-0.3-0.1-0.5-0.3-0.8-0.7l-10.5-13.2
		c0,0.4,0.1,0.8,0.1,1.1c0,0.4,0,0.7,0,1v11.9h-4.5v-22.2h2.7C111.3,115.5,111.5,115.5,111.7,115.5z"/>
	<path class="st1" d="M152.8,126.6c0,1.6-0.3,3.1-0.8,4.4c-0.6,1.4-1.3,2.5-2.3,3.5c-1,1-2.2,1.8-3.6,2.3c-1.4,0.6-3,0.8-4.7,0.8
		h-8.6v-22.2h8.6c1.7,0,3.3,0.3,4.7,0.8c1.4,0.6,2.6,1.3,3.6,2.3c1,1,1.8,2.2,2.3,3.5C152.5,123.5,152.8,125,152.8,126.6z
		 M147.5,126.6c0-1.1-0.1-2.1-0.4-3c-0.3-0.9-0.7-1.6-1.2-2.2c-0.5-0.6-1.2-1.1-2-1.4c-0.8-0.3-1.7-0.5-2.6-0.5h-3.4v14.3h3.4
		c1,0,1.9-0.2,2.6-0.5c0.8-0.3,1.4-0.8,2-1.4s0.9-1.4,1.2-2.2C147.4,128.7,147.5,127.7,147.5,126.6z"/>
	<path class="st1" d="M176.2,137.7h-4c-0.4,0-0.8-0.1-1.1-0.3c-0.3-0.2-0.5-0.5-0.6-0.8l-1.3-3.9h-8.4l-1.3,3.9
		c-0.1,0.3-0.3,0.5-0.6,0.8c-0.3,0.2-0.7,0.3-1.1,0.3h-4l8.6-22.2h5.3L176.2,137.7z M161.9,129.2h6.1l-2-6.1
		c-0.1-0.4-0.3-0.8-0.5-1.4c-0.2-0.5-0.4-1.1-0.5-1.7c-0.2,0.6-0.3,1.2-0.5,1.7c-0.2,0.5-0.3,1-0.5,1.4L161.9,129.2z"/>
	<path class="st1" d="M184.8,137.7h-5.2v-22.2h5.2V137.7z"/>
</g>
</svg>
