<?xml version="1.0" encoding="utf-8"?>
<!-- Generator: Adobe Illustrator 23.0.6, SVG Export Plug-In . SVG Version: 6.00 Build 0)  -->
<svg version="1.1" id="Vrstva_1" xmlns="http://www.w3.org/2000/svg" xmlns:xlink="http://www.w3.org/1999/xlink" x="0px" y="0px"
	 viewBox="0 0 151.8 151" style="enable-background:new 0 0 151.8 151;" xml:space="preserve">
<style type="text/css">
	.st0{fill:#FFFFFF;stroke:#00558F;stroke-width:2.9731;stroke-miterlimit:10;}
	.st1{fill:#00558F;}
	.st2{fill:#FFFFFF;}
</style>
<circle class="st0" cx="75.8" cy="75.4" r="73.3"/>
<g>
	<path class="st1" d="M93.2,16.4C93.2,16.4,93.2,16.4,93.2,16.4c0.1,0.1,0.1,0.1,0.1,0.1l0.3,0.6c-0.3,0.2-0.6,0.3-0.9,0.4
		c-0.3,0.1-0.7,0-1.1-0.1c-0.4-0.1-0.7-0.3-1-0.5c-0.3-0.2-0.5-0.5-0.6-0.7c-0.1-0.3-0.2-0.6-0.3-0.9c0-0.3,0-0.7,0.1-1.1
		c0.1-0.4,0.3-0.7,0.5-1c0.2-0.3,0.5-0.5,0.8-0.7c0.3-0.2,0.6-0.3,1-0.3c0.4,0,0.7,0,1.1,0.1c0.2,0,0.4,0.1,0.5,0.2
		c0.2,0.1,0.3,0.2,0.4,0.3c0.1,0.1,0.2,0.2,0.3,0.3c0.1,0.1,0.2,0.2,0.3,0.4l-0.5,0.4c0,0-0.1,0-0.1,0.1c0,0-0.1,0-0.2,0
		c0,0-0.1,0-0.1-0.1c0,0-0.1-0.1-0.1-0.1c0,0-0.1-0.1-0.1-0.1s-0.1-0.1-0.2-0.1c-0.1,0-0.1-0.1-0.2-0.1c-0.1,0-0.2-0.1-0.3-0.1
		c-0.2-0.1-0.4-0.1-0.6,0c-0.2,0-0.4,0.1-0.5,0.2c-0.2,0.1-0.3,0.2-0.4,0.4c-0.1,0.2-0.2,0.4-0.3,0.6c-0.1,0.3-0.1,0.5-0.1,0.7
		c0,0.2,0.1,0.4,0.2,0.6c0.1,0.2,0.2,0.3,0.3,0.4c0.1,0.1,0.3,0.2,0.5,0.2c0.1,0,0.2,0,0.3,0.1c0.1,0,0.2,0,0.3,0c0.1,0,0.2,0,0.2,0
		s0.2-0.1,0.2-0.1c0,0,0.1,0,0.1,0C93.1,16.4,93.1,16.4,93.2,16.4z"/>
	<path class="st1" d="M103.2,16l-0.4,0.9l-2-0.8l-0.5,1.1l1.5,0.6l-0.3,0.8L100,18l-0.5,1.1l2,0.8l-0.4,0.9l-3.1-1.3l2-4.8L103.2,16
		z"/>
	<path class="st1" d="M109,19.1C109.1,19.1,109.1,19.1,109,19.1c0.1,0.1,0.1,0.1,0.1,0.2c0,0,0,0.1,0,0.1l0.5,4
		c0-0.1,0.1-0.2,0.1-0.3c0-0.1,0.1-0.2,0.1-0.2l1.4-2.3l0.9,0.6l-2.7,4.4l-0.5-0.3c-0.1,0-0.1-0.1-0.2-0.2c0-0.1-0.1-0.1-0.1-0.2
		l-0.5-3.9c0,0.1-0.1,0.2-0.1,0.2c0,0.1-0.1,0.1-0.1,0.2l-1.5,2.4l-0.9-0.6l2.7-4.4l0.5,0.3C109,19,109,19.1,109,19.1z"/>
	<path class="st1" d="M120,27.1l-0.6,0.7l-1.1-1l-2.8,3.2l-0.9-0.8l2.8-3.2l-1.1-1l0.6-0.7L120,27.1z"/>
	<path class="st1" d="M126.2,33.6l-0.7,0.6l-1.4-1.6l-0.9,0.8l1.1,1.2l-0.7,0.6l-1.1-1.2l-0.9,0.8l1.4,1.6l-0.7,0.6l-2.2-2.5
		l3.9-3.4L126.2,33.6z"/>
	<path class="st1" d="M127.6,41.1l-1.6,1l-0.7-1l4.4-2.8l0.9,1.4c0.2,0.3,0.3,0.6,0.4,0.9c0.1,0.3,0.1,0.5,0.1,0.7
		c0,0.2-0.1,0.4-0.2,0.6c-0.1,0.2-0.3,0.3-0.5,0.4c-0.1,0.1-0.3,0.2-0.4,0.2c-0.1,0-0.3,0.1-0.5,0.1c-0.2,0-0.3,0-0.5-0.1
		c-0.2-0.1-0.3-0.1-0.5-0.2c0,0.1,0,0.2,0,0.3c0,0.1,0,0.2-0.1,0.3l-0.9,1.9l-0.6-0.9c-0.1-0.2-0.1-0.3,0-0.5l0.8-1.5
		c0-0.1,0.1-0.1,0-0.2c0-0.1,0-0.1-0.1-0.2L127.6,41.1z M128.3,40.6l0.3,0.4c0.1,0.1,0.2,0.2,0.3,0.3c0.1,0.1,0.2,0.1,0.3,0.1
		c0.1,0,0.2,0,0.3,0c0.1,0,0.2-0.1,0.3-0.1c0.2-0.1,0.3-0.3,0.3-0.5c0-0.2,0-0.4-0.2-0.7l-0.3-0.4L128.3,40.6z"/>
	<path class="st1" d="M138.2,55.8l-0.9,0.3l-0.7-2l-1.2,0.4l0.6,1.7l-0.9,0.3l-0.6-1.7l-1.9,0.7l-0.4-1.1l4.9-1.7L138.2,55.8z"/>
	<path class="st1" d="M138.1,66.9c-0.4,0.1-0.7,0.1-1.1,0c-0.3-0.1-0.7-0.2-0.9-0.4c-0.3-0.2-0.5-0.4-0.7-0.7
		c-0.2-0.3-0.3-0.7-0.4-1.1c-0.1-0.4-0.1-0.8,0-1.1c0.1-0.4,0.2-0.7,0.4-0.9c0.2-0.3,0.4-0.5,0.7-0.7c0.3-0.2,0.6-0.3,1-0.4
		c0.4-0.1,0.7-0.1,1.1,0c0.3,0.1,0.7,0.2,0.9,0.4c0.3,0.2,0.5,0.4,0.7,0.7c0.2,0.3,0.3,0.7,0.4,1.1c0.1,0.4,0.1,0.8,0,1.1
		c-0.1,0.4-0.2,0.7-0.4,0.9c-0.2,0.3-0.4,0.5-0.7,0.7C138.8,66.7,138.5,66.8,138.1,66.9z M137.9,65.7c0.3,0,0.5-0.1,0.7-0.2
		c0.2-0.1,0.3-0.2,0.5-0.4c0.1-0.1,0.2-0.3,0.2-0.5c0-0.2,0-0.4,0-0.6c0-0.2-0.1-0.4-0.2-0.6c-0.1-0.2-0.2-0.3-0.4-0.4
		c-0.2-0.1-0.4-0.2-0.6-0.2c-0.2,0-0.4,0-0.7,0c-0.3,0-0.5,0.1-0.7,0.2c-0.2,0.1-0.3,0.2-0.5,0.4c-0.1,0.1-0.2,0.3-0.2,0.5
		c0,0.2,0,0.4,0,0.6c0,0.2,0.1,0.4,0.2,0.6c0.1,0.2,0.2,0.3,0.4,0.4c0.2,0.1,0.4,0.2,0.6,0.2C137.4,65.7,137.6,65.7,137.9,65.7z"/>
	<path class="st1" d="M137.9,73.5l-1.9,0l0-1.2l5.2-0.1l0,1.7c0,0.4,0,0.7-0.1,1c-0.1,0.3-0.2,0.5-0.3,0.7c-0.1,0.2-0.3,0.3-0.5,0.4
		c-0.2,0.1-0.4,0.1-0.6,0.1c-0.2,0-0.3,0-0.5-0.1c-0.2,0-0.3-0.1-0.4-0.2c-0.1-0.1-0.2-0.2-0.3-0.3c-0.1-0.1-0.2-0.3-0.3-0.4
		c0,0.1-0.1,0.2-0.1,0.2c-0.1,0.1-0.1,0.1-0.2,0.2l-1.8,1.1l0-1.1c0-0.2,0.1-0.3,0.2-0.4l1.5-0.9c0.1,0,0.1-0.1,0.1-0.1
		c0-0.1,0-0.1,0-0.2L137.9,73.5z M138.8,73.5l0,0.5c0,0.2,0,0.3,0.1,0.4s0.1,0.2,0.2,0.3c0.1,0.1,0.2,0.1,0.3,0.2c0.1,0,0.2,0,0.3,0
		c0.2,0,0.4-0.1,0.5-0.2c0.1-0.2,0.2-0.4,0.2-0.7l0-0.5L138.8,73.5z"/>
	<path class="st1" d="M136.3,92.4c-0.4-0.1-0.7-0.2-1-0.4c-0.3-0.2-0.5-0.4-0.7-0.7c-0.2-0.3-0.3-0.6-0.3-1c0-0.4,0-0.7,0.1-1.1
		l0.5-2l5.1,1.2l-0.5,2c-0.1,0.4-0.2,0.7-0.4,1c-0.2,0.3-0.4,0.5-0.7,0.7c-0.3,0.2-0.6,0.3-0.9,0.3
		C137.1,92.5,136.7,92.5,136.3,92.4z M136.6,91.2c0.2,0.1,0.5,0.1,0.7,0.1c0.2,0,0.4-0.1,0.6-0.2c0.2-0.1,0.3-0.2,0.4-0.4
		c0.1-0.2,0.2-0.3,0.3-0.6l0.2-0.8l-3.3-0.8l-0.2,0.8c-0.1,0.2-0.1,0.4,0,0.6c0,0.2,0.1,0.4,0.2,0.5c0.1,0.2,0.3,0.3,0.4,0.4
		C136.2,91,136.4,91.1,136.6,91.2z"/>
	<path class="st1" d="M130.5,100.7l0.4-0.9c0-0.1,0.1-0.2,0.2-0.2c0.1,0,0.1-0.1,0.2-0.1l1,0.1l0.8-1.8l-0.7-0.6
		c-0.1,0-0.1-0.1-0.1-0.2c0-0.1,0-0.2,0-0.3l0.4-0.9l4,3.8l-0.5,1.1L130.5,100.7z M133.6,98.4l-0.5,1.3l1.5,0.1c0.1,0,0.2,0,0.3,0
		c0.1,0,0.3,0,0.4,0c-0.1-0.1-0.2-0.2-0.3-0.3c-0.1-0.1-0.2-0.2-0.3-0.2L133.6,98.4z"/>
	<path class="st1" d="M131.1,110.4l-0.8-0.5l0.7-1.3l-3.7-2.2l0.6-1l3.7,2.2l0.7-1.3l0.8,0.5L131.1,110.4z"/>
	<path class="st1" d="M121.2,115.1l0.6-0.7c0.1-0.1,0.1-0.1,0.2-0.2c0.1,0,0.2,0,0.2,0l0.9,0.3l1.2-1.5l-0.5-0.8
		c0-0.1-0.1-0.1-0.1-0.2c0-0.1,0-0.2,0.1-0.2l0.6-0.7l2.8,4.8l-0.8,1L121.2,115.1z M124.8,113.7l-0.9,1.1l1.4,0.5
		c0.1,0,0.2,0.1,0.3,0.1c0.1,0,0.3,0.1,0.4,0.2c-0.1-0.1-0.2-0.2-0.2-0.3c-0.1-0.1-0.1-0.2-0.2-0.3L124.8,113.7z"/>
	<path class="st1" d="M109.6,125.3l0.8-0.6c0.1-0.1,0.2-0.1,0.3-0.1c0.1,0,0.2,0,0.2,0.1l0.8,0.5l1.6-1.2l-0.3-0.9
		c0-0.1,0-0.1,0-0.2c0-0.1,0.1-0.2,0.2-0.2l0.8-0.6l1.5,5.4l-1,0.7L109.6,125.3z M113.4,124.9l-1.1,0.8l1.2,0.9
		c0.1,0.1,0.2,0.1,0.3,0.2c0.1,0.1,0.2,0.2,0.3,0.2c-0.1-0.1-0.1-0.3-0.1-0.4c0-0.1-0.1-0.2-0.1-0.3L113.4,124.9z"/>
	<path class="st1" d="M107.2,132.8C107.2,132.8,107.1,132.8,107.2,132.8c-0.1,0-0.2,0-0.2,0c0,0-0.1,0-0.1,0l-3.6-1.6
		c0.1,0.1,0.1,0.2,0.2,0.2c0,0.1,0.1,0.2,0.1,0.2l1.3,2.4l-0.9,0.5l-2.4-4.6l0.6-0.3c0.1,0,0.2-0.1,0.2-0.1c0.1,0,0.1,0,0.2,0.1
		l3.6,1.6c0-0.1-0.1-0.2-0.1-0.2c0-0.1-0.1-0.1-0.1-0.2l-1.3-2.5l0.9-0.5l2.4,4.6l-0.6,0.3C107.3,132.8,107.2,132.8,107.2,132.8z"/>
	<path class="st1" d="M92,133.4l0.9-0.3c0.1,0,0.2,0,0.3,0c0.1,0,0.1,0.1,0.2,0.1L94,134l1.9-0.6l0-1c0-0.1,0-0.1,0.1-0.2
		c0-0.1,0.1-0.1,0.2-0.2l0.9-0.3l-0.3,5.6l-1.2,0.4L92,133.4z M95.8,134.3l-1.3,0.4l0.9,1.2c0.1,0.1,0.1,0.2,0.2,0.3
		c0.1,0.1,0.2,0.2,0.2,0.3c0-0.1,0-0.3,0-0.4c0-0.1,0-0.2,0-0.3L95.8,134.3z"/>
	<path class="st1" d="M86.3,135.6l-1.9,0.3l-0.2-0.9l3.1-0.5l0.9,5.1l-1.2,0.2L86.3,135.6z"/>
	<path class="st1" d="M77.7,137.5l-0.1-2l1.2,0l0.1,2l2,3.1l-1.1,0c-0.1,0-0.2,0-0.3-0.1c-0.1,0-0.1-0.1-0.2-0.2l-0.8-1.5
		c-0.1-0.1-0.1-0.2-0.2-0.3c-0.1-0.1-0.1-0.2-0.1-0.3c0,0.1-0.1,0.2-0.1,0.3c0,0.1-0.1,0.2-0.1,0.3l-0.7,1.5c0,0,0,0.1-0.1,0.1
		c0,0-0.1,0.1-0.1,0.1c0,0-0.1,0-0.1,0.1c0,0-0.1,0-0.1,0l-1.1,0L77.7,137.5z"/>
	<path class="st1" d="M66.6,140.2l0.1-1l1.5,0.2l0.5-4.2l1.2,0.1l-0.5,4.2l1.5,0.2l-0.1,1L66.6,140.2z"/>
	<path class="st1" d="M61.1,133.8l1.2,0.3l-1.2,5.1l-1.2-0.3L61.1,133.8z"/>
	<path class="st1" d="M52.2,132.2C52.2,132.2,52.2,132.2,52.2,132.2c-0.1-0.1-0.1-0.1-0.1-0.1l-0.3-0.6c0.3-0.2,0.6-0.3,1-0.3
		c0.3,0,0.7,0.1,1.1,0.2c0.4,0.1,0.7,0.3,0.9,0.6c0.2,0.2,0.4,0.5,0.5,0.8c0.1,0.3,0.2,0.6,0.2,1s-0.1,0.7-0.2,1.1
		c-0.1,0.4-0.3,0.7-0.6,0.9c-0.2,0.3-0.5,0.4-0.8,0.6c-0.3,0.1-0.6,0.2-1,0.2c-0.4,0-0.7-0.1-1.1-0.2c-0.2-0.1-0.3-0.2-0.5-0.2
		c-0.1-0.1-0.3-0.2-0.4-0.3c-0.1-0.1-0.2-0.2-0.3-0.4c-0.1-0.1-0.2-0.3-0.2-0.4l0.6-0.4c0,0,0.1,0,0.1-0.1c0,0,0.1,0,0.2,0
		c0,0,0.1,0,0.1,0.1c0,0,0.1,0.1,0.1,0.1c0,0,0.1,0.1,0.1,0.1c0,0,0.1,0.1,0.1,0.1c0.1,0.1,0.1,0.1,0.2,0.2c0.1,0.1,0.2,0.1,0.3,0.1
		c0.2,0.1,0.4,0.1,0.6,0.1c0.2,0,0.4-0.1,0.6-0.1s0.3-0.2,0.5-0.4c0.1-0.2,0.3-0.4,0.4-0.6c0.1-0.2,0.1-0.5,0.2-0.7
		c0-0.2,0-0.4-0.1-0.6c-0.1-0.2-0.2-0.3-0.3-0.5c-0.1-0.1-0.3-0.2-0.5-0.3c-0.1,0-0.2-0.1-0.3-0.1c-0.1,0-0.2,0-0.3,0
		c-0.1,0-0.2,0-0.2,0c-0.1,0-0.2,0-0.3,0.1c0,0-0.1,0-0.1,0C52.3,132.2,52.2,132.2,52.2,132.2z"/>
	<path class="st1" d="M43.1,130.8c0.1,0,0.1-0.1,0.2-0.1c0,0,0.1,0,0.2,0c0,0,0.1,0.1,0.1,0.1c0,0.1,0.1,0.1,0.1,0.2
		c0,0.1,0.1,0.2,0.2,0.2c0.1,0.1,0.2,0.2,0.3,0.2c0.2,0.1,0.4,0.2,0.5,0.1c0.1,0,0.3-0.1,0.3-0.3c0.1-0.1,0.1-0.2,0-0.3
		s-0.1-0.2-0.1-0.3c-0.1-0.1-0.2-0.2-0.3-0.3c-0.1-0.1-0.2-0.2-0.3-0.3c-0.1-0.1-0.2-0.2-0.3-0.4c-0.1-0.1-0.2-0.3-0.2-0.4
		c0-0.1-0.1-0.3,0-0.5c0-0.2,0.1-0.3,0.2-0.5c0.1-0.2,0.3-0.4,0.4-0.5c0.2-0.1,0.4-0.2,0.6-0.3c0.2-0.1,0.4-0.1,0.7,0
		c0.2,0,0.5,0.1,0.8,0.3c0.1,0.1,0.3,0.2,0.4,0.3c0.1,0.1,0.2,0.2,0.4,0.4c0.1,0.1,0.2,0.3,0.3,0.4c0.1,0.1,0.1,0.3,0.2,0.4
		l-0.6,0.3c0,0-0.1,0-0.1,0c-0.1,0-0.1,0-0.2,0c-0.1,0-0.1-0.1-0.2-0.2c0-0.1-0.1-0.2-0.1-0.3c-0.1-0.1-0.1-0.2-0.2-0.3
		c-0.1-0.1-0.2-0.2-0.3-0.3c-0.2-0.1-0.4-0.1-0.5-0.1c-0.2,0-0.3,0.1-0.4,0.3c-0.1,0.1-0.1,0.2-0.1,0.3c0,0.1,0.1,0.2,0.1,0.3
		c0.1,0.1,0.2,0.2,0.3,0.3c0.1,0.1,0.2,0.2,0.3,0.3c0.1,0.1,0.2,0.2,0.3,0.4c0.1,0.1,0.2,0.3,0.2,0.4c0,0.1,0,0.3,0,0.5
		c0,0.2-0.1,0.4-0.2,0.6c-0.1,0.2-0.2,0.3-0.4,0.4c-0.2,0.1-0.3,0.2-0.5,0.3c-0.2,0.1-0.4,0.1-0.7,0c-0.2,0-0.5-0.1-0.7-0.3
		c-0.1-0.1-0.3-0.2-0.4-0.3c-0.1-0.1-0.2-0.2-0.3-0.3c-0.1-0.1-0.2-0.2-0.2-0.3c-0.1-0.1-0.1-0.2-0.2-0.4L43.1,130.8z"/>
	<path class="st1" d="M32.6,117.3l0.7,0.6c0.1,0.1,0.1,0.1,0.1,0.2c0,0.1,0,0.2,0,0.2l-0.4,0.9l1.4,1.4l0.8-0.4c0.1,0,0.1,0,0.2,0
		c0.1,0,0.2,0,0.2,0.1l0.7,0.6l-5,2.4l-0.9-0.8L32.6,117.3z M33.6,121l-1-1l-0.6,1.4c0,0.1-0.1,0.2-0.1,0.3
		c-0.1,0.1-0.1,0.2-0.2,0.4c0.1-0.1,0.2-0.1,0.4-0.2c0.1-0.1,0.2-0.1,0.3-0.2L33.6,121z"/>
	<path class="st1" d="M24.8,116.3C24.8,116.2,24.8,116.2,24.8,116.3c0-0.1,0-0.2,0-0.2c0,0,0-0.1,0-0.1l1-3.9
		c-0.1,0.1-0.1,0.1-0.2,0.2c-0.1,0.1-0.1,0.1-0.2,0.2l-2.2,1.7l-0.6-0.8l4.1-3.1l0.4,0.5c0.1,0.1,0.1,0.1,0.1,0.2c0,0.1,0,0.1,0,0.2
		l-1,3.8c0.1-0.1,0.1-0.1,0.2-0.2c0.1-0.1,0.1-0.1,0.2-0.2l2.2-1.7l0.6,0.8l-4.1,3.1l-0.4-0.5C24.8,116.3,24.8,116.3,24.8,116.3z"/>
	<path class="st1" d="M19.3,102.8c0.3-0.2,0.7-0.3,1-0.3c0.3,0,0.7,0,1,0.1c0.3,0.1,0.6,0.3,0.9,0.5c0.3,0.2,0.5,0.5,0.7,0.9l1,1.8
		l-4.6,2.4l-0.9-1.8c-0.2-0.4-0.3-0.7-0.3-1.1c0-0.4,0-0.7,0.1-1c0.1-0.3,0.2-0.6,0.5-0.9C18.7,103.2,19,102.9,19.3,102.8z
		 M19.9,103.9c-0.2,0.1-0.4,0.3-0.6,0.4c-0.2,0.2-0.3,0.3-0.3,0.5c-0.1,0.2-0.1,0.4-0.1,0.6c0,0.2,0.1,0.4,0.2,0.6l0.4,0.7l3-1.6
		l-0.4-0.7c-0.1-0.2-0.2-0.4-0.4-0.5c-0.2-0.1-0.3-0.2-0.5-0.2c-0.2,0-0.4,0-0.6,0C20.3,103.7,20.1,103.7,19.9,103.9z"/>
	<path class="st1" d="M17.5,90.1l0.3,1.2l-5,1.3l-0.3-1.2L17.5,90.1z"/>
	<path class="st1" d="M11.1,84.8C11.1,84.7,11.1,84.7,11.1,84.8c0-0.1,0-0.2,0.1-0.2c0,0,0-0.1,0.1-0.1l2.8-2.8
		c-0.1,0-0.2,0-0.3,0.1c-0.1,0-0.2,0-0.3,0l-2.7,0.3L10.7,81l5.2-0.6l0.1,0.6c0,0.1,0,0.2,0,0.2c0,0.1-0.1,0.1-0.1,0.2L13,84.3
		c0.1,0,0.2,0,0.3,0c0.1,0,0.2,0,0.2,0l2.8-0.3l0.1,1.1l-5.2,0.6l-0.1-0.6C11.1,84.9,11.1,84.8,11.1,84.8z"/>
	<path class="st1" d="M10.6,71.2l1,0l0,1.5l4.2,0.1l0,1.2l-4.2-0.1l0,1.5l-1,0L10.6,71.2z"/>
	<path class="st1" d="M11.8,62.3l0.9,0.2l-0.4,2.1l1.2,0.2l0.3-1.6l0.9,0.2L14.4,65l1.2,0.2l0.4-2.1l0.9,0.2l-0.6,3.3l-5.1-0.9
		L11.8,62.3z"/>
	<path class="st1" d="M17.6,56.9l0.6-1.8l0.9,0.3l-1,3l-4.9-1.6l0.4-1.1L17.6,56.9z"/>
	<path class="st1" d="M20.6,49.2l0.8-1.7l0.9,0.4L21,50.7l-4.7-2.2l0.5-1.1L20.6,49.2z"/>
	<path class="st1" d="M25.5,42.4l-0.7,1l-4.4-2.8l0.7-1L25.5,42.4z"/>
	<path class="st1" d="M29.5,35.7c0.1-0.1,0.2-0.2,0.3-0.4c0.1-0.1,0.1-0.2,0.1-0.4l-0.6-0.5L29,34.8c0,0.1-0.1,0.1-0.2,0.1
		c-0.1,0-0.1,0-0.2-0.1l-0.5-0.4l1.2-1.4l1.7,1.4c0,0.2,0,0.3-0.1,0.5c0,0.2-0.1,0.3-0.2,0.5c-0.1,0.2-0.2,0.3-0.3,0.5
		c-0.1,0.2-0.2,0.3-0.4,0.5c-0.2,0.3-0.5,0.5-0.8,0.7c-0.3,0.2-0.6,0.3-1,0.3c-0.3,0-0.7,0-1-0.1c-0.3-0.1-0.6-0.3-0.9-0.5
		c-0.3-0.3-0.5-0.5-0.7-0.8c-0.2-0.3-0.3-0.6-0.3-1c0-0.3,0-0.7,0.1-1c0.1-0.3,0.3-0.7,0.6-1c0.1-0.2,0.3-0.3,0.4-0.4
		c0.2-0.1,0.3-0.2,0.5-0.3c0.2-0.1,0.3-0.1,0.5-0.2c0.2,0,0.3-0.1,0.4-0.1l0.2,0.6c0,0.1,0,0.1,0,0.2c0,0.1,0,0.1-0.1,0.1
		c0,0.1-0.1,0.1-0.2,0.1c-0.1,0-0.2,0.1-0.3,0.1c-0.1,0-0.2,0.1-0.2,0.1c-0.1,0.1-0.2,0.1-0.2,0.2c-0.1,0.1-0.1,0.1-0.2,0.2
		c-0.1,0.2-0.2,0.4-0.3,0.5c-0.1,0.2-0.1,0.4,0,0.6c0,0.2,0.1,0.4,0.2,0.6c0.1,0.2,0.3,0.4,0.5,0.5c0.2,0.2,0.4,0.3,0.6,0.4
		c0.2,0.1,0.4,0.1,0.6,0.1c0.2,0,0.4-0.1,0.6-0.1C29.2,36,29.4,35.8,29.5,35.7z"/>
	<path class="st1" d="M34.1,25l0.6,0.7l-1.6,1.4l0.8,0.9l1.2-1.1l0.6,0.7l-1.2,1.1l0.8,0.9l1.6-1.4l0.6,0.7L35,31.2l-3.4-3.9
		L34.1,25z"/>
	<path class="st1" d="M39.5,21.1C39.5,21.1,39.5,21.1,39.5,21.1c0.1,0,0.2,0,0.2,0c0,0,0.1,0,0.1,0l3.8,1.3
		c-0.1-0.1-0.1-0.2-0.2-0.2c-0.1-0.1-0.1-0.1-0.1-0.2l-1.5-2.3l0.9-0.6l2.8,4.4l-0.5,0.3c-0.1,0-0.2,0.1-0.2,0.1c-0.1,0-0.2,0-0.2,0
		l-3.7-1.3c0.1,0.1,0.1,0.1,0.2,0.2c0.1,0.1,0.1,0.1,0.1,0.2l1.5,2.4l-0.9,0.6l-2.8-4.4l0.5-0.3C39.4,21.1,39.4,21.1,39.5,21.1z"/>
	<path class="st1" d="M52.7,18.4C52.8,18.4,52.8,18.4,52.7,18.4c0.1,0,0.1,0,0.2,0l0.6,0.3c-0.1,0.3-0.2,0.6-0.5,0.9
		c-0.2,0.3-0.5,0.5-0.9,0.6c-0.4,0.2-0.7,0.2-1.1,0.2c-0.3,0-0.7-0.1-1-0.2c-0.3-0.1-0.6-0.3-0.8-0.6c-0.2-0.3-0.4-0.6-0.6-0.9
		c-0.2-0.4-0.2-0.7-0.2-1.1c0-0.4,0.1-0.7,0.2-1c0.1-0.3,0.3-0.6,0.6-0.8c0.3-0.3,0.6-0.5,0.9-0.6c0.2-0.1,0.4-0.1,0.5-0.2
		c0.2,0,0.3-0.1,0.5-0.1c0.2,0,0.3,0,0.5,0c0.1,0,0.3,0.1,0.4,0.1l-0.2,0.7c0,0,0,0.1,0,0.1c0,0-0.1,0.1-0.1,0.1c0,0-0.1,0-0.1,0
		c0,0-0.1,0-0.1,0c-0.1,0-0.1,0-0.2,0c-0.1,0-0.1,0-0.2,0c-0.1,0-0.2,0-0.3,0c-0.1,0-0.2,0.1-0.3,0.1c-0.2,0.1-0.4,0.2-0.5,0.3
		c-0.1,0.1-0.2,0.3-0.3,0.5c-0.1,0.2-0.1,0.4-0.1,0.6c0,0.2,0.1,0.4,0.2,0.7c0.1,0.2,0.2,0.4,0.4,0.6c0.1,0.2,0.3,0.3,0.5,0.4
		c0.2,0.1,0.3,0.1,0.5,0.1c0.2,0,0.4,0,0.5-0.1c0.1,0,0.2-0.1,0.3-0.1c0.1,0,0.1-0.1,0.2-0.2c0.1-0.1,0.1-0.1,0.2-0.2
		c0-0.1,0.1-0.1,0.1-0.2C52.6,18.5,52.6,18.5,52.7,18.4C52.7,18.4,52.7,18.4,52.7,18.4z"/>
	<path class="st1" d="M60.4,11.9l0.2,0.9l-2.1,0.6l0.3,1.2l1.6-0.4l0.2,0.9l-1.6,0.4l0.3,1.2l2.1-0.6l0.2,0.9l-3.2,0.9l-1.4-5
		L60.4,11.9z"/>
</g>
<polygon class="st1" points="49.2,121.5 22.6,75.4 49.2,29.3 102.5,29.3 129.1,75.4 102.5,121.5 "/>
<path class="st2" d="M116.3,75.4c0,22.3-18.1,40.5-40.5,40.5c-22.3,0-40.5-18.1-40.5-40.5C35.4,53.1,53.5,35,75.8,35
	C98.2,35,116.3,53.1,116.3,75.4z"/>
<circle class="st1" cx="75.9" cy="12.5" r="2.8"/>
<g>
	<path class="st1" d="M50.6,78.6c0.1,0,0.1,0,0.2,0c0.1,0,0.1,0.1,0.2,0.1l1.2,1.3c-0.5,0.7-1.2,1.2-2,1.6c-0.8,0.4-1.7,0.5-2.8,0.5
		c-1,0-1.9-0.2-2.7-0.5c-0.8-0.3-1.5-0.8-2-1.4c-0.6-0.6-1-1.3-1.3-2.1c-0.3-0.8-0.4-1.7-0.4-2.7c0-1,0.2-1.9,0.5-2.7
		c0.3-0.8,0.8-1.5,1.4-2.1c0.6-0.6,1.3-1.1,2.2-1.4c0.8-0.3,1.8-0.5,2.8-0.5c0.5,0,1,0,1.4,0.1c0.4,0.1,0.8,0.2,1.2,0.4
		c0.4,0.2,0.7,0.3,1.1,0.6c0.3,0.2,0.6,0.5,0.9,0.7l-1,1.4c-0.1,0.1-0.1,0.2-0.2,0.2c-0.1,0.1-0.2,0.1-0.4,0.1c-0.1,0-0.2,0-0.3-0.1
		c-0.1,0-0.2-0.1-0.3-0.2c-0.1-0.1-0.2-0.1-0.4-0.2c-0.1-0.1-0.3-0.2-0.5-0.2c-0.2-0.1-0.4-0.1-0.6-0.2c-0.2,0-0.5-0.1-0.8-0.1
		c-0.6,0-1.1,0.1-1.5,0.3c-0.5,0.2-0.9,0.5-1.2,0.8c-0.3,0.4-0.6,0.8-0.8,1.3c-0.2,0.5-0.3,1.1-0.3,1.7c0,0.7,0.1,1.3,0.3,1.8
		c0.2,0.5,0.4,1,0.8,1.3c0.3,0.4,0.7,0.6,1.1,0.8c0.4,0.2,0.9,0.3,1.4,0.3c0.3,0,0.5,0,0.8,0c0.2,0,0.4-0.1,0.6-0.1
		c0.2-0.1,0.4-0.2,0.6-0.3c0.2-0.1,0.4-0.2,0.5-0.4c0.1-0.1,0.2-0.1,0.2-0.1C50.4,78.6,50.5,78.6,50.6,78.6z"/>
	<path class="st1" d="M62.8,68.8v2.4h-5.4v3.1h4.1v2.3h-4.1v3.1h5.4V82h-8.5V68.8L62.8,68.8L62.8,68.8z"/>
	<path class="st1" d="M67.2,68.8c0.1,0,0.2,0,0.2,0.1c0.1,0,0.1,0.1,0.2,0.1c0.1,0.1,0.1,0.1,0.2,0.2l6.3,7.9c0-0.3,0-0.5-0.1-0.7
		c0-0.2,0-0.5,0-0.7v-7h2.7V82h-1.6c-0.2,0-0.4,0-0.6-0.1c-0.2-0.1-0.3-0.2-0.5-0.4l-6.2-7.9c0,0.2,0,0.5,0,0.7c0,0.2,0,0.4,0,0.6
		V82h-2.7V68.8h1.6C67,68.8,67.1,68.8,67.2,68.8z"/>
	<path class="st1" d="M91.7,75.4c0,1-0.2,1.8-0.5,2.6c-0.3,0.8-0.8,1.5-1.4,2.1c-0.6,0.6-1.3,1-2.2,1.4c-0.8,0.3-1.8,0.5-2.8,0.5
		h-5.1V68.8h5.1c1,0,2,0.2,2.8,0.5c0.8,0.3,1.6,0.8,2.2,1.4c0.6,0.6,1.1,1.3,1.4,2.1C91.5,73.6,91.7,74.5,91.7,75.4z M88.5,75.4
		c0-0.7-0.1-1.2-0.3-1.8c-0.2-0.5-0.4-1-0.7-1.3c-0.3-0.4-0.7-0.6-1.2-0.8c-0.5-0.2-1-0.3-1.6-0.3h-2v8.5h2c0.6,0,1.1-0.1,1.6-0.3
		c0.5-0.2,0.8-0.5,1.2-0.8c0.3-0.4,0.6-0.8,0.7-1.3C88.5,76.7,88.5,76.1,88.5,75.4z"/>
	<path class="st1" d="M105.6,82h-2.4c-0.3,0-0.5-0.1-0.7-0.2c-0.2-0.1-0.3-0.3-0.4-0.5l-0.8-2.3h-5l-0.8,2.3
		c-0.1,0.2-0.2,0.3-0.4,0.5c-0.2,0.1-0.4,0.2-0.6,0.2h-2.4l5.1-13.2h3.1L105.6,82z M97.1,77h3.6l-1.2-3.6c-0.1-0.2-0.2-0.5-0.3-0.8
		c-0.1-0.3-0.2-0.6-0.3-1c-0.1,0.4-0.2,0.7-0.3,1c-0.1,0.3-0.2,0.6-0.3,0.8L97.1,77z"/>
	<path class="st1" d="M110.8,82h-3.1V68.8h3.1V82z"/>
</g>
</svg>
