<?xml version="1.0" encoding="utf-8"?>
<!-- Generator: Adobe Illustrator 23.0.6, SVG Export Plug-In . SVG Version: 6.00 Build 0)  -->
<svg version="1.1"
	 id="svg4141" inkscape:export-filename="C:\Users\LuFi\Desktop\Logo CPA\cpz_4.png" inkscape:export-xdpi="90" inkscape:export-ydpi="90" inkscape:version="0.91 r13725" sodipodi:docname="CPZ3.svg" xmlns:cc="http://creativecommons.org/ns#" xmlns:dc="http://purl.org/dc/elements/1.1/" xmlns:inkscape="http://www.inkscape.org/namespaces/inkscape" xmlns:rdf="http://www.w3.org/1999/02/22-rdf-syntax-ns#" xmlns:sodipodi="http://sodipodi.sourceforge.net/DTD/sodipodi-0.dtd" xmlns:svg="http://www.w3.org/2000/svg"
	 xmlns="http://www.w3.org/2000/svg" xmlns:xlink="http://www.w3.org/1999/xlink" x="0px" y="0px" viewBox="0 0 352.1 148.6"
	 style="enable-background:new 0 0 352.1 148.6;" xml:space="preserve">
<style type="text/css">
	.st0{fill:#BA6205;}
	.st1{fill:#0F710F;}
	.st2{fill:#08456E;}
	.st3{font-family:'Calibri';}
	.st4{font-size:20px;}
</style>
<sodipodi:namedview  bordercolor="#666666" borderopacity="1.0" id="base" inkscape:current-layer="layer1" inkscape:cx="106.56242" inkscape:cy="516.84656" inkscape:document-units="px" inkscape:guide-bbox="true" inkscape:object-nodes="true" inkscape:object-paths="true" inkscape:pageopacity="0.0" inkscape:pageshadow="2" inkscape:snap-global="true" inkscape:snap-intersection-paths="true" inkscape:snap-smooth-nodes="true" inkscape:window-height="706" inkscape:window-maximized="1" inkscape:window-width="1366" inkscape:window-x="-8" inkscape:window-y="-8" inkscape:zoom="0.98994949" pagecolor="#ffffff" showgrid="true" showguides="true">
	<sodipodi:guide  id="guide4762" orientation="0,1" position="232.39565,695.28558"></sodipodi:guide>
	<sodipodi:guide  id="guide4764" orientation="0,1" position="322.22144,845.25693"></sodipodi:guide>
	<inkscape:grid  id="grid4766" type="xygrid"></inkscape:grid>
	<sodipodi:guide  id="guide4768" orientation="1,0" position="585.63622,812.85708"></sodipodi:guide>
	<sodipodi:guide  id="guide4770" orientation="1,0" position="449.05858,695.28562"></sodipodi:guide>
	<sodipodi:guide  id="guide4772" orientation="1,0" position="435.38647,797.14251"></sodipodi:guide>
	<sodipodi:guide  id="guide4774" orientation="1,0" position="297.64565,804.78559"></sodipodi:guide>
	<sodipodi:guide  id="guide4776" orientation="1,0" position="285,721.42859"></sodipodi:guide>
	<sodipodi:guide  id="guide4778" orientation="1,0" position="146.43909,773.62048"></sodipodi:guide>
</sodipodi:namedview>
<g id="layer1" inkscape:groupmode="layer" inkscape:label="Vrstva 1">
	<g id="g4750" transform="translate(62.164292,-262.554)" inkscape:export-xdpi="90" inkscape:export-ydpi="90">
		<path id="path4702" inkscape:connector-curvature="0" sodipodi:nodetypes="csssccccc" class="st0" d="M-60.6,358
			c-0.3-29-0.3-72.4,1.4-77.8c2.7-8.8,6.7-12,15.9-15.2c6.6-2.3,10.8-2.4,49.6-2.3l41.6,0.2v32l-72.3,0.2l-0.3,55.1L-60.6,358z"/>
		<path id="path4700-2-1" inkscape:connector-curvature="0" sodipodi:nodetypes="ccccsscscccccccsssssscccccc" class="st1" d="
			M59.6,349.7v-33h24h24v5.4c0,3,0.3,5.4,0.7,5.4c1.2,0,36.5-20.9,36.5-21.6c0-0.3-8.3-5.3-18.3-11l-18.3-10.4l-0.4,5.3l-0.4,5.3
			H83.5H59.6v-16.3v-16.3l47.7,0.4c44.9,0.3,48,0.5,52.5,2.8c3.4,1.7,5.6,4,7.5,7.8c2.6,5.2,2.7,6.3,2.4,31.4
			c-0.4,28.5-0.5,29.1-8.6,35.1c-3.1,2.3-5.2,2.5-33.8,2.8l-30.5,0.4v19.7v19.7H78.2H59.6L59.6,349.7z"/>
		<path id="path4700-2-5" inkscape:connector-curvature="0" sodipodi:nodetypes="cscsccccccccscccccc" class="st2" d="M180.7,350.8
			L212,324c17-14.6,30.8-27.4,31-27.9c0.2-0.5-13.4-1.2-30.3-1l-31.9,0.4c0-32.8,0,0,0-32.8l55.6,0.3l53.7-0.3l0,16.5l0,16.5
			L260,322.1c-16.5,14.5-30,26.8-30,27.3c0,0.5,13.4,0.9,29.9,0.9h30v16.2v16.2h-54.6h-54.6C180.9,372.1,180.5,361.4,180.7,350.8
			L180.7,350.8z"/>
		<path id="path4700-2" inkscape:connector-curvature="0" sodipodi:nodetypes="cssccccccssc" class="st0" d="M-37.1,381.5
			c-7.5-1.8-15.1-4.9-18.5-9.2c-5.6-7.1-6.2-13.2-5.9-52.3c0.4-36.4,0.5-37.5,3.6-43.4l33.4,18.5v27.6v28.2l72.3,0v31.8H7.4
			C-13.9,382.7-33.8,382.3-37.1,381.5L-37.1,381.5z"/>
	</g>
	<text transform="matrix(1 0 0 1 0 148.6043)" class="st3 st4">ČESKÁ ZEMĚDĚLSKÁ UNIVERZITA V PRAZE</text>
</g>
</svg>
