<?xml version="1.0" encoding="utf-8"?>
<!-- Generator: Adobe Illustrator 19.0.0, SVG Export Plug-In . SVG Version: 6.00 Build 0)  -->
<svg version="1.1" id="Vrstva_1" xmlns="http://www.w3.org/2000/svg" xmlns:xlink="http://www.w3.org/1999/xlink" x="0px" y="0px"
	 viewBox="73.759 49.186 590.241 387.217" enable-background="new 73.759 49.186 590.241 387.217" xml:space="preserve">
<g>
	<polygon fill="none" points="306.646,81.333 316.107,81.333 272.996,145.623 272.398,146.534 271.687,147.535 270.886,148.349 
		270.087,149.146 269.175,149.96 268.278,150.559 267.167,151.254 266.156,151.849 265.061,152.359 263.946,152.764 
		262.751,153.264 261.538,153.569 260.229,153.875 258.919,154.177 257.623,154.375 256.327,154.571 	"/>
	<polygon fill="none" points="289.464,81.333 299.111,81.333 264.346,131.163 263.947,130.461 263.548,129.758 263.148,129.059 
		262.849,128.249 262.652,127.447 262.354,126.644 262.354,125.739 262.237,124.83 262.237,124.326 262.354,123.827 
		262.354,123.326 262.438,122.82 262.55,122.225 262.751,121.721 262.849,121.12 263.049,120.614 263.347,120.012 263.548,119.411 
		263.849,118.704 264.149,118.104 264.56,117.5 264.96,116.795 265.347,116.094 265.874,115.49 	"/>
	<polygon fill="none" points="258.135,81.333 267.067,81.333 232.005,133.969 231.489,133.372 231.105,132.568 230.808,131.762 
		230.592,130.97 230.395,129.962 230.193,129.059 230.193,128.15 230.079,127.143 230.193,126.137 230.295,125.143 230.395,124.125 
		230.693,123.024 230.89,122.123 231.292,121.12 231.691,120.107 232.204,119.208 	"/>
	<polygon fill="none" points="274.307,81.333 283.051,81.333 260.128,115.49 259.631,115.996 258.919,116.495 258.332,116.991 
		257.723,117.5 257.024,117.897 256.324,118.305 255.613,118.604 254.912,118.91 254.102,119.208 253.405,119.411 252.608,119.702 
		251.793,119.812 250.984,120.012 250.183,120.107 249.272,120.211 248.488,120.211 	"/>
</g>
<path fill="#FFFFFF" d="M554.773,61.187c6.937-1.259,16.383-1.347,23.157,0.12c-3.397,7.279-6.896,14.461-10.317,21.72
	c3.97,0.303,7.681-0.083,11.52-0.24c0.688,6.891-1.173,12.979-3.12,18c3.542,13.765,7.552,30.07,6.723,47.642
	c-0.817,17.273-5.016,31.444-14.522,39.96c2.768,9.808,5.049,20.46,9.12,30c3.396,7.958,7.348,15.124,12.84,21.479
	c0.848,0.979,1.544,2.1,2.28,2.521c2.323,1.326,6.755,2.212,10.44,1.68c2.25-0.325,4.524-1.866,5.881-3.36
	c2.622-2.891,3.652-7.612,4.197-12c-0.597-0.151-1.184,0.667-1.92,1.08c-2.1,1.181-5.145,1.84-7.8,2.642
	c-3.616,1.09-6.541,3.022-9,4.92c-3.156-3.854-4.552-10.166-3.479-16.681c0.93-5.651,3.952-10.53,7.317-13.439
	c-5.872-7.126-9.914-19.928-6.478-32.399c2.573-9.345,7.59-16.543,13.318-23.041c0.575-0.651,2.498-2.395,2.521-2.64
	c0.023-0.265-1.787-2.532-2.16-3.12c-4.803-7.563-7.542-16.785-8.76-27.96c-8.921-0.964-15.746-4.354-16.44-12.84
	c-0.358-4.415,1.021-8.696,2.762-11.88c8.421-15.415,24.919-24.191,43.681-29.16c0.063,9.258,0.177,18.463,0.12,27.84
	c3.118-2.121,6.096-5.424,9.357-7.8c7.531,7.104,16.658,14.579,21.36,25.439c1.522,3.513,2.606,8.938,0.96,13.08
	c-1.95,4.906-7.466,8.594-14.398,7.199c-2.396,5.526-4.018,11.824-6.479,17.28c6.266,7.359,13.102,15.807,15.96,26.88
	c3.227,12.486,0.243,26.236-6.12,33.84c3.695,3.604,7.469,7.814,8.76,14.16c1.424,6.982-0.968,13.311-3.6,18.24
	c-6.065-2.453-8.439-8.601-15.72-9.84c-0.252,13.413-3.17,23.567-10.32,30.239c-6.729,6.277-19.936,8.252-32.76,6
	c0.135,5.904,2.704,9.375,5.64,12.479c4.582,1.256,9.934,1.646,15.24,2.16c5.357,0.52,10.89,0.379,15.12,2.159
	c8.205,3.459,10.458,12.318,10.199,24.361c-2.864-0.978-5.033-2.646-8.039-3.479c0.332,7.521,0.543,15.643,4.92,19.319
	c1.895,1.592,4.178,2.345,6.72,3c2.251,0.58,4.866,1.791,6.84,2.879c4.132,2.276,7.134,5.791,8.04,11.399
	c0.918,5.687,1.271,11.537,1.92,17.521c0.618,5.692,1.574,11.384,1.682,17.399c-1.89,0.089-2.738-1.514-3.722-2.76
	c-0.985-1.254-1.544-2.903-2.52-4.08c-1.467-1.769-4.772-3.58-7.44-4.08c-2.124-0.397-4.124,0.099-4.68,1.92
	c-0.419,1.375,0.342,3.683-0.24,5.882c-0.803,3.034-4.857,5.73-8.519,6.118c-2.772,0.296-5.803-0.118-8.763-0.118
	c-8.559,0-17.763-0.121-26.158-0.121c-2.865,0-5.564-0.278-8.159-0.72c-2.822-0.478-5.288-0.702-7.683,0.119
	c-3.252,1.117-5.21,3.502-7.078,6.119c-0.51,0.711-1.181,2.362-1.802,2.521c-0.931,0.236-2.417-0.742-2.88-1.08
	c-2.586-1.895-4.521-6.504-5.398-10.439c-0.327-1.471-0.312-3.104-0.722-4.439c-0.367-1.195-1.338-2.232-1.92-3.357
	c-0.592-1.146-1.146-2.33-1.438-3.723c-0.614-2.912,0.275-6.051,0.237-9.357c-0.019-1.621-0.546-3.207-0.6-4.92
	c-0.183-5.852,1.295-9.342,4.8-11.762c4.873-3.363,11.556-3.478,20.04-3.478c1.896,0,6.483,0.313,6.72-1.44
	c0.24-1.781-1.385-3.275-2.519-4.439c-1.004-1.027-2.134-2.525-3.84-3c-3.598-0.996-8.445,0.498-12.36-0.119
	c-2.011,2.697-2.905,5.662-5.398,7.68c-2.222,1.797-5.535,3.162-9.48,3.6c-2.72,0.305-5.854,0-8.88,0
	c-7.432,0-13.74-0.238-21.72-0.238c-1.439,0-3.69,0.264-4.32,0c-0.521-0.217,0.223-0.703,0.6-1.078
	c11.878-11.877,14.514-33.064,15.723-55.441c-7.314,4.18-15.914,8.477-21.961,14.522c-3.074,3.076-5.895,6.584-6.962,11.398
	c-1.128,5.102-0.146,11.027,1.44,15.961c2.762,8.59,7.266,18.373,6.36,30.119c-0.842,10.912-4.686,19.488-16.08,20.643
	c0.58-3.01,0.373-6.793-0.48-9.359c-0.699,0.275-1.009,1.057-1.438,1.559c-3.166,3.689-7.849,7.02-13.803,8.041
	c-4.063,0.699-7.83-0.016-10.56-1.438c-1.353-0.709-2.507-1.578-4.2-2.041c-1.627-0.445-3.643-0.904-5.64-0.602
	c-3.216,0.49-3.82,4.152-4.2,7.08c-7.063-1.16-6.458-12.627-4.08-18.6c-8.086-1.395-14.118,0.857-13.92,8.52
	c-5.052-0.725-7.51-5.021-8.16-10.318c-0.352-2.865,0.064-5.996-0.24-9.24c-0.132-1.418-0.896-2.934-1.197-4.439
	c-0.956-4.773,0.054-10.303,2.52-13.199c-0.038-10.797,4.73-16.789,15.72-16.561c1.814-1.484,0.095-6.373-0.478-9
	c-1.693-7.773-4.417-14.443-5.04-22.92c-0.46-6.254-0.38-12.387,0.84-17.281c2.424-9.723,9.689-15.318,18.84-18.479
	c2.504-0.864,5.197-0.932,8.28-1.08c14.55-0.698,29.494-1.432,44.28-2.159c-2.592-9.77-8.765-15.959-15.96-21.121
	c1.485-0.412,2.736-1.809,4.317-1.799c1.434,0.007,3.261,1.747,4.32,2.521c4.207,3.061,6.914,6.28,9.6,10.92
	c1.797,3.102,2.528,6.591,3.723,9.96c1.746,4.935,4.941,10.937,11.76,9.12c-3.301-9.175-8.82-16.886-15.36-22.919
	c-6.605-6.099-14.296-11.187-22.92-15.24c-19.873,5.95-39.71,11.608-59.64,17.641c-2.78,0.84-5.617,2.155-8.641,2.039
	c-2.379,16.119-7.908,29.356-19.079,37.08c-18.479,12.775-49.326,12.479-81.121,12.479c-49.4,0-100.232,0-149.639,0
	c-12.978,0-25.663,0.364-37.081-0.358c-11.624-0.74-21.47-3.662-29.64-7.802c-16.713-8.467-27.45-22.283-34.2-40.561
	c-6.678-18.081-9.026-41.907-8.039-66.358c0.949-23.525,9.689-40.412,22.92-51.841c-5.6,0-11.2,0-16.8,0c0-11.199,0-22.399,0-33.601
	c59.28,0,118.561,0,177.841,0c0.154,0.604-0.43,1.021-0.721,1.44c-7.988,11.538-15.85,23.056-23.88,34.8
	c-2.609,3.814-4.187,11.066-0.96,15.84c11.76-17.239,23.119-34.88,34.92-52.08c2.24,0,4.48,0,6.72,0
	c0.048,0.673-0.778,1.469-1.319,2.28c-7.871,11.804-16.03,24.186-23.881,36.119c5.565-0.205,9.895-2.146,12.36-5.879
	c7.083-10.726,14.731-21.906,21.84-32.521c2,0,4,0,6,0c0.153,0.504-0.381,0.883-0.6,1.2c-7.015,10.145-13.866,20.33-21.12,30.721
	c-2.342,3.354-5.74,7.447-4.8,12.959c0.296,1.738,1.131,2.976,1.92,4.44c11.626-16.334,22.929-32.991,34.56-49.32
	c2.32,0,4.643,0,6.961,0c0.229,0.673-0.727,1.471-1.199,2.16c-15.958,23.242-32.241,47.016-48.239,70.319
	c4.917-0.604,9.106-1.909,12.36-4.199c3.191-2.246,5.02-5.985,7.199-9.24c13.104-19.568,26.65-39.585,39.722-59.04
	c7.117,0,14.237,0,21.357,0c0,45.64,0,92.069,0,138c0,4.188-0.435,8.249,0.24,11.28c0.701,3.15,2.272,5.195,4.32,7.199
	c3.563,3.49,9.795,6.014,17.277,5.641c10.846-0.541,18.335-5.191,20.643-13.92c0.775-2.946,0.6-6.954,0.6-10.92
	c0.002-45.461-0.002-92.363,0-137.88c17.72,0,35.44,0,53.16,0c0,8.84,0,17.68,0,26.521c7.368,2.864,12.376,8.017,14.16,16.439
	c0.283,1.338-0.131,3.016,0.6,4.08c1.965,0.967,4.148,0.043,6.36,0c16.566-0.328,33.841,0.631,50.397,0.358
	c0.193-1.074-0.025-2.771-0.119-3.959c-14.899,2.213-29.453-1.459-30.118-15.24c-0.328-6.782,3.668-12.534,7.68-15.601
	c1.908-1.458,4.782-2.979,7.92-3.72c3.135-0.74,8.489-0.152,8.88,2.16c0.189,1.114-0.933,3.02-1.56,3.959
	c-0.825,1.236-1.408,2.354-1.92,3.479c-1.027,2.257-2.699,5.472-2.16,8.76c0.684,4.181,5.135,5.086,10.8,4.802
	c-0.028-3.142-0.232-6.646-0.479-10.08c-0.359-4.962-0.087-10.004-2.159-12.722c5.768-0.5,11.764-1.067,12.6-6
	c0.339-1.999-1.135-4.701-1.92-6.719c-2.102-5.402-4.616-11.402-6.48-16.56c6.574-1.287,16.048-1.199,22.08,0.479
	c3.531-3.287,7.112-10.118,12.36-11.52c1.176-0.314,2.593-0.007,3.96,0.479C548.524,52.875,551.539,57.14,554.773,61.187z
	 M536.533,57.466c-1.486,0.93-3.357,3.654-3.24,6.24c0.063,1.337,0.696,2.708,1.56,3.721c1.66,1.943,4.669,2.188,4.683,5.399
	c0.014,3.401-2.908,3.563-6.36,3.601c-3.88,0.04-12.096,1.095-12.357-2.28c-0.273-3.495,4.022-3.12,4.438-5.76
	c0.305-1.934-1.003-4.225-2.28-4.681c-1.132-0.403-3.029-0.146-4.68-0.24c-1.604-0.091-3.249-0.24-4.68,0
	c-0.824,3.329,0.602,6.511,1.68,9.24c1.113,2.819,2.155,5.755,3.72,8.04c14.603,0,29.2,0,43.803,0
	c1.524-4.188,3.306-7.259,5.039-11.399c0.513-1.225,1.458-3.271,0.961-4.32c-0.785-1.654-7.79-1.217-9.36-0.72
	c-1.569,0.497-3.749,1.92-3.72,3.72c0.052,3.248,5.682,3.431,4.92,6.96c-0.202,0.933-1.819,1.577-2.521,1.68
	c-1.408,0.207-3.648-0.12-5.88-0.12c-4.142,0-9.833,0.22-10.08-3.119c-0.207-2.798,2.461-2.933,4.44-4.2
	c1.703-1.09,2.932-3.156,2.64-5.641c-0.502-4.273-4.39-6.563-7.8-8.159C540.286,56.168,537.66,56.762,536.533,57.466z
	 M620.293,69.827c-6.961,2.154-13.335,5.414-19.44,9.601c-5.685,3.897-10.871,8.875-13.68,14.88c-1.207,2.583-2.263,6.681-1.2,9.84
	c2.041,6.064,7.258,8.274,15,8.398c1.854,12.746,4.731,24.47,11.88,31.92c2.669-2.133,4.391-5.211,5.883-8.52
	c-3.598-6.67-6.927-14.816-8.643-24.359c-1.508-8.387-2.632-23.223,2.28-28.439c0.604-0.644,1.307-1.117,2.521-1.32
	c-1.99,7.764-0.872,18.013,0.842,25.2c1.813-0.771,2.313-3.691,3.478-5.641c0.464-0.773,1.273-1.249,1.44-2.039
	c0.444-2.119,0-4.937,0-7.439c0-7.33,0.192-15.567-0.24-22.081C620.373,69.827,620.333,69.827,620.293,69.827z M520.213,85.066
	c-3.265,0-6.014-0.302-4.68,2.64c6.727,1.397,17.056-1.034,23.04,0.961c1.211,0.403,2.44,1.136,3.12,2.039
	c-1.826,2.375-7.801,0.604-11.28,1.32c-0.908,2.358-2.877,4.285-5.641,4.68c-4.65,0.664-8-1.791-9.479-4.68c-2.12,0-4.24,0-6.36,0
	c0.536,4.305,1.229,8.453,1.92,12.6c6.511-1.053,13.322,1.013,15.24,5.761c0.99,2.45,0.998,5.604-0.357,8.041
	c-2.264,4.057-7.685,3.305-13.92,3.479c0.201,1.996,0.246,4.152,0.237,6.359c5.523-0.505,10.824-0.017,14.4-2.28
	c2.691-1.704,4.649-4.916,4.56-9c-0.078-3.526-1.546-6.319-2.76-8.64c-0.636-1.216-1.755-2.294-1.92-3.841
	c1.787-0.985,3.857,0.429,5.4,0.841c2.135,4.082,3.815,9.043,2.76,14.399c-1.115,5.652-5.483,10.668-11.76,11.039
	c-6.789,0.402-16.189,0.261-23.04,0.721c-7.909,0.529-11.968,5.792-13.2,13.08c6.127-2.192,15.115-2.165,22.92-2.279
	c-0.146,0.694-0.64,1.04-0.84,1.68c-5.623,2.968-14.203,2.083-19.8,4.8c-0.809,0.394-1.751,1.052-2.4,1.562
	c-3.977,3.112-3.717,9.838-2.76,16.319c6.018-4.343,13.418-8.981,24.6-8.16c-0.392,2.322-2.897,2.425-4.56,2.881
	c-6.993,1.918-14.658,3.441-17.521,9.238c-2.966,6.008,1.567,12.289,4.08,16.08c1.787-3.686,5.232-5.851,8.642-8.039
	c2.799-1.797,6.055-3.7,9.601-3.84c-0.603,2.318-2.888,3.549-4.8,5.039c-3.272,2.547-7.722,5.014-9.722,8.52
	c-1.931,3.382-0.476,7.158,1.199,9.72c1.674,2.559,4.48,4.717,6.603,6c2.604-5.794,6.104-11.336,10.68-14.76c0,0.72,0,1.438,0,2.159
	c-1.971,4.43-5.079,7.722-6,13.199c6.026-1.293,11.547-3.093,17.28-4.68c2.913-5.646,3.81-13.312,10.438-15.24
	c-1.771,3.949-4.337,7.743-4.56,12.84c4.386-1.381,8.73-1.768,11.64-3.84c1.906-1.357,2.725-3.449,3.48-5.64
	c0.381-1.102,0.486-2.276,0.96-3.479c0.742-1.896,3.188-4.767,5.16-6.359c1.063-0.862,2.146-1.485,3.6-1.682
	c-1.665,2.205-3.162,4.942-4.08,8.041c-0.508,1.713-1.079,3.961,0,5.399c12.269-6.546,20.882-17.028,23.28-33.72
	c2.566-17.877-1.237-35.841-4.2-51c-1.976,0.784-4.292,2.274-7.68,1.8c-0.902-0.126-4.548-1.177-4.08-2.761
	c0.398-1.355,2.817-0.19,3.479-0.119c6.72,0.724,11.063-6.801,11.761-12.359c0.231-1.848,0.063-3.562-0.841-4.681
	c-2.188-0.192-5.012-0.27-7.8-0.24c-2.656,0.028-7.166,0.11-8.4,1.32c-0.853,1.896-0.021,4.997,0.12,6.601
	c-2.231,0.071-4.814-0.559-5.398-2.281c-0.938-2.76,1.422-5.382,2.52-6.479c0.403-0.403,1.088-0.698,0.96-1.2
	C543.914,85.159,531.22,85.066,520.213,85.066z M394.093,88.546c-0.494,42.875,0.657,84.871,0,127.92
	c-0.081,5.3,0.326,11.201-0.479,15.48c-0.903,4.797-2.659,7.825-5.28,10.68c-5.061,5.517-11.89,9.011-21.24,10.802
	c-14.692,2.814-29.666-1.091-37.68-8.28c-2.554-2.292-5.435-6.32-5.88-10.2c-0.309-2.672,0-5.689,0-8.52
	c0-43.025,0-86.064,0-128.761c-10.58,14.22-21.58,30.028-32.28,44.879c-0.747,1.039-1.864,2.215-2.04,3.121
	c-0.324,1.666,0,3.985,0,6.119c0,23.118,0,45.328,0,68.16c0,3.805-0.35,8.28,0.36,12c0.445,2.338,2.33,7.614,4.319,8.16
	c1.759,0.481,4.772,0,7.08,0c2.48,0,5.002,0.012,7.08,0c6.642-0.035,12.16-1.865,15.48-4.199c0,9.199,0,18.399,0,27.6
	c7.013,4.671,18.368,6.24,29.88,6.24c11.675,0,23.819-0.412,33.479-2.642c19.344-4.463,30.01-18.748,33.36-38.879
	c-0.972-1.225-2.497-1.266-3.72-2.641c-1.22-1.37-1.587-3.401-3.36-3.84c-2.947-0.729-6.075,2.688-7.438,4.319
	c-1.843,2.199-3.416,4.174-5.04,6.24c-2.946-4.113-5.06-10.151-4.2-17.04c0.131-1.059,0.627-2.243,0.6-3.359
	c-0.026-1.174-0.621-2.426-0.84-3.601c-0.605-3.253-0.64-6.854-0.12-10.2c0.284-1.826,1.307-3.476,1.44-5.16
	c0.006-0.074,0.008-0.165,0-0.24c-0.439-3.973-0.745-7.271,0.12-10.199c2.486-8.428,10.927-11.658,22.68-9.961
	c0-9.51-0.001-21.598,0-31.799c0-6.662,1.252-14.973-5.522-14.281c-3.362,0.347-5.805,3.22-8.277,4.08
	c-4.493-12.299,4.357-21.368,13.8-23.639c-0.08-6.201,0.159-12.721-0.12-18.721c-8.68,0-17.36,0-26.04,0
	C394.073,88.206,394.083,88.376,394.093,88.546z M628.573,95.866c-1.563,1.563-3.167,3.29-4.683,5.16
	c-2.997,3.705-6.061,8.227-6.478,13.32c-0.196,2.387,0.394,3.752,1.08,5.039c0.268,0.506,0.481,1.206,0.72,1.561
	c1.74,2.602,5.313,3.102,9.602,2.76c-0.461,6.166-3.765,11.123-6.722,15.602c-2.916,4.415-6.231,8.624-9.72,12.601
	c-3.423,3.901-6.823,8.039-9.36,12.959c-2.54,4.926-4.969,10.496-5.397,16.92c-0.549,8.176,2.101,14.705,5.64,19.2
	c2.063,2.62,4.658,4.688,7.44,6.601c-8.11,2.553-14.328,8.203-12.723,19.681c9.056,1.546,13.982-4.074,17.643-8.88
	c1.377,4.05,2.9,8.913,2.04,14.521c-1.331,8.646-7.392,15.42-16.563,15.84c-5.129,0.234-9.2-1.442-12.72-3.479
	c-3.418-1.979-6.468-4.751-8.88-7.439c-5.069-5.649-8.873-12.758-12.12-20.281c-3.333-7.723-5.777-16.278-7.68-24.84
	c-0.604-0.113-0.807-0.826-0.842-1.799c-18.037,6.121-36.312,12.008-54.118,18.359c20.097,9.067,36.681,22.675,41.64,47.04
	c1.311,6.439,1.92,13.25,1.92,20.278c0,6.918-1.021,13.82-2.04,20.16c-2.043,12.72-5.809,24.037-9.358,35.039
	c4.247,0.157,8.343,1.451,11.038-0.479c2.853-2.039,4.031-6.627,5.521-9.959c0.999-2.235,1.295-5.158,4.32-4.438
	c-2.164,4.795-4.534,9.385-5.882,15c3.575-0.306,6.659,0.601,9.602,0.358c6.177-0.506,7.695-7.155,10.438-11.399
	c5.399-0.026,9.83,0.121,15,0.121c1.57,0,3.466-0.295,5.04,0c1.548,0.289,3.322,2.024,4.44,3.237c1.162,1.265,2.651,3.228,3.24,4.44
	c1.455,3.002,1.505,7.537-1.802,8.279c-2.104,0.473-4.809,0.051-6.961,0c-2.327-0.056-4.582-0.199-6.96-0.119
	c-2.916,1.847-5.669,4.485-4.8,9.719c5.935-0.082,12.997,0.472,19.08,0.361c1.7-0.031,4.957-0.772,4.32,2.039
	c-7.814,0.332-15.99-0.011-23.88,0c-0.232,4.553,0.658,7.979,2.64,10.319c6.597-0.063,14.169,0.119,20.521,0.119
	c1.789,0,4.925,0.129,4.318,2.762c-8.16,0-16.318,0-24.478,0c1.5,7.242,6.311,12.117,14.88,12.48c7.809,0.33,16.72,0,24.479,0
	c6.238,0,14.53,1.429,16.44-2.76c0.559-3.759-1.206-8.593,0.96-10.438c0.813-0.695,2.036-0.986,3.12-1.08
	c4.668-0.408,9.684,1.258,13.317,2.278c1.056-9.065-2.508-14.61-8.88-16.439c-2.913-0.836-5.95-0.439-8.397-1.439
	c-1.824-0.746-2.7-1.825-2.04-3.84c4.842,2.155,10.978,3.02,17.398,3.601c-0.42-3.951-1.496-7.604-3.357-10.32
	c-1.807-2.633-5.783-4.043-9.12-4.68c-4.915-0.938-9.303-3.729-11.28-7.681c-2.022-4.047-1.926-8.608-2.64-13.08
	c-0.813-5.086-3.576-9.233-7.32-11.521c0.083-1.082-0.203-1.797-0.12-2.879c4.632,1.646,8.975,3.588,13.683,5.16
	c-0.246-4.752-1.721-8.139-3.961-10.682c-4.673-5.297-14.017-4.742-23.521-5.16c-6.745-0.297-13.184-0.291-16.32-4.078
	c-2.354-2.85-2.123-8.621-3.358-12.24c-2.631-7.697-6.674-14.855-11.642-19.92c-1.838-1.876-3.817-3.644-6-5.881
	c2.585-4.33,6.611,0.319,8.4,2.521c3.185,3.915,5.298,7.677,7.92,11.761c1.09,1.697,2.774,4.879,4.2,5.641
	c0.927,0.496,2.741,0.748,4.08,0.961c1.457,0.229,3.063,0.438,4.438,0.6c27.431,3.184,34.288-18.426,32.521-43.8
	c6.379,3.261,10.918,8.362,18.6,10.319c0.824-1.664,1.204-3.91,0.96-6.359c-0.348-3.491-2.862-7.33-5.159-9.721
	c-2.494-2.597-5.712-4.421-8.881-5.159c6.283-5.797,12.366-12.167,12.841-23.399c0.31-7.313-2.212-13.557-5.04-18.601
	c-2.938-5.241-6.588-9.757-10.438-13.32c-0.277-0.001-0.642-0.929-0.72-0.359c-2.605,3.596-4.947,7.452-7.563,11.041
	c0.312,0.69,1.22,1.088,0.841,1.799c3.281,3.126,6.03,6.721,8.159,11.881c2.897,7.013,2.689,17.045-2.64,21.119
	c-2.026,1.551-5.364,3.139-8.642,3c-4.846-0.203-9.479-4.517-10.681-8.399c-3.56-11.505,3.063-23.104,7.801-29.398
	c1.536-2.042,3.44-3.646,4.92-5.642c1.245-1.68,2.366-3.758,3.602-5.76c1.181-1.916,2.321-4.055,3.358-6.12
	c6.056-12.044,12.013-29.172,5.882-45.72c2.398-1.06,4.521,0.359,5.397,2.039c1.053,2.016,1.576,5.562,1.8,8.761
	c0.351,4.968-0.243,10.433-0.6,14.28c5.424-0.813,11.314-2.49,10.44-8.881c-0.1-0.709-0.336-1.548-0.603-2.279
	c-3.52-9.713-12.634-16.745-18.96-23.4C632.446,92.495,630.496,93.944,628.573,95.866z M520.573,117.347
	c-0.04-0.242,0.858-0.406,0.24-0.48c-1.851-1.477-3.923-3.236-6.843-3.479c-4.843-0.402-10.058,1.26-14.88,0.961
	c-3.975-0.247-8.446-1.563-9.72-4.439c-1.333-3.012-0.531-7.281,0.6-9.841c1.111-2.514,4.537-5.374,2.643-8.28
	c-0.662-0.397-1.29-0.217-1.683,0c-2.229,1.244-4.117,2.933-5.76,5.16c-1.37,1.861-2.583,4.164-3.12,6.24
	c-0.956,3.694,0.027,7.412,1.8,10.561c1.147,2.033,3.582,4.379,6.12,5.16c0.045,0.014,0.145,0.123,0.12,0.119
	c3.435,0.625,7.27,1.42,10.682,1.08c1.034-0.104,1.99-0.56,3-0.721c5.868-0.935,12.217,0.243,17.761-0.601
	C521.923,118.038,520.81,117.857,520.573,117.347z M95.533,92.146c0,3.96,0,7.92,0,11.88c15.04,0,30.08,0,45.12,0
	c-2.708,3.651-5.365,7.354-8.28,10.801c-15.381,0.153-25.7,5.739-32.16,15.359c-12.522,18.647-12.604,57.717-6.96,84.358
	c0.678,3.201,1.777,6.375,2.76,9.48c0.966,3.056,2.109,5.967,3.6,8.641c8.748,15.689,19.082,30.732,38.64,34.92
	c-2.994-10.692-2.51-26.278,2.28-34.199c-6.486-8.731-12.254-19.917-14.64-33.36c-2.44-13.748-1.824-30.249,0.48-44.279
	c1.145-6.972,2.521-13.354,4.68-19.319c6.258-17.296,17.229-31.617,39.36-32.761c0-3.961,0-7.92,0-11.881c-24.92,0-49.84,0-74.76,0
	C95.513,91.807,95.523,91.976,95.533,92.146z M186.373,92.146c0,3.56,0,7.12,0,10.681c13.8,0,27.6,0,41.4,0
	c2.193-3.063,4.626-6.637,6.72-9.721c0.254-0.374,0.706-0.883,0.6-1.32c-16.2,0-32.399,0-48.6,0
	C186.354,91.807,186.363,91.976,186.373,92.146z M510.973,111.227c1.285,0.176,2.249,0.019,3.603,0
	c0.307-1.452,0.443-3.074,0.72-4.561c-1.44,0-2.88,0-4.32,0C510.973,108.187,510.973,109.706,510.973,111.227z M516.133,107.146
	c-0.157,1.441-0.306,2.894-0.6,4.2c3.263,0.855,6.222,2.018,8.28,4.08C523.815,110.578,521.128,107.396,516.133,107.146z
	 M456.013,131.866c-3.607,0-9.677,0.775-11.64-0.72c-1.564-1.192-0.878-4.745-1.2-6.479c-0.543-2.92-2.261-5.764-4.438-7.561
	c-3.583-2.953-10.042-5.08-16.683-3.359c-0.063,4.265,0.212,8.188,0.12,12.479c1.894,2.46,4.949,6.852,9.96,7.318
	c0.904,0.085,1.784-0.145,2.643-0.118c2.537,0.074,5.012,1.063,5.397,2.88c0.396,1.851-0.784,3.701-2.16,3.479
	c-0.551-0.089-0.978-0.988-1.56-1.32c-0.979-0.558-1.855-0.604-3-0.959c0,8.801,0,17.601,0,26.4c3.975,0.332,8.146-0.174,12.358,0
	c-0.966-5.835-4.341-9.9-7.56-13.08c5.007-2.262,8.477,1.52,10.44,4.799c1.52,2.543,2.747,5.381,3.478,7.92
	c3.441-0.078,7.199,0.159,10.44-0.119c0.842-2.201-0.312-4.479-1.2-6c-1.526-2.604-4.107-4.881-6.48-6.359
	c1.107-1.439,3.763-1.6,5.4-0.84c4.072,1.886,7.34,8.423,9.12,12.96c1.902,0.056,3.737,0.18,5.76,0.12
	c0.599-12.087,3.635-22.294,8.521-29.881c0.272-0.424,0.801-0.896,0.721-1.439C475.476,132.083,465.102,131.866,456.013,131.866z
	 M410.413,123.587c1.742-1.021,4.611-1.91,7.32-1.2c-0.159-2.722,0.315-6.077-0.24-8.399
	C412.733,114.708,410.482,118.575,410.413,123.587z M185.413,114.347c-3.733,0-8.528-0.644-11.76,0
	c-10.146,2.015-17.883,7.028-22.68,15c-2.284,3.795-4.184,8.256-5.88,12.96c-4.815,13.353-8.104,32.075-5.52,49.318
	c1.592,10.623,5.442,20.129,10.92,26.881c21.659-32.299,43.456-64.969,65.04-97.199c1.436-2.145,2.899-4.307,4.08-6.602
	C208.074,114.741,196.748,114.347,185.413,114.347z M240.014,132.227c-3.611,4.935-4.883,14.839-1.801,22.08
	c5.148-1.278,9.492-2.777,12.721-5.762c5.215-4.817,6.139-13.028,6-23.278c-0.08,0-0.16,0-0.24,0
	C249.688,125.667,243.322,127.702,240.014,132.227z M623.293,130.066c0.188-1.332,0.438-2.603,0.48-4.08
	c-1.281,0.079-2.882-0.159-3.96,0.12C621.056,127.344,622.076,128.804,623.293,130.066z M223.333,169.307
	c1.695-2.354,3.684-4.719,4.8-7.44c3.893-9.493,0.636-22.473-3-30c-0.007-0.072-0.018-0.142-0.119-0.119
	c-2.29,3.392-4.889,7.289-7.561,11.279c-2.657,3.969-4.932,8.103-4.801,13.561c0.182,7.539,3.398,13.054,5.521,19.681
	C220.033,174.265,221.585,171.732,223.333,169.307z M234.253,166.187c-1.039,1.132-1.907,2.664-2.88,3.96
	c-2.456,3.274-4.965,6.592-7.32,9.72c-0.484,0.646-1.176,1.386-1.08,1.92c12.947,1.359,24.668-0.147,30.36-7.68
	c0.886-1.172,1.426-2.577,2.28-3.84c2.068-3.061,4.309-6.252,6.359-9.24c0.372-0.543,1.008-0.979,0.961-1.68
	C250.591,158.078,239.99,159.937,234.253,166.187z M199.934,169.066c-1.926,2.874-4.235,5.941-5.4,8.88
	c-3.748,9.445,1.077,19.332,4.68,27c3.048-4.473,6.333-8.706,9.24-13.32c3.918-9.67,0.852-23.139-2.4-31.318
	c-0.006-0.073-0.018-0.143-0.119-0.12C204.155,162.802,202.074,165.87,199.934,169.066z M433.453,168.227
	c0.516,3.044,1.055,6.064,1.438,9.238c3.441,1.641,6.142,4.021,8.643,6.602c10.761-3.839,21.775-7.423,32.76-11.04
	c-0.129-1.711-0.322-3.357-0.6-4.92C461.48,168.015,447.635,168.288,433.453,168.227z M262.333,186.587
	c-11.484,17.222-23.409,34.406-34.92,51.359c-0.491,0.723-1.404,1.455-1.2,2.16c17.16,0,34.32,0,51.48,0
	c-0.717-1.332-2.226-2.23-2.641-4.08c-0.502-2.238-0.24-5.271-0.24-8.16c0-14.256,0-28.41,0-42.359c0-5.969,0.381-11.855,0-17.041
	c-0.006-0.094-0.115-0.138-0.239-0.118C270.604,174.45,266.424,180.452,262.333,186.587z M631.333,186.347
	c-0.628-7.201-5.871-13.65-9-18c-2.743,3.719-7.606,10.282-8.16,16.08c-0.313,3.293,0.424,5.894,1.44,7.68
	c1.672,2.938,4.823,4.838,8.04,6.479C628.095,196.362,631.934,193.229,631.333,186.347z M476.173,176.387
	c-11.263,3.456-22.971,7.509-34.438,11.158c-2.491-2.102-5.16-4.778-8.643-6.719c-3.159-1.762-7.191-3.93-11.64-3.721
	c-5.114,0.24-8.273,3.922-7.44,10.32c8.682,0.079,14.639,2.883,20.04,6.239c0,1.641,0,3.279,0,4.92
	c-5.128-3.633-10.479-7.042-19.56-6.721c-0.101,3.523-0.32,7.713,0.12,11.04c8.523-1.084,15.129,1.61,19.8,5.159
	c0.211,1.39,0.089,3.111,0.12,4.681c-4.816-3.01-12.162-6.863-20.04-4.801c-0.111,3.398,0.797,6.851,2.397,9.479
	c2.167,3.557,5.357,6.634,9.723,7.199c2.629,0.342,5.405-0.567,7.317-1.318c0.293,1.427,0.441,2.999,0.603,4.56
	c5.311-1.449,10.244-3.275,15.478-4.8c-2.539-3.54-6.485-5.673-10.317-7.92c0.794-0.659,1.378-1.063,2.397-1.08
	c4.141-0.067,7.38,5.616,11.76,6.72c2.563,0.646,4.438-0.514,6.48-1.199c1.455-0.487,2.802-1.043,4.32-1.439
	c-2.625-3.495-6.511-5.731-10.08-8.28c1.617-0.902,3.721-1.035,5.64-0.24c0.97,0.402,2.042,1.804,3,2.762
	c1.846,1.845,4.043,4.192,7.32,4.199c1.768,0.004,3.673-0.987,5.28-1.561c1.689-0.603,3.165-1.277,5.037-1.8
	c-3.252-3.507-7.15-6.367-11.64-8.641c1.072-1.691,4.345-1.614,6.84-1.199c3.119,2.063,5.536,6.772,10.2,7.439
	c3.542,0.506,5.681-0.912,8.16-2.041C486.858,199.461,481.644,187.796,476.173,176.387z M401.773,190.427
	c1.834-1.646,4.32-2.638,7.438-3c-0.349-2.486,0.069-4.677,0.48-6.601c0.242-1.146,0.727-2.229,0.6-3.121
	C404.164,178.965,400.227,183.136,401.773,190.427z M231.133,187.786c-8.307,0.387-13.188,3.256-17.16,8.28
	c-3.241,4.101-6.595,8.425-9.72,12.479c-0.39,0.508-1.136,0.94-1.08,1.682c9.872,1.947,21.829-0.539,27.36-4.8
	c3.396-2.617,5.406-6.599,7.92-10.08c1.283-1.779,2.656-3.408,3.84-5.04c0.34-0.469,0.875-1.049,0.84-1.682
	C239.104,188.099,235.328,187.591,231.133,187.786z M191.053,206.387c-0.441-6.469-2.518-11.562-4.56-16.682
	c-0.12,0.001-0.144-0.097-0.24-0.119c-0.007-0.073-0.019-0.143-0.12-0.121c-1.661,2.666-3.811,5.515-5.88,8.521
	c-1.872,2.72-4.349,5.679-5.521,8.521c-3.862,9.375-0.502,21.607,3.36,29.279C183.099,227.174,192.033,220.765,191.053,206.387z
	 M401.173,207.347c2.42-1.15,4.282-3.467,8.04-2.882c-0.783-3.577-0.492-8.336,0-12C402.003,192.71,399.209,199.841,401.173,207.347
	z M401.533,222.227c2.65-2.027,5.202-4.157,9.12-4.92c-0.819-2.063-1.373-4.389-1.32-7.32
	C402.31,208.546,399.762,215.604,401.533,222.227z M210.373,216.347c-6.097,0.42-10.812,2.85-14.04,6.479
	c-3.947,4.439-7.471,9.709-11.04,14.279c-0.529,0.677-1.423,1.283-1.32,1.92c11.814,2.098,23.183-0.291,28.92-6.72
	c2.012-2.253,3.445-5.117,5.16-7.561c1.814-2.585,3.709-4.953,5.28-7.561C219.063,216.751,215.166,216.017,210.373,216.347z
	 M168.853,248.507c2.936-8.871,1.169-20.325-3-27c-0.007-0.073-0.018-0.143-0.12-0.119c-1.821,2.674-3.913,5.605-6.12,8.76
	c-3.841,5.487-8.576,12.195-9.24,20.521c-0.682,8.548,1.959,13.625,5.64,18.119C159.822,262.18,166.18,256.583,168.853,248.507z
	 M488.413,245.146c-5.733,0.271-11.045,0.319-15.72,1.318c-11.518,2.464-20.878,10.696-17.04,25.44
	c3.959-3.239,8.004-8.075,11.88-11.399c0.936,3.063-1.267,4.373-2.76,6c-0.985,1.072-1.91,2.188-2.763,3.119
	c-1.957,2.144-4.494,4.119-5.52,6.36c-1.602,3.5-0.278,8.652,1.68,11.279c3.188-3.775,7.673-6.888,11.04-10.08
	c0.842,3.987-1.967,5.517-3.96,7.08c-2.889,2.271-6.409,5.771-6.72,10.319c-0.306,4.44,2.051,6.795,3.6,9.601
	c3.076-4.765,7.239-8.44,10.2-13.32c0.915,2.162,0.096,4.664-0.84,6.121c-1.395,2.168-3.672,4.186-5.521,6.359
	c-1.938,2.28-3.573,4.594-4.56,7.319c5.07,1.071,11.591,0.498,15.24-1.08c-0.329,1.707-1.268,3.612-2.88,4.199
	c-1.516,0.551-4.541,0.189-6.723,0.12c-2.105-0.065-4.235-0.329-6-0.12c-5.385,0.639-5.59,5.202-5.88,11.28
	c7.282-0.479,15.487-0.461,22.92-0.121c-3.147,6.545-15.625,1.384-22.8,3c-0.521,3.894,0.413,7.339,1.68,9.841
	c8.479-0.285,17.07-0.236,25.563,0c-1.724,5.567-8.493,3.389-14.643,3c-3.613-0.229-7.159-0.193-10.438,0.12
	c0.18,4.818,1.804,8.195,3.6,11.398c7.91,0.858,17.648,0.381,25.563,0.239c-0.746,3.814-7.371,1.75-11.4,2.281
	c0.496,7.889,3.805,15.868,12.603,13.92c4.111-0.912,7.398-3.373,10.197-6.24c2.879-2.948,5.398-6.399,5.522-11.041
	c0.579-0.42,1.231-0.766,1.68-1.317c2.319,3.722,2.942,9.138,5.28,12.84c5.038-9.332,3.561-23.557,0.84-33.84
	c-1.452-5.487-3.472-10.129-3.96-15.961c-0.502-6.004,0.318-11.549,3.12-16.319c0.819-1.396,2.092-2.843,3.24-4.199
	c4.173-4.937,10.633-7.883,16.197-11.28c4.105-2.505,8.153-5.158,12.36-7.681c0.436-6.662-0.23-13.188-1.2-18.84
	c-10.314,0.848-16.942-2.953-18.478-11.279C512.225,244.09,500.196,244.586,488.413,245.146z M178.213,251.146
	c-3.262,2.758-5.683,6.812-8.4,10.317c-1.38,1.781-2.739,3.524-4.08,5.281c-1.387,1.813-2.744,3.666-3.72,5.399
	c12.707,1.459,22.635-2.478,28.799-8.642c4.758-4.758,7.799-11.106,12-16.561C193.085,245.335,183.688,246.515,178.213,251.146z
	 M206.533,268.546c-0.162,0.231-0.795,0.539-0.48,0.961c34.721,0,69.44,0,104.16,0c0-6.159,0-12.319,0-18.48
	c-30.68,0-61.359,0-92.04,0C214.478,256.815,210.396,263.011,206.533,268.546z M442.333,326.507c3.1-0.42,5.546-1.493,9.24-1.319
	c-0.321-3.629,0.436-7.146,1.92-9.358C445.74,313.107,442.254,319.581,442.333,326.507z M441.133,330.706
	c-2.332,3.26-1.262,8.985-0.12,13.08c3.059-1.664,6.746-3.734,11.763-3.841c-0.83-3.305-1.217-7.508-0.843-11.641
	C447.575,327.614,443.14,327.9,441.133,330.706z M566.293,352.188c1.489-0.791,2.529-1.588,4.68-1.801
	c1.584-0.156,3.627,0.139,4.2-0.842c0.284-0.482,0.217-1.695,0.36-2.639c0.396-2.613,0.711-5.609,1.56-7.441
	c0.335-0.723,1.533-1.473,1.32-2.038C569.275,335.857,562.139,343.609,566.293,352.188z M442.453,346.786
	c-2.543,3.358-0.288,8.022,1.32,11.159c2.474-3.485,5.854-6.065,12.117-5.76c-0.505-1.459-0.934-3.084-1.317-4.801
	c-0.378-1.675-0.373-3.554-1.08-5.039C448.979,343.175,444.6,343.95,442.453,346.786z M574.933,351.348
	c-4.519,0.439-7.512,2.406-9.84,5.038c-0.418,5.22,1.667,7.935,3.36,11.041c2.387-2.214,4.659-4.54,8.398-5.399
	C576.274,358.404,575.534,354.943,574.933,351.348z M461.773,360.706c-0.27,2.183,0.178,4.614,0.479,6.84
	c2.512-1.532,6.521-4.241,11.16-2.879c-1.051-2.524-1.925-6.127-1.08-9.479C466.809,354.241,462.363,355.895,461.773,360.706z
	 M577.213,363.706c-2.417,0.815-6.796,4.617-7.08,7.201c-0.261,2.364,1.02,5.338,2.16,7.198c0.555,0.901,1.433,1.638,2.28,2.16
	c2.213-2.388,4.623-4.576,7.08-6.722C579.99,370.45,578.979,366.698,577.213,363.706z"/>
<path fill="none" d="M541.453,55.427c3.41,1.596,7.298,3.886,7.8,8.159c0.292,2.484-0.936,4.551-2.64,5.641
	c-1.979,1.268-4.648,1.402-4.44,4.2c0.247,3.339,5.938,3.119,10.08,3.119c2.229,0,4.472,0.327,5.88,0.12
	c0.701-0.103,2.318-0.747,2.521-1.68c0.762-3.529-4.868-3.712-4.92-6.96c-0.029-1.8,2.148-3.223,3.72-3.72
	c1.571-0.497,8.575-0.936,9.359,0.72c0.496,1.049-0.447,3.096-0.962,4.32c-1.731,4.141-3.513,7.211-5.038,11.399
	c-14.602,0-29.199,0-43.802,0c-1.563-2.285-2.605-5.221-3.72-8.04c-1.078-2.729-2.504-5.912-1.68-9.24
	c1.431-0.24,3.071-0.091,4.68,0c1.648,0.094,3.548-0.163,4.68,0.24c1.277,0.456,2.584,2.747,2.28,4.681
	c-0.415,2.641-4.713,2.266-4.439,5.76c0.265,3.375,8.479,2.32,12.358,2.28c3.452-0.036,6.374-0.199,6.36-3.601
	c-0.016-3.212-3.021-3.457-4.683-5.399c-0.861-1.012-1.499-2.384-1.56-3.721c-0.117-2.586,1.754-5.311,3.24-6.24
	C537.66,56.762,540.286,56.168,541.453,55.427z"/>
<path fill="none" d="M620.413,69.827c0.435,6.513,0.24,14.75,0.24,22.081c0,2.504,0.444,5.32,0,7.439
	c-0.167,0.79-0.978,1.266-1.44,2.039c-1.165,1.948-1.666,4.868-3.479,5.641c-1.714-7.188-2.832-17.437-0.843-25.2
	c-1.213,0.203-1.912,0.677-2.52,1.32c-4.912,5.218-3.788,20.054-2.28,28.439c1.716,9.543,5.045,17.689,8.643,24.359
	c-1.492,3.309-3.216,6.387-5.883,8.52c-7.146-7.45-10.023-19.174-11.88-31.92c-7.744-0.124-12.959-2.334-15-8.398
	c-1.061-3.159-0.007-7.257,1.2-9.84c2.808-6.005,7.995-10.982,13.68-14.88c6.105-4.187,12.48-7.446,19.44-9.601
	C620.333,69.827,620.373,69.827,620.413,69.827z"/>
<path fill="none" d="M554.053,84.946c0.128,0.502-0.557,0.797-0.96,1.2c-1.098,1.098-3.456,3.72-2.52,6.479
	c0.584,1.724,3.166,2.354,5.398,2.281c-0.143-1.604-0.973-4.704-0.12-6.601c1.234-1.21,5.744-1.292,8.4-1.32
	c2.788-0.028,5.611,0.048,7.8,0.24c0.904,1.118,1.072,2.833,0.84,4.681c-0.696,5.56-5.041,13.083-11.76,12.359
	c-0.66-0.071-3.079-1.236-3.479,0.119c-0.47,1.584,3.178,2.635,4.08,2.761c3.388,0.476,5.702-1.016,7.68-1.8
	c2.963,15.159,6.769,33.123,4.2,51c-2.398,16.69-11.015,27.174-23.28,33.72c-1.079-1.438-0.508-3.688,0-5.399
	c0.918-3.099,2.415-5.836,4.08-8.041c-1.453,0.195-2.534,0.818-3.601,1.682c-1.972,1.594-4.419,4.464-5.159,6.359
	c-0.474,1.203-0.579,2.379-0.96,3.479c-0.76,2.189-1.574,4.281-3.48,5.64c-2.908,2.072-7.254,2.459-11.64,3.84
	c0.223-5.097,2.789-8.891,4.56-12.84c-6.63,1.93-7.524,9.594-10.438,15.24c-5.733,1.587-11.254,3.387-17.28,4.68
	c0.921-5.479,4.029-8.771,6-13.199c0-0.721,0-1.439,0-2.159c-4.576,3.424-8.074,8.966-10.68,14.76c-2.123-1.283-4.929-3.441-6.603-6
	c-1.675-2.562-3.13-6.338-1.2-9.72c2.001-3.508,6.45-5.975,9.723-8.521c1.911-1.49,4.196-2.721,4.8-5.039
	c-3.546,0.14-6.802,2.043-9.602,3.84c-3.407,2.188-6.853,4.354-8.641,8.039c-2.513-3.791-7.046-10.072-4.08-16.08
	c2.862-5.797,10.527-7.32,17.521-9.238c1.659-0.456,4.168-0.559,4.56-2.881c-11.182-0.821-18.582,3.817-24.6,8.16
	c-0.957-6.481-1.218-13.207,2.76-16.319c0.648-0.51,1.594-1.168,2.4-1.562c5.598-2.717,14.178-1.832,19.801-4.8
	c0.199-0.64,0.693-0.984,0.84-1.68c-7.806,0.114-16.793,0.087-22.92,2.279c1.232-7.288,5.291-12.551,13.2-13.08
	c6.853-0.46,16.251-0.317,23.039-0.721c6.275-0.371,10.646-5.387,11.761-11.039c1.057-5.356-0.625-10.317-2.761-14.399
	c-1.544-0.412-3.612-1.826-5.399-0.841c0.165,1.546,1.284,2.625,1.92,3.841c1.214,2.319,2.682,5.112,2.76,8.64
	c0.092,4.084-1.867,7.296-4.56,9c-3.576,2.265-8.877,1.775-14.4,2.28c0.008-2.207-0.036-4.363-0.239-6.359
	c6.237-0.176,11.658,0.576,13.921-3.48c1.356-2.436,1.351-5.59,0.358-8.04c-1.918-4.748-8.73-6.813-15.24-5.761
	c-0.691-4.146-1.384-8.295-1.92-12.6c2.12,0,4.24,0,6.36,0c1.479,2.889,4.829,5.344,9.479,4.68c2.764-0.395,4.73-2.321,5.641-4.68
	c3.479-0.718,9.454,1.055,11.28-1.32c-0.68-0.904-1.909-1.636-3.12-2.039c-5.984-1.995-16.313,0.438-23.04-0.961
	c-1.334-2.94,1.415-2.64,4.68-2.64C531.22,85.066,543.914,85.159,554.053,84.946z"/>
<path fill="none" d="M394.213,88.187c8.68,0,17.36,0,26.04,0c0.279,6,0.04,12.52,0.12,18.721c-9.44,2.271-18.293,11.34-13.8,23.639
	c2.475-0.86,4.915-3.733,8.277-4.08c6.772-0.69,5.522,7.619,5.522,14.281c-0.001,10.201,0,22.289,0,31.799
	c-11.753-1.697-20.191,1.533-22.68,9.961c-0.865,2.929-0.56,6.228-0.12,10.199c0.008,0.075,0.006,0.166,0,0.24
	c-0.136,1.686-1.156,3.334-1.44,5.16c-0.52,3.348-0.484,6.947,0.12,10.2c0.219,1.175,0.813,2.427,0.84,3.601
	c0.027,1.116-0.469,2.302-0.6,3.359c-0.857,6.889,1.254,12.927,4.2,17.04c1.624-2.066,3.197-4.041,5.04-6.24
	c1.362-1.631,4.49-5.049,7.438-4.319c1.773,0.438,2.145,2.471,3.36,3.84c1.223,1.375,2.748,1.416,3.72,2.641
	c-3.353,20.132-14.019,34.418-33.36,38.88c-9.658,2.228-21.805,2.641-33.478,2.641c-11.512,0-22.867-1.568-29.88-6.239
	c0-9.2,0-18.4,0-27.601c-3.32,2.334-8.841,4.164-15.48,4.199c-2.078,0.012-4.6,0-7.08,0c-2.308,0-5.321,0.481-7.08,0
	c-1.989-0.546-3.874-5.822-4.319-8.16c-0.711-3.72-0.36-8.195-0.36-12c0-22.832,0-45.042,0-68.16c0-2.134-0.324-4.453,0-6.119
	c0.176-0.906,1.293-2.082,2.04-3.121c10.7-14.851,21.7-30.659,32.28-44.879c0,42.695,0,85.734,0,128.761c0,2.829-0.308,5.848,0,8.52
	c0.445,3.88,3.326,7.908,5.88,10.2c8.014,7.189,22.985,11.095,37.68,8.281c9.353-1.791,16.18-5.286,21.24-10.803
	c2.621-2.854,4.377-5.883,5.28-10.68c0.806-4.279,0.396-10.182,0.478-15.479c0.657-43.05-0.494-85.046,0-127.921
	C394.083,88.376,394.073,88.206,394.213,88.187z"/>
<path fill="none" d="M634.213,90.946c6.326,6.655,15.439,13.688,18.96,23.4c0.267,0.731,0.503,1.569,0.602,2.278
	c0.874,6.392-5.019,8.068-10.44,8.881c0.354-3.848,0.948-9.312,0.6-14.279c-0.224-3.199-0.746-6.745-1.8-8.762
	c-0.876-1.679-2.999-3.098-5.397-2.038c6.131,16.548,0.174,33.676-5.881,45.72c-1.038,2.064-2.181,4.204-3.359,6.12
	c-1.233,2.002-2.354,4.08-3.602,5.76c-1.479,1.994-3.384,3.599-4.921,5.641c-4.736,6.295-11.357,17.896-7.8,29.399
	c1.202,3.884,5.835,8.196,10.682,8.398c3.274,0.14,6.612-1.448,8.641-3c5.326-4.074,5.534-14.105,2.64-21.118
	c-2.129-5.16-4.878-8.756-8.158-11.882c0.379-0.711-0.53-1.106-0.842-1.799c2.613-3.588,4.955-7.444,7.563-11.041
	c0.078-0.567,0.44,0.359,0.72,0.36c3.853,3.563,7.501,8.079,10.44,13.32c2.828,5.044,5.349,11.285,5.04,18.601
	c-0.475,11.232-6.559,17.603-12.842,23.399c3.169,0.737,6.388,2.563,8.881,5.158c2.298,2.392,4.813,6.229,5.159,9.722
	c0.244,2.448-0.136,4.694-0.96,6.358c-7.682-1.957-12.221-7.059-18.6-10.318c1.768,25.374-5.092,46.98-32.522,43.799
	c-1.376-0.16-2.98-0.369-4.438-0.6c-1.339-0.213-3.153-0.465-4.08-0.961c-1.426-0.76-3.11-3.94-4.2-5.64
	c-2.622-4.084-4.734-7.845-7.92-11.76c-1.789-2.2-5.814-6.852-8.4-2.521c2.184,2.238,4.162,4.005,6,5.881
	c4.969,5.066,9.012,12.225,11.643,19.921c1.235,3.618,1.004,9.393,3.357,12.239c3.139,3.789,9.575,3.783,16.32,4.08
	c9.505,0.418,18.85-0.137,23.521,5.16c2.24,2.543,3.715,5.928,3.961,10.68c-4.708-1.57-9.05-3.512-13.683-5.16
	c-0.083,1.082,0.203,1.799,0.12,2.881c3.744,2.285,6.508,6.436,7.32,11.521c0.714,4.471,0.615,9.032,2.64,13.079
	c1.979,3.951,6.365,6.742,11.28,7.681c3.337,0.638,7.315,2.047,9.12,4.681c1.861,2.717,2.938,6.368,3.358,10.319
	c-6.423-0.578-12.559-1.442-17.398-3.601c-0.66,2.015,0.216,3.095,2.04,3.841c2.448,1,5.486,0.604,8.398,1.438
	c6.372,1.827,9.935,7.372,8.882,16.438c-3.638-1.02-8.651-2.688-13.319-2.279c-1.084,0.095-2.307,0.386-3.12,1.08
	c-2.166,1.849-0.401,6.683-0.96,10.439c-1.91,4.189-10.202,2.761-16.44,2.761c-7.76,0-16.671,0.329-24.479,0
	c-8.568-0.361-13.38-5.236-14.88-12.479c8.16,0,16.317,0,24.479,0c0.604-2.634-2.529-2.763-4.317-2.763
	c-6.354,0-13.926-0.183-20.522-0.119c-1.978-2.342-2.872-5.769-2.64-10.319c7.89-0.01,16.064,0.332,23.88,0
	c0.637-2.813-2.62-2.069-4.32-2.039c-6.083,0.108-13.146-0.442-19.08-0.36c-0.869-5.231,1.884-7.873,4.8-9.72
	c2.38-0.08,4.633,0.063,6.961,0.119c2.151,0.051,4.854,0.474,6.961,0c3.306-0.742,3.256-5.276,1.801-8.278
	c-0.589-1.216-2.078-3.179-3.24-4.44c-1.118-1.214-2.894-2.949-4.44-3.238c-1.575-0.295-3.471,0-5.039,0
	c-5.17,0-9.603-0.147-15-0.121c-2.744,4.244-4.265,10.896-10.44,11.399c-2.94,0.24-6.024-0.663-9.601-0.358
	c1.347-5.614,3.717-10.205,5.881-15c-3.025-0.719-3.321,2.203-4.32,4.438c-1.489,3.332-2.67,7.92-5.521,9.959
	c-2.697,1.933-6.791,0.64-11.04,0.479c3.552-11.002,7.315-22.319,9.358-35.039c1.021-6.34,2.04-13.241,2.04-20.159
	c0-7.029-0.608-13.841-1.92-20.28c-4.959-24.364-21.543-37.972-41.64-47.04c17.809-6.352,36.081-12.237,54.119-18.358
	c0.034,0.973,0.237,1.685,0.841,1.799c1.9,8.562,4.347,17.117,7.68,24.84c3.247,7.523,7.051,14.631,12.12,20.281
	c2.412,2.688,5.462,5.461,8.88,7.438c3.521,2.037,7.591,3.716,12.72,3.48c9.171-0.42,15.229-7.193,16.563-15.84
	c0.861-5.607-0.663-10.471-2.04-14.521c-3.658,4.807-8.587,10.427-17.643,8.88c-1.605-11.477,4.61-17.128,12.723-19.68
	c-2.782-1.913-5.378-3.979-7.44-6.601c-3.539-4.495-6.188-11.024-5.64-19.2c0.431-6.424,2.857-11.994,5.398-16.92
	c2.537-4.92,5.938-9.059,9.36-12.959c3.487-3.978,6.804-8.187,9.72-12.602c2.957-4.478,6.262-9.435,6.723-15.601
	c-4.287,0.342-7.86-0.158-9.602-2.76c-0.237-0.354-0.451-1.056-0.72-1.562c-0.688-1.287-1.276-2.651-1.08-5.039
	c0.418-5.094,3.48-9.614,6.479-13.319c1.516-1.87,3.118-3.599,4.683-5.16C630.496,93.944,632.446,92.495,634.213,90.946z"/>
<path fill="none" d="M95.653,91.786c24.92,0,49.84,0,74.76,0c0,3.961,0,7.92,0,11.881c-22.131,1.144-33.102,15.465-39.36,32.761
	c-2.159,5.965-3.536,12.349-4.68,19.319c-2.304,14.03-2.92,30.531-0.48,44.279c2.386,13.443,8.154,24.629,14.64,33.36
	c-4.791,7.921-5.274,23.507-2.28,34.199c-19.558-4.188-29.893-19.229-38.64-34.92c-1.49-2.674-2.633-5.585-3.6-8.641
	c-0.983-3.105-2.082-6.279-2.76-9.48c-5.644-26.643-5.562-65.711,6.96-84.358c6.46-9.62,16.779-15.206,32.16-15.359
	c2.915-3.445,5.571-7.148,8.28-10.801c-15.04,0-30.08,0-45.12,0c0-3.96,0-7.92,0-11.88C95.523,91.976,95.513,91.807,95.653,91.786z"
	/>
<path fill="none" d="M186.493,91.786c16.2,0,32.399,0,48.6,0c0.106,0.438-0.346,0.946-0.6,1.32c-2.094,3.084-4.526,6.656-6.72,9.721
	c-13.801,0-27.601,0-41.4,0c0-3.561,0-7.121,0-10.681C186.363,91.976,186.354,91.807,186.493,91.786z"/>
<path fill="none" d="M484.453,131.986c0.08,0.544-0.447,1.017-0.72,1.44c-4.888,7.586-7.924,17.793-8.522,29.88
	c-2.021,0.06-3.853-0.064-5.76-0.12c-1.78-4.537-5.048-11.074-9.12-12.96c-1.64-0.76-4.293-0.601-5.4,0.84
	c2.374,1.479,4.954,3.755,6.48,6.36c0.891,1.521,2.042,3.798,1.2,6c-3.241,0.277-6.999,0.04-10.44,0.118
	c-0.73-2.539-1.958-5.377-3.479-7.92c-1.963-3.279-5.436-7.061-10.44-4.799c3.22,3.18,6.595,7.245,7.563,13.08
	c-4.216-0.174-8.388,0.332-12.36,0c0-8.801,0-17.601,0-26.4c1.145,0.355,2.021,0.401,3,0.959c0.582,0.332,1.009,1.231,1.56,1.32
	c1.376,0.224,2.558-1.629,2.16-3.479c-0.388-1.816-2.858-2.806-5.398-2.88c-0.856-0.025-1.736,0.203-2.642,0.118
	c-5.011-0.468-8.066-4.858-9.96-7.318c0.092-4.292-0.184-8.216-0.12-12.479c6.641-1.721,13.1,0.406,16.683,3.359
	c2.179,1.797,3.895,4.641,4.438,7.561c0.322,1.734-0.363,5.287,1.2,6.479c1.963,1.495,8.03,0.72,11.64,0.72
	C465.102,131.866,475.476,132.083,484.453,131.986z"/>
<path fill="none" d="M219.613,114.706c-1.181,2.295-2.645,4.457-4.08,6.602c-21.584,32.23-43.381,64.9-65.04,97.199
	c-5.478-6.752-9.328-16.258-10.92-26.881c-2.585-17.243,0.705-35.967,5.52-49.318c1.696-4.704,3.596-9.165,5.88-12.96
	c4.796-7.972,12.534-12.985,22.68-15c3.232-0.644,8.027,0,11.76,0C196.748,114.347,208.074,114.741,219.613,114.706z"/>
<path fill="none" d="M256.693,125.267c0.08,0,0.16,0,0.24,0c0.139,10.25-0.785,18.461-6,23.278
	c-3.229,2.983-7.572,4.482-12.721,5.762c-3.082-7.241-1.811-17.146,1.801-22.08C243.322,127.702,249.688,125.667,256.693,125.267z"
	/>
<path fill="#FFFFFF" d="M619.813,126.106c1.078-0.279,2.679-0.041,3.96-0.12c-0.042,1.479-0.294,2.748-0.48,4.08
	C622.076,128.804,621.056,127.344,619.813,126.106z"/>
<path fill="none" d="M218.173,176.267c-2.122-6.627-5.339-12.142-5.521-19.681c-0.131-5.458,2.144-9.592,4.801-13.561
	c2.672-3.99,5.271-7.889,7.561-11.279c0.102-0.021,0.112,0.047,0.119,0.119c3.636,7.527,6.893,20.507,3,30
	c-1.116,2.723-3.104,5.088-4.8,7.44C221.585,171.732,220.033,174.265,218.173,176.267z"/>
<path fill="none" d="M262.934,159.347c0.047,0.701-0.588,1.137-0.961,1.68c-2.051,2.988-4.291,6.181-6.359,9.24
	c-0.854,1.263-1.395,2.668-2.28,3.84c-5.692,7.531-17.413,9.039-30.36,7.68c-0.096-0.534,0.596-1.274,1.08-1.92
	c2.355-3.128,4.864-6.444,7.32-9.72c0.973-1.296,1.841-2.828,2.88-3.96C239.99,159.937,250.591,158.078,262.934,159.347z"/>
<path fill="none" d="M205.934,160.187c0.102-0.021,0.113,0.047,0.119,0.12c3.252,8.181,6.318,21.648,2.4,31.318
	c-2.907,4.613-6.192,8.849-9.24,13.32c-3.603-7.668-8.428-17.555-4.68-27c1.165-2.938,3.475-6.006,5.4-8.88
	C202.074,165.87,204.155,162.802,205.934,160.187z"/>
<path fill="none" d="M274.573,168.347c0.124-0.02,0.233,0.024,0.239,0.118c0.381,5.186,0,11.072,0,17.041
	c0,13.949,0,28.104,0,42.359c0,2.889-0.262,5.922,0.24,8.16c0.415,1.85,1.924,2.748,2.641,4.08c-17.16,0-34.32,0-51.48,0
	c-0.204-0.705,0.709-1.438,1.2-2.16c11.511-16.953,23.436-34.139,34.92-51.359C266.424,180.452,270.604,174.45,274.573,168.347z"/>
<path fill="none" d="M494.413,208.786c-2.479,1.129-4.618,2.547-8.16,2.041c-4.664-0.667-7.081-5.378-10.2-7.439
	c-2.495-0.415-5.768-0.492-6.84,1.199c4.487,2.272,8.388,5.134,11.64,8.641c-1.871,0.521-3.349,1.197-5.037,1.8
	c-1.607,0.572-3.515,1.563-5.28,1.561c-3.277-0.007-5.477-2.354-7.32-4.199c-0.958-0.958-2.03-2.358-3-2.762
	c-1.919-0.795-4.02-0.662-5.64,0.24c3.569,2.549,7.455,4.785,10.08,8.28c-1.521,0.396-2.865,0.952-4.32,1.439
	c-2.043,0.687-3.918,1.846-6.48,1.199c-4.38-1.104-7.619-6.787-11.76-6.72c-1.021,0.017-1.604,0.421-2.397,1.08
	c3.832,2.247,7.778,4.38,10.317,7.92c-5.233,1.523-10.169,3.351-15.478,4.8c-0.159-1.561-0.31-3.133-0.603-4.56
	c-1.912,0.751-4.689,1.661-7.317,1.318c-4.364-0.565-7.556-3.644-9.723-7.198c-1.603-2.631-2.511-6.082-2.397-9.48
	c7.878-2.063,15.224,1.79,20.04,4.801c-0.031-1.568,0.091-3.291-0.12-4.681c-4.671-3.549-11.274-6.243-19.8-5.159
	c-0.44-3.328-0.221-7.518-0.12-11.041c9.081-0.321,14.432,3.088,19.56,6.721c0-1.641,0-3.279,0-4.92
	c-5.401-3.356-11.358-6.16-20.04-6.239c-0.833-6.398,2.326-10.08,7.44-10.32c4.446-0.209,8.479,1.959,11.64,3.721
	c3.48,1.939,6.149,4.617,8.643,6.719c11.469-3.649,23.177-7.702,34.438-11.158C481.644,187.796,486.858,199.461,494.413,208.786z"/>
<path fill="none" d="M243.133,188.626c0.035,0.634-0.5,1.213-0.84,1.682c-1.184,1.632-2.557,3.261-3.84,5.04
	c-2.514,3.481-4.523,7.463-7.92,10.08c-5.531,4.261-17.488,6.747-27.36,4.8c-0.056-0.74,0.69-1.174,1.08-1.682
	c3.125-4.055,6.479-8.379,9.72-12.479c3.973-5.024,8.854-7.895,17.16-8.28C235.328,187.591,239.104,188.099,243.133,188.626z"/>
<path fill="none" d="M178.093,235.786c-3.862-7.672-7.222-19.904-3.36-29.279c1.172-2.842,3.648-5.801,5.521-8.521
	c2.069-3.007,4.219-5.854,5.88-8.521c0.102-0.021,0.113,0.048,0.12,0.121c0.097,0.022,0.12,0.12,0.24,0.119
	c2.042,5.12,4.118,10.213,4.56,16.682C192.033,220.765,183.099,227.174,178.093,235.786z"/>
<path fill="none" d="M409.213,192.466c-0.492,3.664-0.783,8.423,0,12c-3.758-0.585-5.62,1.73-8.04,2.882
	C399.209,199.841,402.003,192.71,409.213,192.466z"/>
<path fill="none" d="M223.333,217.187c-1.571,2.606-3.466,4.976-5.28,7.561c-1.715,2.442-3.148,5.308-5.16,7.561
	c-5.737,6.429-17.105,8.816-28.92,6.72c-0.103-0.637,0.791-1.243,1.32-1.92c3.569-4.57,7.093-9.84,11.04-14.279
	c3.228-3.631,7.943-6.061,14.04-6.479C215.166,216.017,219.063,216.751,223.333,217.187z"/>
<path fill="none" d="M156.013,268.786c-3.681-4.494-6.322-9.571-5.64-18.119c0.664-8.324,5.398-15.032,9.24-20.521
	c2.207-3.153,4.299-6.086,6.12-8.76c0.102-0.022,0.113,0.046,0.12,0.119c4.169,6.675,5.936,18.129,3,27
	C166.18,256.583,159.822,262.18,156.013,268.786z"/>
<path fill="none" d="M522.613,243.587c1.534,8.326,8.163,12.127,18.479,11.279c0.969,5.651,1.635,12.178,1.2,18.84
	c-4.207,2.52-8.256,5.176-12.36,7.681c-5.564,3.397-12.024,6.346-16.197,11.28c-1.148,1.356-2.421,2.806-3.24,4.199
	c-2.802,4.77-3.622,10.315-3.12,16.319c0.488,5.832,2.508,10.474,3.96,15.961c2.721,10.283,4.198,24.509-0.84,33.84
	c-2.338-3.702-2.961-9.118-5.28-12.84c-0.446,0.554-1.101,0.897-1.68,1.317c-0.122,4.642-2.644,8.093-5.521,11.041
	c-2.799,2.867-6.086,5.328-10.197,6.24c-8.798,1.948-12.105-6.031-12.603-13.92c4.029-0.531,10.654,1.532,11.4-2.281
	c-7.912,0.142-17.65,0.619-25.563-0.239c-1.796-3.203-3.42-6.58-3.6-11.398c3.278-0.313,6.824-0.35,10.438-0.12
	c6.147,0.389,12.919,2.567,14.643-3c-8.49-0.236-17.082-0.285-25.563,0c-1.267-2.502-2.2-5.947-1.68-9.841
	c7.175-1.616,19.65,3.546,22.8-3c-7.433-0.34-15.638-0.358-22.92,0.121c0.29-6.078,0.495-10.643,5.88-11.28
	c1.765-0.209,3.895,0.055,6,0.12c2.18,0.068,5.207,0.431,6.721-0.12c1.614-0.586,2.553-2.492,2.882-4.199
	c-3.649,1.578-10.17,2.151-15.24,1.08c0.984-2.727,2.619-5.039,4.56-7.319c1.851-2.175,4.128-4.191,5.521-6.359
	c0.936-1.457,1.755-3.959,0.84-6.12c-2.961,4.879-7.124,8.557-10.2,13.319c-1.549-2.806-3.903-5.158-3.6-9.601
	c0.311-4.549,3.831-8.051,6.72-10.319c1.993-1.564,4.802-3.093,3.96-7.08c-3.367,3.192-7.853,6.306-11.04,10.08
	c-1.958-2.627-3.28-7.779-1.68-11.279c1.023-2.241,3.561-4.219,5.52-6.36c0.853-0.931,1.775-2.047,2.761-3.119
	c1.495-1.627,3.695-2.937,2.762-6c-3.876,3.324-7.921,8.16-11.88,11.4c-3.839-14.745,5.522-22.98,17.04-25.441
	c4.675-0.998,9.984-1.047,15.72-1.318C500.196,244.586,512.225,244.09,522.613,243.587z"/>
<path fill="none" d="M202.812,246.946c-4.201,5.453-7.242,11.803-12,16.561c-6.164,6.164-16.093,10.101-28.799,8.642
	c0.976-1.733,2.333-3.586,3.72-5.399c1.341-1.756,2.7-3.5,4.08-5.281c2.717-3.508,5.138-7.561,8.4-10.317
	C183.688,246.515,193.085,245.335,202.812,246.946z"/>
<path fill="none" d="M218.173,251.025c30.681,0,61.36,0,92.04,0c0,6.16,0,12.32,0,18.48c-34.72,0-69.439,0-104.16,0
	c-0.314-0.422,0.318-0.73,0.48-0.961C210.396,263.011,214.478,256.815,218.173,251.025z"/>
<path fill="none" d="M453.493,315.827c-1.484,2.215-2.241,5.73-1.92,9.358c-3.694-0.174-6.142,0.899-9.24,1.319
	C442.254,319.581,445.74,313.107,453.493,315.827z"/>
<path fill="none" d="M451.933,328.307c-0.374,4.133,0.013,8.336,0.843,11.641c-5.017,0.104-8.704,2.176-11.763,3.84
	c-1.142-4.094-2.212-9.82,0.12-13.08C443.14,327.9,447.575,327.614,451.933,328.307z"/>
<path fill="none" d="M578.413,337.427c0.213,0.565-0.985,1.315-1.32,2.038c-0.849,1.832-1.161,4.828-1.56,7.441
	c-0.146,0.941-0.076,2.154-0.36,2.639c-0.573,0.979-2.616,0.686-4.2,0.842c-2.149,0.213-3.189,1.01-4.68,1.801
	C562.139,343.609,569.275,335.857,578.413,337.427z"/>
<path fill="none" d="M453.493,342.348c0.707,1.484,0.702,3.363,1.08,5.038c0.386,1.718,0.813,3.343,1.317,4.802
	c-6.266-0.309-9.646,2.272-12.117,5.76c-1.608-3.137-3.863-7.801-1.32-11.16C444.6,343.95,448.979,343.175,453.493,342.348z"/>
<path fill="none" d="M576.852,362.025c-3.738,0.859-6.013,3.189-8.397,5.399c-1.693-3.106-3.778-5.821-3.36-11.04
	c2.328-2.632,5.321-4.599,9.842-5.039C575.534,354.943,576.274,358.404,576.852,362.025z"/>
<path fill="none" d="M472.333,355.188c-0.845,3.354,0.029,6.955,1.08,9.479c-4.64-1.361-8.648,1.348-11.16,2.879
	c-0.302-2.225-0.748-4.656-0.479-6.84C462.363,355.895,466.809,354.241,472.333,355.188z"/>
<path fill="none" d="M581.653,373.546c-2.457,2.146-4.867,4.334-7.08,6.722c-0.85-0.522-1.727-1.259-2.28-2.16
	c-1.142-1.86-2.421-4.834-2.16-7.198c0.284-2.584,4.663-6.386,7.08-7.201C578.979,366.698,579.99,370.45,581.653,373.546z"/>
<g>
	<path fill="#FFFFFF" d="M83.061,306.438l-4.697-5.643h4.42l2.211,3.004l2.21-3.004h4.401l-4.679,5.643H83.061z M94.303,320.279
		h-4.124c0-0.98-0.19-2.146-0.571-3.506c-0.426-1.521-1.031-2.621-1.812-3.311c-0.779-0.689-1.813-1.028-3.105-1.028
		c-2.1,0-3.623,1.023-4.573,3.076c-0.991,2.112-1.488,4.994-1.488,8.65c0,3.468,0.538,6.197,1.617,8.177
		c1.077,1.985,2.551,2.978,4.424,2.978c1.7,0,3.049-0.709,4.043-2.123c0.992-1.414,1.486-3.353,1.486-5.801h4.19
		c-0.156,3.26-0.846,5.786-2.064,7.584c-1.786,2.651-4.339,3.974-7.658,3.974c-3.461,0-6.049-1.415-7.763-4.25
		c-0.766-1.259-1.372-2.892-1.82-4.896c-0.446-2.004-0.668-4.099-0.668-6.278c0-4.336,0.844-7.848,2.53-10.541
		c1.774-2.787,4.411-4.188,7.912-4.188c3.702,0,6.369,1.69,7.998,5.063C93.82,315.855,94.303,318,94.303,320.279"/>
	<polygon fill="#FFFFFF" points="128.259,309.341 128.259,313.01 117.785,313.01 117.785,321.282 128.259,321.282 128.259,324.918 
		117.785,324.918 117.785,334.734 128.259,334.734 128.259,338.372 113.725,338.372 113.725,309.341 	"/>
	<path fill="#FFFFFF" d="M163.78,317.147h-4.206c0-1.444-0.42-2.596-1.261-3.461c-0.835-0.862-1.953-1.293-3.343-1.293
		c-1.251,0-2.26,0.381-3.024,1.137c-0.771,0.761-1.153,1.754-1.153,2.986c0,1.363,0.512,2.41,1.533,3.146
		c0.566,0.411,1.788,0.939,3.66,1.575c2.936,0.99,4.871,1.97,5.809,2.935c1.531,1.604,2.295,3.686,2.295,6.249
		c0,2.27-0.688,4.19-2.06,5.766c-1.583,1.842-3.853,2.765-6.798,2.765c-2.948,0-5.258-0.858-6.937-2.577
		c-1.676-1.719-2.517-4.08-2.517-7.088h4.207c0,4.047,1.665,6.07,4.992,6.07c1.512,0,2.708-0.422,3.583-1.254
		c0.879-0.836,1.317-1.979,1.317-3.425c0-1.291-0.306-2.323-0.923-3.095c-0.616-0.771-1.636-1.396-3.048-1.882l-1.616-0.554
		c-0.893-0.297-1.807-0.674-2.742-1.127c-0.936-0.451-1.623-0.851-2.06-1.188c-1.916-1.505-2.871-3.517-2.871-6.04
		c0-2.381,0.797-4.309,2.393-5.782c1.595-1.476,3.69-2.212,6.284-2.212c1.417,0,2.754,0.288,4.007,0.869
		c1.257,0.576,2.229,1.355,2.923,2.333C163.262,313.451,163.78,315.17,163.78,317.147"/>
	<polygon fill="#FFFFFF" points="183.328,338.368 183.328,309.339 187.387,309.339 187.387,323.469 197.123,309.339 
		201.821,309.339 193.847,320.538 202.967,338.368 198.355,338.368 191.022,323.727 187.387,328.678 187.387,338.368 	"/>
	<path fill="#FFFFFF" d="M226.287,304.389l6.526-4.443l2.123,2.722l-6.694,4.355L226.287,304.389z M232.024,326.15l-2.91-11.805
		L226.2,326.15H232.024z M231.3,309.341l8.439,29.031h-4.211l-2.439-8.584h-7.953l-2.442,8.584h-4.208l8.436-29.031H231.3z"/>
	<polygon fill="#FFFFFF" points="73.759,387.098 73.759,383.591 85.485,361.739 74.728,361.739 74.728,358.066 90.109,358.066 
		90.109,361.566 78.441,383.464 90.341,383.464 90.341,387.098 	"/>
	<polygon fill="#FFFFFF" points="119.731,358.066 119.731,361.739 109.256,361.739 109.256,370.008 119.731,370.008 
		119.731,373.647 109.256,373.647 109.256,383.464 119.731,383.464 119.731,387.098 105.197,387.098 105.197,358.066 	"/>
	<polygon fill="#FFFFFF" points="135.223,387.098 135.223,358.066 140.895,358.066 147.118,380.061 153.338,358.066 
		159.035,358.066 159.035,387.098 154.976,387.098 154.976,364.035 148.541,387.098 145.695,387.098 139.28,364.035 139.28,387.098 
			"/>
	<path fill="#FFFFFF" d="M181.043,355.167l-4.699-5.644h4.399l2.213,3.004l2.227-3.004h4.403l-4.693,5.644H181.043z
		 M190.236,358.066v3.673h-10.473v8.269h10.473v3.641h-10.473v9.815h10.473v3.634h-14.533v-29.029L190.236,358.066L190.236,358.066z
		"/>
	<path fill="#FFFFFF" d="M209.786,383.464h3.527c1.292,0,2.304-0.103,3.033-0.31c0.73-0.206,1.434-0.575,2.114-1.112
		c2.157-1.729,3.234-4.916,3.234-9.556c0-4.137-0.873-7.133-2.618-8.983c-1.104-1.177-2.919-1.765-5.443-1.765h-3.847V383.464z
		 M205.729,387.098v-29.031h7.647c2.553,0,4.518,0.272,5.892,0.815c1.378,0.55,2.61,1.539,3.704,2.97
		c0.902,1.207,1.623,2.744,2.146,4.631c0.527,1.875,0.789,3.841,0.789,5.896c0,2.779-0.401,5.235-1.201,7.372
		c-0.803,2.132-1.96,3.816-3.478,5.046c-0.995,0.825-2.077,1.413-3.245,1.769c-1.169,0.354-2.577,0.533-4.223,0.533H205.729z"/>
	<path fill="#FFFFFF" d="M246.765,355.167l-4.696-5.644h4.399l2.209,3.004l2.23-3.004h4.4l-4.694,5.644H246.765z M255.961,358.066
		v3.673h-10.477v8.269h10.477v3.641h-10.477v9.815h10.477v3.634h-14.535v-29.029L255.961,358.066L255.961,358.066z"/>
	<polygon fill="#FFFFFF" points="271.451,387.098 271.451,358.066 275.51,358.066 275.51,383.464 285.909,383.464 285.909,387.098 	
		"/>
	<path fill="#FFFFFF" d="M316.717,365.873h-4.208c0-1.441-0.419-2.594-1.256-3.456c-0.84-0.862-1.956-1.298-3.347-1.298
		c-1.251,0-2.259,0.382-3.027,1.136c-0.762,0.763-1.146,1.754-1.146,2.988c0,1.362,0.506,2.413,1.528,3.147
		c0.567,0.41,1.788,0.935,3.661,1.572c2.936,0.99,4.87,1.969,5.808,2.934c1.534,1.604,2.297,3.688,2.297,6.25
		c0,2.271-0.688,4.189-2.059,5.768c-1.588,1.843-3.855,2.761-6.801,2.761c-2.946,0-5.261-0.856-6.936-2.573
		c-1.683-1.717-2.52-4.076-2.52-7.092h4.21c0,4.049,1.661,6.071,4.987,6.071c1.512,0,2.71-0.417,3.585-1.256
		c0.878-0.835,1.32-1.976,1.32-3.423c0-1.291-0.313-2.32-0.929-3.09c-0.617-0.774-1.631-1.402-3.051-1.888l-1.611-0.551
		c-0.889-0.294-1.809-0.675-2.743-1.125c-0.936-0.453-1.617-0.852-2.061-1.19c-1.913-1.504-2.867-3.518-2.867-6.037
		c0-2.385,0.796-4.311,2.393-5.789c1.595-1.474,3.686-2.207,6.278-2.207c1.424,0,2.758,0.287,4.015,0.869
		c1.253,0.58,2.227,1.354,2.925,2.332C316.199,362.182,316.717,363.897,316.717,365.873"/>
	<polygon fill="#FFFFFF" points="332.393,387.098 332.393,358.066 336.452,358.066 336.452,372.198 346.189,358.066 
		350.887,358.066 342.914,369.266 352.033,387.098 347.419,387.098 340.086,372.454 336.452,377.404 336.452,387.098 	"/>
	<path fill="#FFFFFF" d="M371.473,353.113l6.526-4.443l2.128,2.725l-6.693,4.355L371.473,353.113z M377.214,374.882l-2.914-11.806
		l-2.91,11.806H377.214z M376.489,358.066l8.438,29.029h-4.207l-2.44-8.582h-7.95l-2.443,8.582h-4.209l8.438-29.029H376.489z"/>
	<path fill="#FFFFFF" d="M75.306,406.792h4.058v20.656c0,3.545,1.656,5.322,4.97,5.322c1.443,0,2.596-0.379,3.46-1.133
		c0.54-0.466,0.918-1.012,1.137-1.626c0.221-0.619,0.332-1.475,0.332-2.563v-20.656h4.058v20.656c0,2.833-0.802,5.036-2.401,6.604
		c-1.601,1.563-3.853,2.351-6.756,2.351c-2.774,0-4.944-0.791-6.512-2.37c-1.566-1.582-2.345-3.776-2.345-6.584L75.306,406.792
		L75.306,406.792z"/>
	<polygon fill="#FFFFFF" points="114.121,435.823 114.121,406.792 118.5,406.792 128.887,427.957 128.887,406.792 132.945,406.792 
		132.945,435.823 128.864,435.823 118.179,414.188 118.179,435.823 	"/>
	<rect x="153.983" y="406.792" fill="#FFFFFF" width="4.058" height="29.031"/>
	<polygon fill="#FFFFFF" points="185.515,435.823 176.652,406.792 181.03,406.792 187.515,429.598 194.104,406.792 198.437,406.792 
		189.533,435.823 	"/>
	<polygon fill="#FFFFFF" points="231.597,406.792 231.597,410.464 221.123,410.464 221.123,418.732 231.597,418.732 
		231.597,422.372 221.123,422.372 221.123,432.189 231.597,432.189 231.597,435.823 217.063,435.823 217.063,406.792 	"/>
	<path fill="#FFFFFF" d="M251.486,435.823v-29.031h7.843c2.817,0,5.016,0.597,6.604,1.785c1.064,0.797,1.883,1.819,2.463,3.073
		c0.578,1.252,0.873,2.633,0.873,4.135c0,1.348-0.268,2.636-0.8,3.867c-0.529,1.234-1.256,2.226-2.175,2.976
		c-1.187,0.979-2.443,1.47-3.754,1.47l8.157,11.728h-4.949l-9.883-14.961h3.21c1.89,0,3.373-0.449,4.446-1.354
		c1.076-0.904,1.611-2.15,1.611-3.748c0-1.468-0.468-2.711-1.408-3.727c-0.541-0.579-1.177-0.983-1.907-1.218
		c-0.733-0.233-1.719-0.353-2.954-0.353h-3.316v25.359H251.486L251.486,435.823z"/>
	<polygon fill="#FFFFFF" points="287.81,435.823 287.81,432.314 299.535,410.464 288.776,410.464 288.776,406.792 304.161,406.792 
		304.161,410.293 292.486,432.189 304.394,432.189 304.394,435.823 	"/>
	<rect x="323.646" y="406.792" fill="#FFFFFF" width="4.058" height="29.031"/>
	<polygon fill="#FFFFFF" points="352.582,435.823 352.582,410.464 346.32,410.464 346.32,406.792 362.942,406.792 362.942,410.464 
		356.638,410.464 356.638,435.823 	"/>
	<path fill="#FFFFFF" d="M390.828,423.607l-2.911-11.806l-2.911,11.806H390.828z M390.106,406.792l8.438,29.031h-4.207l-2.445-8.584
		h-7.949l-2.441,8.584h-4.212l8.438-29.031H390.106z"/>
	<polygon fill="#FFFFFF" points="447.6,435.823 438.738,406.792 443.116,406.792 449.599,429.598 456.189,406.792 460.52,406.792 
		451.618,435.823 	"/>
	<path fill="#FFFFFF" d="M507.215,421.173h4.018c1.513,0,2.728-0.485,3.647-1.461c0.918-0.98,1.378-2.263,1.378-3.858
		c0-1.571-0.381-2.84-1.146-3.816c-0.819-1.048-2.32-1.571-4.497-1.571h-3.4V421.173z M503.155,435.823v-29.031h8.183
		c2.716,0,4.82,0.701,6.313,2.106c1.879,1.785,2.821,4.067,2.821,6.847c0,3.135-1.057,5.565-3.163,7.296
		c-1.443,1.176-3.34,1.765-5.673,1.765h-4.421v11.02L503.155,435.823L503.155,435.823z"/>
	<path fill="#FFFFFF" d="M539.872,435.823v-29.031h7.844c2.816,0,5.018,0.597,6.604,1.785c1.062,0.797,1.885,1.819,2.463,3.073
		c0.583,1.252,0.874,2.633,0.874,4.135c0,1.348-0.271,2.636-0.795,3.867c-0.535,1.234-1.256,2.226-2.18,2.976
		c-1.188,0.979-2.443,1.47-3.76,1.47l8.165,11.728h-4.951l-9.888-14.961h3.211c1.89,0,3.372-0.449,4.445-1.354
		c1.076-0.904,1.614-2.15,1.614-3.748c0-1.468-0.473-2.711-1.41-3.727c-0.541-0.579-1.18-0.983-1.908-1.218
		c-0.732-0.233-1.716-0.353-2.955-0.353h-3.314v25.359H539.872L539.872,435.823z"/>
	<path fill="#FFFFFF" d="M589.108,423.607l-2.91-11.806l-2.912,11.806H589.108z M588.387,406.792l8.439,29.031h-4.206l-2.448-8.584
		h-7.95l-2.438,8.584h-4.21l8.438-29.031H588.387z"/>
	<polygon fill="#FFFFFF" points="613.632,435.823 613.632,432.314 625.358,410.464 614.6,410.464 614.6,406.792 629.981,406.792 
		629.981,410.293 618.311,432.189 630.214,432.189 630.214,435.823 	"/>
	<polygon fill="#FFFFFF" points="664,406.792 664,410.464 653.527,410.464 653.527,418.732 664,418.732 664,422.372 
		653.527,422.372 653.527,432.189 664,432.189 664,435.823 649.467,435.823 649.467,406.792 	"/>
</g>
</svg>
