<?xml version="1.0" encoding="utf-8"?>
<!-- Generator: Adobe Illustrator 23.0.6, SVG Export Plug-In . SVG Version: 6.00 Build 0)  -->
<svg version="1.1" id="Vrstva_1" xmlns="http://www.w3.org/2000/svg" xmlns:xlink="http://www.w3.org/1999/xlink" x="0px" y="0px"
	 viewBox="0 0 150.4 150.1" style="enable-background:new 0 0 150.4 150.1;" xml:space="preserve">
<style type="text/css">
	.st0{fill:#FFFFFF;}
</style>
<g id="layer1_2_" transform="translate(0,-906.11214)">
	<g>
		<g id="path3044_2_">
			<path class="st0" d="M75.1,906.1C33.7,906.1,0,939.8,0,981.2c0,41.4,33.7,75.1,75.1,75.1c11.3,0,21.9-2.6,31.5-7v-17
				c-9.2,5.6-19.9,8.9-31.5,8.9c-26.1,0-48.2-16.5-56.5-39.7H25h8.4v-13.9l10.8,14.1l0.1-0.1v0.1h16.4v-11.6H49.9l-7.1-9.3
				l16.8-22.3H45l-11.6,15.4v-15.4h-8.6h-5.2c9-21.8,30.4-37.1,55.5-37.1c33.2,0,60,26.7,60,60c0,10.6-2.8,20.6-7.6,29.2h-22.1
				v-40.3h12.1v-11.8h-36v11.6h12.3v40.3l0,0v11.6h25.3h10.7h8.4c7.7-11.8,12.2-25.8,12.2-40.9C150.2,939.8,116.5,906.1,75.1,906.1z
				 M65.4,958.5v43.1H77v-43.1H65.4z M16.2,970h5.6v19.9h-6.1c-0.4-2.8-0.6-5.7-0.6-8.6C15.1,977.4,15.5,973.6,16.2,970z"/>
		</g>
	</g>
</g>
</svg>
