<svg xmlns="http://www.w3.org/2000/svg" viewBox="0 0 405.7 150.2"><defs><style>.a{fill:#fff;}</style></defs><title>KIT_CZ_bila</title><path class="a" d="M75.1,0a75.1,75.1,0,1,0,31.5,143.2v-17a60.09,60.09,0,0,1-88-30.8H33.4V81.5L44.2,95.6l.1-.1v.1H60.7V84H49.9l-7.1-9.3L59.6,52.4H45L33.4,67.8V52.4H19.6a60,60,0,1,1,107.9,52.1H105.4V64.2h12.1V52.4h-36V64H93.8v40.3h0v11.6h44.4A74.51,74.51,0,0,0,150.4,75,75.48,75.48,0,0,0,75.1,0ZM65.4,52.4V95.5H77V52.4ZM16.2,63.9h5.6V83.8H15.7a61.09,61.09,0,0,1-.6-8.6A59.32,59.32,0,0,1,16.2,63.9Z" transform="translate(0 0)"/><path class="a" d="M288.6,38.71h-3.1l-8.2-10.9-2.4,2.1v8.8h-2.6V16.21h2.6v11.1l10.3-11.1h3.1l-9,9.8Z" transform="translate(0 0)"/><path class="a" d="M305.8,38.71l-2.8-7.1h-9l-2.8,7.1h-2.6l8.9-22.6h2.2l8.8,22.6Zm-3.6-9.5-2.6-7c-.3-.9-.7-2-1-3.2a14.63,14.63,0,0,1-1,3.2l-2.6,7Z" transform="translate(0 0)"/><path class="a" d="M318.5,38.71h-2.6V18.61h-7.1v-2.4h16.8v2.3h-7.1v20.2Z" transform="translate(0 0)"/><path class="a" d="M341.5,38.71H329V16.21h12.5v2.3h-9.9v7.2h9.3V28h-9.3v8.3h9.9Z" transform="translate(0 0)"/><path class="a" d="M364.5,27.31c0,3.7-1,6.5-3,8.5s-4.9,2.9-8.7,2.9h-6.2V16.21h6.9c3.5,0,6.2,1,8.1,2.9S364.5,23.81,364.5,27.31Zm-2.8.1c0-2.9-.7-5.1-2.2-6.6s-3.7-2.2-6.6-2.2h-3.8v17.9h3.2c3.1,0,5.5-.8,7-2.3A9.34,9.34,0,0,0,361.7,27.41Z" transform="translate(0 0)"/><path class="a" d="M372.1,29.41v9.3h-2.6V16.21h6.2c2.8,0,4.8.5,6.1,1.6a5.83,5.83,0,0,1,2,4.8q0,4.5-4.5,6l6.1,10.1h-3.2l-5.4-9.3Zm0-2.3h3.6a6.68,6.68,0,0,0,4.1-1.1,3.9,3.9,0,0,0,1.3-3.3,3.58,3.58,0,0,0-1.3-3.2,6.85,6.85,0,0,0-4.2-1h-3.4v8.6Z" transform="translate(0 0)"/><path class="a" d="M403,38.71l-2.8-7.1h-9l-2.8,7.1h-2.6l8.9-22.6h2.2l8.8,22.6Zm-3.6-9.5-2.6-7c-.3-.9-.7-2-1-3.2a14.63,14.63,0,0,1-1,3.2l-2.6,7Z" transform="translate(0 0)"/><path class="a" d="M172.4,70.21V47.71H175v22.5Z" transform="translate(0 0)"/><path class="a" d="M198.7,70.21h-3l-12.3-18.9h-.1c.2,2.2.2,4.2.2,6.1v12.8h-2.4V47.71h3l12.2,18.8h.1c0-.3-.1-1.2-.1-2.7s-.1-2.6-.1-3.2V47.71h2.4v22.5Z" transform="translate(0 0)"/><path class="a" d="M207.5,70.21h-2.6V47.71h12.5V50h-9.9v8.2h9.3v2.3h-9.3Z" transform="translate(0 0)"/><path class="a" d="M240.6,58.91c0,3.6-.9,6.4-2.7,8.5s-4.3,3.1-7.6,3.1-5.9-1-7.7-3-2.7-4.9-2.7-8.6.9-6.5,2.7-8.5,4.4-3,7.7-3a9.67,9.67,0,0,1,7.6,3.1Q240.6,53.51,240.6,58.91Zm-17.9,0c0,3,.6,5.4,1.9,6.9a6.84,6.84,0,0,0,5.6,2.4,6.59,6.59,0,0,0,5.6-2.4c1.3-1.6,1.9-3.9,1.9-6.9s-.6-5.3-1.9-6.9-3.1-2.3-5.6-2.3a6.91,6.91,0,0,0-5.7,2.4A11.5,11.5,0,0,0,222.7,58.91Z" transform="translate(0 0)"/><path class="a" d="M248.2,60.81v9.3h-2.6V47.71h6.2c2.8,0,4.8.5,6.1,1.6a5.83,5.83,0,0,1,2,4.8q0,4.5-4.5,6l6.1,10.1h-3.1l-5.4-9.3h-4.8Zm0-2.2h3.6a6.68,6.68,0,0,0,4.1-1.1,3.9,3.9,0,0,0,1.3-3.3,3.58,3.58,0,0,0-1.3-3.2,6.85,6.85,0,0,0-4.2-1h-3.5Z" transform="translate(0 0)"/><path class="a" d="M275,70.21l-7.6-19.9h-.1c.1,1.6.2,3.5.2,5.6v14.3h-2.4V47.71H269l7.1,18.5h.1l7.2-18.5h3.9v22.5h-2.6V55.71c0-1.7.1-3.5.2-5.4h-.1l-7.7,19.9Z" transform="translate(0 0)"/><path class="a" d="M307.6,70.21l-2.8-7.1h-9l-2.8,7.1h-2.6l8.9-22.6h2.2l8.8,22.6Zm-3.6-9.5-2.6-7c-.3-.9-.7-2-1-3.2a14.63,14.63,0,0,1-1,3.2l-2.6,7Z" transform="translate(0 0)"/><path class="a" d="M323,49.71a7,7,0,0,0-5.8,2.5,10.06,10.06,0,0,0-2.1,6.8,10.06,10.06,0,0,0,2.1,6.8,7.33,7.33,0,0,0,5.9,2.4,22.77,22.77,0,0,0,5.4-.8v2.3a16.44,16.44,0,0,1-5.8.9c-3.3,0-5.9-1-7.7-3s-2.7-4.9-2.7-8.6a13.34,13.34,0,0,1,1.3-6.1,9.18,9.18,0,0,1,3.8-4,11.85,11.85,0,0,1,5.8-1.4,13.48,13.48,0,0,1,6.2,1.3L328.3,51A12.13,12.13,0,0,0,323,49.71Zm-5.6-8.8h1.8a18.08,18.08,0,0,1,3.4,2.9,24,24,0,0,1,3.4-2.9h1.8v.4l-1,1a17.23,17.23,0,0,0-2.9,3.6h-2.6a9.25,9.25,0,0,0-1.1-1.6c-.5-.6-1.4-1.7-2.7-3.1v-.3Z" transform="translate(0 0)"/><path class="a" d="M350.8,70.21h-3l-12.3-18.9h-.1c.2,2.2.2,4.2.2,6.1v12.8h-2.4V47.71h3l12.3,18.8h.1c0-.3-.1-1.2-.1-2.7s-.1-2.6-.1-3.2V47.71h2.4v22.5Z" transform="translate(0 0)"/><path class="a" d="M356.7,45.51c.5-.6,1-1.4,1.6-2.3a14.65,14.65,0,0,0,1.3-2.4h3.1v.3a27,27,0,0,1-2,2.5c-.9,1-1.7,1.7-2.3,2.3h-1.7v-.4Zm.3,24.7V47.71h2.6v22.5Z" transform="translate(0 0)"/><path class="a" d="M375.4,49.71a7,7,0,0,0-5.8,2.5,10.06,10.06,0,0,0-2.1,6.8,10.06,10.06,0,0,0,2.1,6.8,7.33,7.33,0,0,0,5.9,2.4,22.77,22.77,0,0,0,5.4-.8v2.3a16.44,16.44,0,0,1-5.8.9c-3.3,0-5.9-1-7.7-3s-2.7-4.9-2.7-8.6a13.34,13.34,0,0,1,1.3-6.1,9.18,9.18,0,0,1,3.8-4,11.85,11.85,0,0,1,5.8-1.4,13.48,13.48,0,0,1,6.2,1.3L380.7,51A12.13,12.13,0,0,0,375.4,49.71Z" transform="translate(0 0)"/><path class="a" d="M402.7,70.21h-2.6V59.61H388.2v10.6h-2.6V47.71h2.6v9.6H400v-9.6h2.6v22.5Z" transform="translate(0 0)"/><path class="a" d="M208.2,101.71h-2.6V81.51h-7.1v-2.3h16.8v2.3h-7.1Z" transform="translate(0 0)"/><path class="a" d="M231.2,101.71H218.7V79.21h12.5v2.3h-9.9v7.2h9.3V91h-9.3v8.3h9.9Z" transform="translate(0 0)"/><path class="a" d="M245.8,81.21a7,7,0,0,0-5.8,2.5,10.06,10.06,0,0,0-2.1,6.8,10.06,10.06,0,0,0,2.1,6.8,7.33,7.33,0,0,0,5.9,2.4,22.77,22.77,0,0,0,5.4-.8v2.3a16.44,16.44,0,0,1-5.8.9c-3.3,0-5.9-1-7.7-3s-2.7-4.9-2.7-8.6a13.34,13.34,0,0,1,1.3-6.1,9.18,9.18,0,0,1,3.8-4A11.85,11.85,0,0,1,246,79a13.48,13.48,0,0,1,6.2,1.3l-1.1,2.2A12.13,12.13,0,0,0,245.8,81.21Z" transform="translate(0 0)"/><path class="a" d="M273.1,101.71h-2.6V91.11H258.7v10.6h-2.6V79.21h2.6v9.6h11.8v-9.6h2.6v22.5Z" transform="translate(0 0)"/><path class="a" d="M296.8,101.71h-3l-12.3-18.9h-.1c.2,2.2.2,4.2.2,6.1v12.8h-2.4V79.21h3L294.4,98h.1c0-.3-.1-1.2-.1-2.7s-.1-2.6-.1-3.2V79.21h2.4v22.5Z" transform="translate(0 0)"/><path class="a" d="M322.5,90.41c0,3.6-.9,6.4-2.7,8.5s-4.3,3.1-7.6,3.1-5.9-1-7.7-3-2.7-4.9-2.7-8.6.9-6.5,2.7-8.5,4.4-3,7.7-3a9.67,9.67,0,0,1,7.6,3.1Q322.5,85,322.5,90.41Zm-17.9,0c0,3,.6,5.4,1.9,6.9a6.84,6.84,0,0,0,5.6,2.4,6.59,6.59,0,0,0,5.6-2.4,11.33,11.33,0,0,0,1.9-6.9c0-3-.6-5.3-1.9-6.9s-3.1-2.3-5.6-2.3a6.91,6.91,0,0,0-5.7,2.4A11.5,11.5,0,0,0,304.6,90.41Z" transform="translate(0 0)"/><path class="a" d="M327.5,101.71V79.21h2.6v20.1H340v2.4Z" transform="translate(0 0)"/><path class="a" d="M363.4,90.41c0,3.6-.9,6.4-2.7,8.5s-4.3,3.1-7.6,3.1-5.9-1-7.7-3-2.7-4.9-2.7-8.6.9-6.5,2.7-8.5,4.4-3,7.7-3a9.67,9.67,0,0,1,7.6,3.1Q363.4,85,363.4,90.41Zm-17.9,0c0,3,.6,5.4,1.9,6.9a6.84,6.84,0,0,0,5.6,2.4,6.59,6.59,0,0,0,5.6-2.4,11.33,11.33,0,0,0,1.9-6.9c0-3-.6-5.3-1.9-6.9s-3.1-2.3-5.6-2.3a6.91,6.91,0,0,0-5.7,2.4C346.1,85.11,345.5,87.41,345.5,90.41Z" transform="translate(0 0)"/><path class="a" d="M378.3,89.91h7.6v10.9a23.69,23.69,0,0,1-3.6.9,27.16,27.16,0,0,1-4.3.3c-3.4,0-6-1-7.9-3s-2.8-4.9-2.8-8.5a13.07,13.07,0,0,1,1.4-6.1,9.1,9.1,0,0,1,4-4,13.49,13.49,0,0,1,6.2-1.4,16.68,16.68,0,0,1,6.7,1.3l-1,2.3a14.33,14.33,0,0,0-5.9-1.3,8.45,8.45,0,0,0-6.4,2.4,9.64,9.64,0,0,0-2.3,6.8c0,3,.7,5.3,2.2,6.9a8.53,8.53,0,0,0,6.5,2.4,23.15,23.15,0,0,0,4.6-.5v-6.9h-5v-2.5Z" transform="translate(0 0)"/><path class="a" d="M391.3,101.71V79.21h2.6v22.5Z" transform="translate(0 0)"/><path class="a" d="M399.7,77c.5-.6,1-1.4,1.6-2.3a14.65,14.65,0,0,0,1.3-2.4h3.1v.3a27,27,0,0,1-2,2.5c-.9,1-1.7,1.7-2.3,2.3h-1.7V77Zm.4,24.7V79.21h2.6v22.5Z" transform="translate(0 0)"/><path class="a" d="M188.1,119.61a6.19,6.19,0,0,1-2.2,5.2c-1.4,1.2-3.5,1.8-6.2,1.8h-2.5v8.7h-2.4v-22.2h5.4C185.5,113.11,188.1,115.31,188.1,119.61Zm-10.8,4.8h2.2a8.12,8.12,0,0,0,4.7-1.1c1-.7,1.4-1.9,1.4-3.6a4,4,0,0,0-1.4-3.3,6.81,6.81,0,0,0-4.2-1.1h-2.7Z" transform="translate(0 0)"/><path class="a" d="M204.2,135.31H192.5v-22.2h11.7v2.3h-9.3v7.2h8.7v2.3h-8.7v8.2h9.3Z" transform="translate(0 0)"/><path class="a" d="M211.3,135.31h-2.4v-22.2h11.7v2.3h-9.3v8.1H220v2.3h-8.7Z" transform="translate(0 0)"/><path class="a" d="M240.6,115.11a6.91,6.91,0,0,0-5.5,2.4,10.49,10.49,0,0,0-2,6.7c0,2.9.6,5.2,1.9,6.7a6.64,6.64,0,0,0,5.5,2.4,19.84,19.84,0,0,0,5-.8v2.3a14.17,14.17,0,0,1-5.4.9,8.93,8.93,0,0,1-7.2-3c-1.7-2-2.5-4.8-2.5-8.5a14,14,0,0,1,1.2-6,9.13,9.13,0,0,1,3.5-4,10.32,10.32,0,0,1,5.4-1.4,12.09,12.09,0,0,1,5.8,1.3l-1,2.2A10,10,0,0,0,240.6,115.11Zm-5.2-8.8H237a16.71,16.71,0,0,1,3.1,2.9,19.37,19.37,0,0,1,3.2-2.9H245v.4l-.9,1a14.93,14.93,0,0,0-2.7,3.6H239a15.86,15.86,0,0,0-1.1-1.6c-.5-.6-1.3-1.6-2.6-3v-.4Z" transform="translate(0 0)"/><path class="a" d="M262.9,135.31H248.5v-2l11.1-17.9H248.8v-2.3h13.8v2L251.5,133h11.4Z" transform="translate(0 0)"/><path class="a" d="M282.8,113.11v14.4a8.08,8.08,0,0,1-2.2,6,8.16,8.16,0,0,1-6,2.2,7.55,7.55,0,0,1-5.9-2.2,8.44,8.44,0,0,1-2.1-6v-14.3H269v14.5a6.17,6.17,0,0,0,1.4,4.3,5.68,5.68,0,0,0,4.2,1.5,5.44,5.44,0,0,0,4.1-1.5,5.73,5.73,0,0,0,1.4-4.3v-14.5h2.7v-.1Z" transform="translate(0 0)"/><path class="a" d="M308,113.11h2.6l-7.6,22.2h-2.4l-7.5-22.2h2.6l4.8,14.4a34.73,34.73,0,0,1,1.3,4.8,44.35,44.35,0,0,1,1.3-4.9Z" transform="translate(0 0)"/><path class="a" d="M334.4,119.61a6.19,6.19,0,0,1-2.2,5.2c-1.4,1.2-3.5,1.8-6.2,1.8h-2.5v8.7h-2.4v-22.2h5.4C331.8,113.11,334.4,115.31,334.4,119.61Zm-10.9,4.8h2.2a8.12,8.12,0,0,0,4.7-1.1c1-.7,1.4-1.9,1.4-3.6a4,4,0,0,0-1.4-3.3,6.81,6.81,0,0,0-4.2-1.1h-2.7Z" transform="translate(0 0)"/><path class="a" d="M341.2,126.11v9.2h-2.4v-22.2h5.8c2.6,0,4.5.5,5.7,1.6a5.82,5.82,0,0,1,1.8,4.7,6,6,0,0,1-4.2,6l5.7,10h-2.9l-5.1-9.2h-4.4Zm0-2.2h3.3a5.74,5.74,0,0,0,3.8-1.1,4.16,4.16,0,0,0,1.2-3.3,3.94,3.94,0,0,0-1.2-3.2,6.52,6.52,0,0,0-3.9-1h-3.2v8.6Z" transform="translate(0 0)"/><path class="a" d="M370.1,135.31l-2.6-7.1h-8.4l-2.6,7.1H354l8.3-22.3h2.1l8.2,22.3Zm-3.3-9.4-2.4-6.9c-.3-.9-.6-1.9-1-3.2a26.56,26.56,0,0,1-.9,3.2l-2.5,6.9Z" transform="translate(0 0)"/><path class="a" d="M388.2,135.31H373.8v-2l11.1-17.9H374.2v-2.3H388v2L376.9,133h11.3Z" transform="translate(0 0)"/><path class="a" d="M404,135.31H392.3v-22.2H404v2.3h-9.3v7.2h8.7v2.3h-8.7v8.2H404Z" transform="translate(0 0)"/></svg>