<?xml version="1.0" encoding="utf-8"?>
<!-- Generator: Adobe Illustrator 19.0.0, SVG Export Plug-In . SVG Version: 6.00 Build 0)  -->
<svg version="1.1" id="Vrstva_1" xmlns="http://www.w3.org/2000/svg" xmlns:xlink="http://www.w3.org/1999/xlink" x="0px" y="0px"
	 viewBox="0 0 622.773 100.9" enable-background="new 0 0 622.773 100.9" xml:space="preserve">
<g>
	<path fill="#B52B33" d="M133.242,2.406c2.273-0.381,5.246-0.707,9.025-0.707c4.65,0,8.057,1.092,10.217,3.06
		c2,1.75,3.191,4.434,3.191,7.715c0,3.34-0.977,5.965-2.813,7.881c-2.486,2.68-6.539,4.049-11.133,4.049
		c-1.406,0-2.703-0.055-3.783-0.326v14.773h-4.705V2.406z M137.947,20.191c1.025,0.271,2.324,0.385,3.893,0.385
		c5.672,0,9.131-2.795,9.131-7.883c0-4.869-3.404-7.221-8.592-7.221c-2.055,0-3.621,0.164-4.432,0.381V20.191z"/>
	<path fill="#B52B33" d="M160.977,20.631c0-3.123-0.051-5.801-0.215-8.266h4.162l0.16,5.199h0.217
		c1.191-3.559,4.057-5.803,7.246-5.803c0.539,0,0.918,0.057,1.348,0.166v4.543c-0.484-0.108-0.973-0.164-1.621-0.164
		c-3.348,0-5.73,2.574-6.375,6.184c-0.109,0.656-0.219,1.422-0.219,2.244v14.117h-4.703V20.631z"/>
	<path fill="#B52B33" d="M201.789,25.391c0,9.795-6.699,14.062-13.025,14.062c-7.08,0-12.541-5.252-12.541-13.627
		c0-8.861,5.734-14.062,12.971-14.062C196.707,11.764,201.789,17.291,201.789,25.391 M181.035,25.662
		c0,5.801,3.297,10.182,7.945,10.182c4.541,0,7.943-4.324,7.943-10.289c0-4.488-2.213-10.178-7.836-10.178
		C183.465,15.377,181.035,20.631,181.035,25.662"/>
	<path fill="#B52B33" d="M209.258,12.365l5.135,14.887c0.861,2.406,1.568,4.596,2.107,6.783h0.16
		c0.594-2.187,1.352-4.377,2.217-6.783l5.08-14.887h4.973l-10.266,26.486h-4.541l-9.947-26.486H209.258z"/>
	<path fill="#B52B33" d="M256.555,25.391c0,9.795-6.701,14.062-13.023,14.062c-7.078,0-12.541-5.252-12.541-13.627
		c0-8.861,5.725-14.062,12.971-14.062C251.473,11.764,256.555,17.291,256.555,25.391 M235.801,25.662
		c0,5.801,3.297,10.182,7.943,10.182c4.541,0,7.943-4.324,7.943-10.289c0-4.488-2.211-10.178-7.832-10.178
		C238.23,15.377,235.801,20.631,235.801,25.662"/>
	<path fill="#B52B33" d="M259.211,36.061l11.84-15.596c1.133-1.42,2.213-2.68,3.402-4.104V16.25h-14.16v-3.885h19.943l-0.057,3.012
		l-11.67,15.375c-1.084,1.479-2.166,2.793-3.354,4.158v0.107h15.293v3.834h-21.238V36.061z"/>
	<path fill="#B52B33" d="M285.324,19.535c0-2.736-0.055-4.982-0.219-7.168h4.213l0.271,4.379h0.111
		c1.295-2.52,4.326-4.982,8.646-4.982c3.621,0,9.246,2.189,9.246,11.273v15.814h-4.758V23.586c0-4.269-1.57-7.826-6.055-7.826
		c-3.134,0-5.566,2.244-6.378,4.926c-0.219,0.602-0.324,1.422-0.324,2.242v15.924h-4.754V19.535z"/>
	<path fill="#B52B33" d="M317.974,26.482c0.111,6.514,4.217,9.193,8.973,9.193c3.408,0,5.459-0.6,7.24-1.365l0.809,3.445
		c-1.672,0.766-4.533,1.697-8.701,1.697c-8.049,0-12.861-5.42-12.861-13.406c0-7.99,4.652-14.283,12.273-14.283
		c8.539,0,10.809,7.607,10.809,12.477c0,0.986-0.109,1.752-0.164,2.242H317.974z M331.917,23.035
		c0.055-3.064-1.242-7.824-6.59-7.824c-4.813,0-6.922,4.488-7.301,7.824H331.917z M323.38,8.758l-5.193-7.826h3.682l3.184,5.197
		h0.115l3.188-5.197h3.563l-5.078,7.826H323.38z"/>
	<path fill="#B52B33" d="M356.519,26.482c0.113,6.514,4.217,9.193,8.971,9.193c3.41,0,5.463-0.6,7.246-1.365l0.807,3.445
		c-1.676,0.766-4.541,1.699-8.697,1.699c-8.053,0-12.869-5.42-12.869-13.406c0-7.99,4.656-14.287,12.271-14.287
		c8.545,0,10.811,7.609,10.811,12.476c0,0.988-0.109,1.754-0.168,2.244H356.519z M370.46,23.037c0.057-3.064-1.238-7.824-6.59-7.824
		c-4.809,0-6.922,4.484-7.299,7.824H370.46z"/>
	<path fill="#B52B33" d="M385.656,24.514h0.111c0.645-0.93,1.564-2.078,2.322-3.01l7.676-9.137h5.729L391.39,23.256l11.51,15.596
		h-5.783l-9.027-12.695l-2.434,2.736v9.959h-4.699V0h4.699V24.514z"/>
	<path fill="#B52B33" d="M429.984,25.391c0,9.795-6.701,14.062-13.023,14.062c-7.082,0-12.543-5.252-12.543-13.627
		c0-8.861,5.727-14.062,12.973-14.062C424.902,11.764,429.984,17.291,429.984,25.391 M409.228,25.662
		c0,5.801,3.297,10.182,7.947,10.182c4.539,0,7.943-4.324,7.943-10.289c0-4.488-2.213-10.178-7.836-10.178
		C411.664,15.377,409.228,20.631,409.228,25.662"/>
	<path fill="#B52B33" d="M435.99,19.535c0-2.736-0.051-4.982-0.215-7.168h4.217l0.271,4.379h0.111
		c1.289-2.52,4.318-4.982,8.643-4.982c3.615,0,9.242,2.189,9.242,11.273v15.814h-4.758V23.586c0-4.269-1.566-7.826-6.049-7.826
		c-3.141,0-5.57,2.244-6.387,4.926c-0.211,0.602-0.318,1.422-0.318,2.242v15.924h-4.758V19.535z"/>
	<path fill="#B52B33" d="M489.669,25.391c0,9.795-6.701,14.062-13.025,14.062c-7.08,0-12.541-5.252-12.541-13.627
		c0-8.861,5.734-14.062,12.977-14.062C484.591,11.764,489.669,17.291,489.669,25.391 M468.915,25.662
		c0,5.801,3.297,10.182,7.945,10.182c4.539,0,7.947-4.324,7.947-10.289c0-4.488-2.217-10.178-7.838-10.178
		C471.349,15.377,468.915,20.631,468.915,25.662"/>
	<path fill="#B52B33" d="M495.677,19.535c0-2.736-0.053-4.982-0.215-7.168h4.16l0.215,4.268h0.164
		c1.461-2.518,3.895-4.871,8.215-4.871c3.568,0,6.266,2.189,7.402,5.309h0.109c0.811-1.477,1.84-2.627,2.918-3.449
		c1.566-1.201,3.299-1.859,5.783-1.859c3.463,0,8.59,2.299,8.59,11.492v15.596h-4.644V23.859c0-5.09-1.836-8.156-5.674-8.156
		c-2.703,0-4.813,2.025-5.621,4.381c-0.219,0.654-0.379,1.531-0.379,2.406v16.361h-4.645V22.98c0-4.211-1.84-7.277-5.459-7.277
		c-2.978,0-5.135,2.408-5.892,4.816c-0.273,0.711-0.383,1.531-0.383,2.353v15.979h-4.645V19.535z"/>
	<path fill="#B52B33" d="M546.06,4.924c0.055,1.644-1.133,2.957-3.023,2.957c-1.676,0-2.865-1.313-2.865-2.957
		c0-1.695,1.246-3.008,2.971-3.008C544.927,1.916,546.06,3.228,546.06,4.924 M540.767,12.367h4.758v26.484h-4.758V12.367z"/>
	<path fill="#B52B33" d="M572.064,37.867c-1.246,0.656-4,1.586-7.516,1.586c-7.887,0-13.023-5.473-13.023-13.57
		c0-8.152,5.514-14.064,14.055-14.064c2.805,0,5.289,0.715,6.592,1.371l-1.078,3.719c-1.145-0.658-2.922-1.26-5.514-1.26
		c-6.004,0-9.244,4.488-9.244,10.014c0,6.129,3.889,9.906,9.08,9.906c2.699,0,4.484-0.713,5.838-1.314L572.064,37.867z"/>
	<path fill="#B52B33" d="M582.343,24.514h0.105c0.645-0.93,1.566-2.078,2.32-3.01l7.676-9.137h5.729l-10.102,10.889l11.51,15.596
		h-5.787l-9.025-12.695l-2.426,2.736v9.959h-4.709V0h4.709V24.514z"/>
	<path fill="#B52B33" d="M622.339,32.504c0,2.295,0.109,4.541,0.434,6.348h-4.326l-0.375-3.338h-0.164
		c-1.457,2.082-4.273,3.939-8.002,3.939c-5.297,0-7.998-3.775-7.998-7.605c0-6.402,5.621-9.904,15.73-9.85v-0.549
		c0-2.188-0.596-6.129-5.947-6.129c-2.43,0-4.971,0.767-6.811,1.967l-1.078-3.17c2.16-1.424,5.295-2.353,8.592-2.353
		c8.002,0,9.945,5.523,9.945,10.834V32.504z M617.744,25.336c-5.185-0.109-11.078,0.822-11.078,5.961
		c0,3.125,2.055,4.598,4.486,4.598c3.408,0,5.565-2.188,6.326-4.434c0.16-0.488,0.266-1.035,0.266-1.529V25.336z M620.125,0.93
		l-6.594,7.826h-3.406l4.756-7.826H620.125z"/>
	<path fill="#B52B33" d="M133.566,89.523v-22.82h-3.672v-3.666h3.672v-1.258c0-3.719,0.813-7.111,3.031-9.248
		c1.779-1.752,4.16-2.461,6.377-2.461c1.678,0,3.133,0.381,4.053,0.766l-0.65,3.721c-0.701-0.326-1.674-0.604-3.025-0.604
		c-4.055,0-5.08,3.615-5.08,7.662v1.422h6.318v3.666h-6.318v22.82H133.566z"/>
	<path fill="#B52B33" d="M167.244,83.178c0,2.295,0.107,4.539,0.434,6.346h-4.322l-0.379-3.338h-0.164
		c-1.459,2.08-4.27,3.939-8,3.939c-5.299,0-8-3.775-8-7.605c0-6.402,5.621-9.904,15.73-9.85v-0.549c0-2.188-0.594-6.129-5.943-6.129
		c-2.434,0-4.975,0.768-6.814,1.971l-1.078-3.176c2.16-1.42,5.297-2.352,8.59-2.352c8,0,9.947,5.527,9.947,10.836V83.178z
		 M162.652,76.006c-5.191-0.109-11.082,0.824-11.082,5.963c0,3.121,2.059,4.598,4.488,4.598c3.402,0,5.566-2.188,6.32-4.432
		c0.164-0.492,0.273-1.039,0.273-1.531V76.006z"/>
	<path fill="#B52B33" d="M179.627,75.188h0.109c0.648-0.932,1.566-2.08,2.324-3.01l7.672-9.141h5.73l-10.107,10.895l11.514,15.59
		h-5.779l-9.029-12.695l-2.434,2.738v9.957h-4.701v-38.85h4.701V75.188z"/>
	<path fill="#B52B33" d="M222.385,82.301c0,2.734,0.053,5.143,0.217,7.221h-4.213l-0.271-4.324h-0.109
		c-1.242,2.137-4,4.926-8.645,4.926c-4.109,0-9.027-2.295-9.027-11.602V63.037h4.754v14.668c0,5.033,1.512,8.426,5.836,8.426
		c3.191,0,5.41-2.246,6.273-4.379c0.27-0.707,0.432-1.586,0.432-2.463V63.037h4.754V82.301z"/>
</g>
<rect x="230.285" y="50.67" fill="#B52B33" width="4.754" height="38.85"/>
<g>
	<path fill="#B52B33" d="M248.773,56.689v6.348h6.807v3.666h-6.807v14.283c0,3.283,0.918,5.143,3.568,5.143
		c1.295,0,2.053-0.107,2.752-0.326l0.219,3.609c-0.918,0.383-2.377,0.713-4.217,0.713c-2.213,0-4-0.766-5.135-2.08
		c-1.352-1.422-1.836-3.775-1.836-6.895V66.703h-4.055v-3.666h4.055V58.17L248.773,56.689z"/>
	<path fill="#B52B33" d="M279.316,83.178c0,2.295,0.109,4.539,0.432,6.346h-4.326l-0.379-3.338h-0.16
		c-1.459,2.08-4.271,3.939-8,3.939c-5.297,0-8-3.775-8-7.605c0-6.402,5.619-9.904,15.729-9.85v-0.549
		c0-2.188-0.594-6.129-5.943-6.129c-2.434,0-4.975,0.768-6.813,1.971l-1.08-3.176c2.16-1.42,5.295-2.352,8.592-2.352
		c8,0,9.949,5.527,9.949,10.836V83.178z M274.723,76.006c-5.193-0.109-11.082,0.824-11.082,5.963c0,3.121,2.051,4.598,4.484,4.598
		c3.406,0,5.57-2.188,6.324-4.432c0.162-0.492,0.273-1.039,0.273-1.531V76.006z"/>
	<path fill="#B52B33" d="M85.559,16.976c0,0-5.707-0.449-8.129,1.01c0,0,5.338-0.334,11.34,3.168v-4.236
		C88.162,16.947,86.715,17.012,85.559,16.976"/>
	<path fill="#B52B33" d="M25.807,19.232c0,0,2.104-0.693,3.807-1.051c0,0-1.127-0.551-5.441-0.59c0,0-5.656,0.447-13.254-1.391
		c0,0,2.277,5.135,2.176,9.57c3.363-3.392,7.777-5.748,12.711-6.535L25.807,19.232z"/>
	<path fill="#B52B33" d="M24.17,41.813c0,2.936,2.379,5.316,5.318,5.316c2.934,0,5.314-2.381,5.314-5.316
		c0-2.936-2.381-5.317-5.314-5.317C26.549,36.496,24.17,38.877,24.17,41.813"/>
	<path fill="#B52B33" d="M19.816,32.027c1.193-1.174,2.598-2.127,4.152-2.807l-2.541-6.238c-2.391,1.023-4.545,2.488-6.369,4.287
		L19.816,32.027z"/>
	<path fill="#B52B33" d="M16.762,36.537c0.637-1.527,1.551-2.908,2.668-4.096l-4.766-4.768c-1.736,1.809-3.148,3.932-4.135,6.275
		L16.762,36.537z"/>
	<path fill="#B52B33" d="M24.492,29.012c1.484-0.576,3.086-0.906,4.766-0.934V21.33c-2.578,0.035-5.041,0.545-7.307,1.441
		L24.492,29.012z"/>
	<path fill="#B52B33" d="M35.172,29.309c1.508,0.686,2.875,1.621,4.031,2.775l4.818-4.816c-1.791-1.767-3.91-3.209-6.25-4.23
		L35.172,29.309z"/>
	<path fill="#B52B33" d="M44.418,27.674l-4.828,4.828c1.068,1.158,1.953,2.488,2.578,3.961l6.307-2.688
		C47.492,31.5,46.109,29.438,44.418,27.674"/>
	<path fill="#B52B33" d="M29.824,28.086c1.703,0.043,3.332,0.387,4.832,0.996l2.594-6.262c-2.299-0.928-4.803-1.455-7.426-1.49
		V28.086z"/>
	<path fill="#B52B33" d="M16.805,47.266c-0.637-1.492-1.006-3.125-1.078-4.834H8.934c0.063,2.658,0.621,5.191,1.598,7.508
		L16.805,47.266z"/>
	<path fill="#B52B33" d="M15.699,41.867c0-0.006,0-0.012,0-0.016c0-1.684,0.316-3.291,0.867-4.781l-6.246-2.594
		c-0.893,2.295-1.387,4.785-1.398,7.391H15.699z"/>
	<path fill="#B52B33" d="M41.982,47.623c-0.668,1.447-1.574,2.764-2.682,3.891l4.914,4.91c1.738-1.764,3.164-3.844,4.18-6.139
		L41.982,47.623z"/>
	<path fill="#B52B33" d="M43.234,42.432c-0.07,1.65-0.416,3.227-1.016,4.676l6.398,2.656c0.934-2.268,1.469-4.74,1.529-7.332H43.234
		z"/>
	<path fill="#B52B33" d="M42.367,36.996c0.566,1.512,0.895,3.145,0.895,4.854v0.017h6.895c-0.01-2.674-0.531-5.221-1.465-7.564
		L42.367,36.996z"/>
	<path fill="#B52B33" d="M38.891,51.9c-1.164,1.092-2.512,1.992-4.004,2.629l2.623,6.433c2.354-0.986,4.482-2.402,6.299-4.145
		L38.891,51.9z"/>
	<path fill="#B52B33" d="M29.258,55.623c-1.629-0.027-3.187-0.34-4.631-0.887l-2.648,6.389c2.258,0.891,4.709,1.396,7.279,1.428
		V55.623z"/>
	<path fill="#B52B33" d="M24.094,54.539c-1.473-0.625-2.805-1.51-3.963-2.584l-4.859,4.863c1.783,1.713,3.873,3.107,6.182,4.096
		L24.094,54.539z"/>
	<path fill="#B52B33" d="M19.715,51.576c-1.094-1.098-1.988-2.385-2.664-3.801l-6.289,2.678c1.012,2.23,2.406,4.25,4.106,5.971
		L19.715,51.576z"/>
	<path fill="#B52B33" d="M34.359,54.729c-1.418,0.535-2.943,0.848-4.537,0.887v6.939c2.522-0.035,4.936-0.52,7.158-1.383
		L34.359,54.729z"/>
	<path fill="#B52B33" d="M72.479,41.889c0,2.936,2.381,5.318,5.318,5.318c2.934,0,5.316-2.383,5.316-5.318
		c0-2.936-2.383-5.316-5.316-5.316C74.859,36.572,72.479,38.953,72.479,41.889"/>
	<path fill="#B52B33" d="M68.127,32.104c1.191-1.172,2.596-2.127,4.15-2.809l-2.541-6.236c-2.389,1.024-4.545,2.486-6.369,4.287
		L68.127,32.104z"/>
	<path fill="#B52B33" d="M65.07,36.613c0.637-1.527,1.553-2.908,2.668-4.098l-4.766-4.766c-1.734,1.809-3.148,3.932-4.137,6.275
		L65.07,36.613z"/>
	<path fill="#B52B33" d="M72.801,29.088c1.482-0.576,3.086-0.908,4.766-0.933v-6.748c-2.578,0.035-5.041,0.545-7.309,1.439
		L72.801,29.088z"/>
	<path fill="#B52B33" d="M83.479,29.385c1.508,0.684,2.877,1.623,4.033,2.775l4.816-4.816c-1.793-1.77-3.906-3.209-6.246-4.232
		L83.479,29.385z"/>
	<path fill="#B52B33" d="M92.723,27.748l-4.828,4.828c1.07,1.158,1.955,2.488,2.586,3.963l6.305-2.686
		C95.801,31.576,94.418,29.514,92.723,27.748"/>
	<path fill="#B52B33" d="M78.131,28.16c1.705,0.043,3.334,0.391,4.83,0.996l2.598-6.26c-2.301-0.93-4.805-1.453-7.428-1.49V28.16z"
		/>
	<path fill="#B52B33" d="M65.113,47.342c-0.641-1.492-1.008-3.123-1.08-4.834h-6.791c0.063,2.656,0.621,5.188,1.596,7.508
		L65.113,47.342z"/>
	<path fill="#B52B33" d="M64.006,41.941c0-0.006,0-0.01,0-0.016c0-1.684,0.316-3.287,0.869-4.779l-6.246-2.592
		c-0.893,2.293-1.389,4.781-1.396,7.387H64.006z"/>
	<path fill="#B52B33" d="M90.291,47.697c-0.67,1.449-1.572,2.766-2.68,3.889l4.912,4.912c1.74-1.764,3.162-3.842,4.18-6.139
		L90.291,47.697z"/>
	<path fill="#B52B33" d="M91.539,42.508c-0.066,1.646-0.414,3.226-1.012,4.676l6.398,2.658c0.934-2.271,1.469-4.742,1.527-7.334
		H91.539z"/>
	<path fill="#B52B33" d="M90.674,37.07c0.57,1.51,0.897,3.142,0.897,4.857c0,0.004,0,0.01,0,0.016h6.894
		c-0.008-2.672-0.531-5.225-1.467-7.566L90.674,37.07z"/>
	<path fill="#B52B33" d="M87.197,51.977c-1.164,1.09-2.51,1.992-4,2.629l2.619,6.434c2.355-0.988,4.486-2.402,6.301-4.145
		L87.197,51.977z"/>
	<path fill="#B52B33" d="M77.566,55.697c-1.629-0.025-3.188-0.34-4.633-0.885l-2.645,6.389c2.258,0.891,4.707,1.395,7.277,1.43
		V55.697z"/>
	<path fill="#B52B33" d="M72.406,54.615c-1.477-0.625-2.809-1.51-3.965-2.584l-4.863,4.865c1.785,1.711,3.875,3.105,6.18,4.092
		L72.406,54.615z"/>
	<path fill="#B52B33" d="M68.023,51.65c-1.094-1.096-1.99-2.383-2.664-3.797l-6.289,2.678c1.012,2.23,2.406,4.246,4.102,5.965
		L68.023,51.65z"/>
	<path fill="#B52B33" d="M82.666,54.805c-1.418,0.537-2.941,0.848-4.535,0.887v6.939c2.524-0.035,4.934-0.523,7.158-1.383
		L82.666,54.805z"/>
	<path fill="#B52B33" d="M56.994,52.033c-1.283-2.631-2.1-5.531-2.295-8.607h-2.19c-0.185,3.072-0.986,5.975-2.258,8.607H56.994z"/>
	<path fill="#B52B33" d="M59.473,56.047H47.779c-0.279,0.367-0.563,0.733-0.865,1.082l6.633,10.16l7.188-9.74
		C60.293,57.068,59.873,56.566,59.473,56.047"/>
	<path fill="#B52B33" d="M53.949,94.285c0,0-5.109-14.295-22.123-21.326c0,0,15.24,2.719,21.443,15.301
		c0,0,6.242-10.73,17.387-15.101C70.656,73.158,58.844,79.342,53.949,94.285 M77.723,65.02c-5.25,0-10.084-1.758-13.961-4.707
		L53.367,74.4l-9.441-14.392c-3.955,3.18-8.977,5.086-14.445,5.086c-12.746,0-23.078-10.33-23.078-23.074
		c0-4.955,1.568-9.543,4.228-13.307c0.197-2.574,0.229-10.031-5.148-16.242c0,0,10.553,2.836,16.225,2.719
		c0,0,8.625-0.518,12.813,2.301c1.848-0.525,10.852-2.883,21.926-2.496c0,0,9.121,0.215,16.434,2.289
		c0.977-0.684,4.762-2.979,11.6-2.785c0,0,2.664,0.158,4.283-0.068c-0.094-7.045-5.828-12.73-12.895-12.73H12.902
		C5.777,1.699,0,7.478,0,14.605v62.959c0,7.127,5.777,12.902,12.902,12.902h36.871c0.055,0.086,2.922,4.68,4.529,10.434
		c0,0,1.074-6.439,3.299-10.414l-0.004-0.02h18.27c7.125,0,12.902-5.775,12.902-12.902V62.207C85.488,64,81.725,65.02,77.723,65.02"
		/>
	<path fill="#B52B33" d="M101.59,12.502c0,0-4.902,5.504-3.959,17.606c0,0-1.023-2.113-2.557-3.574c0,0,0.156-6.578,1.887-10.557
		c0,0-3.148,0.742-8.189,0.941l-0.01-2.488C88.762,14.43,96.41,14.303,101.59,12.502"/>
	<path fill="#B52B33" d="M36.375,19.502c0,0,16.039-4.666,35.902,0c0,0-12.273,2.066-18.359,14.178
		C53.918,33.68,49.193,22.664,36.375,19.502"/>
</g>
<g>
</g>
<g>
</g>
<g>
</g>
<g>
</g>
<g>
</g>
<g>
</g>
</svg>
