<?xml version="1.0" encoding="utf-8"?>
<!-- Generator: Adobe Illustrator 23.0.6, SVG Export Plug-In . SVG Version: 6.00 Build 0)  -->
<svg version="1.1" id="Vrstva_1" xmlns="http://www.w3.org/2000/svg" xmlns:xlink="http://www.w3.org/1999/xlink" x="0px" y="0px"
	 viewBox="0 0 622.8 100.9" style="enable-background:new 0 0 622.8 100.9;" xml:space="preserve">
<style type="text/css">
	.st0{fill:#595959;}
</style>
<g>
	<path class="st0" d="M133.2,2.4c2.3-0.4,5.2-0.7,9-0.7c4.6,0,8.1,1.1,10.2,3.1c2,1.8,3.2,4.4,3.2,7.7c0,3.3-1,6-2.8,7.9
		c-2.5,2.7-6.5,4-11.1,4c-1.4,0-2.7-0.1-3.8-0.3v14.8h-4.7L133.2,2.4L133.2,2.4z M137.9,20.2c1,0.3,2.3,0.4,3.9,0.4
		c5.7,0,9.1-2.8,9.1-7.9c0-4.9-3.4-7.2-8.6-7.2c-2.1,0-3.6,0.2-4.4,0.4V20.2z"/>
	<path class="st0" d="M161,20.6c0-3.1-0.1-5.8-0.2-8.3h4.2l0.2,5.2h0.2c1.2-3.6,4.1-5.8,7.2-5.8c0.5,0,0.9,0.1,1.3,0.2v4.5
		c-0.5-0.1-1-0.2-1.6-0.2c-3.3,0-5.7,2.6-6.4,6.2c-0.1,0.7-0.2,1.4-0.2,2.2v14.1H161L161,20.6L161,20.6z"/>
	<path class="st0" d="M201.8,25.4c0,9.8-6.7,14.1-13,14.1c-7.1,0-12.5-5.3-12.5-13.6c0-8.9,5.7-14.1,13-14.1
		C196.7,11.8,201.8,17.3,201.8,25.4 M181,25.7c0,5.8,3.3,10.2,7.9,10.2c4.5,0,7.9-4.3,7.9-10.3c0-4.5-2.2-10.2-7.8-10.2
		C183.5,15.4,181,20.6,181,25.7"/>
	<path class="st0" d="M209.3,12.4l5.1,14.9c0.9,2.4,1.6,4.6,2.1,6.8h0.2c0.6-2.2,1.4-4.4,2.2-6.8l5.1-14.9h5l-10.3,26.5h-4.5
		l-9.9-26.5C204.2,12.4,209.3,12.4,209.3,12.4z"/>
	<path class="st0" d="M256.6,25.4c0,9.8-6.7,14.1-13,14.1c-7.1,0-12.5-5.3-12.5-13.6c0-8.9,5.7-14.1,13-14.1
		C251.5,11.8,256.6,17.3,256.6,25.4 M235.8,25.7c0,5.8,3.3,10.2,7.9,10.2c4.5,0,7.9-4.3,7.9-10.3c0-4.5-2.2-10.2-7.8-10.2
		C238.2,15.4,235.8,20.6,235.8,25.7"/>
	<path class="st0" d="M259.2,36.1l11.8-15.6c1.1-1.4,2.2-2.7,3.4-4.1v-0.1h-14.2v-3.9h19.9l-0.1,3l-11.7,15.4
		c-1.1,1.5-2.2,2.8-3.4,4.2V35h15.3v3.8h-21.2L259.2,36.1L259.2,36.1z"/>
	<path class="st0" d="M285.3,19.5c0-2.7-0.1-5-0.2-7.2h4.2l0.3,4.4h0.1c1.3-2.5,4.3-5,8.6-5c3.6,0,9.2,2.2,9.2,11.3v15.8h-4.8V23.6
		c0-4.3-1.6-7.8-6.1-7.8c-3.1,0-5.6,2.2-6.4,4.9c-0.2,0.6-0.3,1.4-0.3,2.2v15.9h-4.8L285.3,19.5L285.3,19.5z"/>
	<path class="st0" d="M318,26.5c0.1,6.5,4.2,9.2,9,9.2c3.4,0,5.5-0.6,7.2-1.4l0.8,3.4c-1.7,0.8-4.5,1.7-8.7,1.7
		c-8,0-12.9-5.4-12.9-13.4c0-8,4.7-14.3,12.3-14.3c8.5,0,10.8,7.6,10.8,12.5c0,1-0.1,1.8-0.2,2.2C336.4,26.5,318,26.5,318,26.5z
		 M331.9,23c0.1-3.1-1.2-7.8-6.6-7.8c-4.8,0-6.9,4.5-7.3,7.8H331.9z M323.4,8.8l-5.2-7.8h3.7l3.2,5.2h0.1l3.2-5.2h3.6l-5.1,7.8
		H323.4z"/>
	<path class="st0" d="M356.5,26.5c0.1,6.5,4.2,9.2,9,9.2c3.4,0,5.5-0.6,7.2-1.4l0.8,3.4c-1.7,0.8-4.5,1.7-8.7,1.7
		C356.8,39.5,352,34,352,26c0-8,4.7-14.3,12.3-14.3c8.5,0,10.8,7.6,10.8,12.5c0,1-0.1,1.8-0.2,2.2L356.5,26.5L356.5,26.5z M370.5,23
		c0.1-3.1-1.2-7.8-6.6-7.8c-4.8,0-6.9,4.5-7.3,7.8H370.5z"/>
	<path class="st0" d="M385.7,24.5h0.1c0.6-0.9,1.6-2.1,2.3-3l7.7-9.1h5.7l-10.1,10.9l11.5,15.6h-5.8l-9-12.7l-2.4,2.7v10H381V0h4.7
		L385.7,24.5L385.7,24.5z"/>
	<path class="st0" d="M430,25.4c0,9.8-6.7,14.1-13,14.1c-7.1,0-12.5-5.3-12.5-13.6c0-8.9,5.7-14.1,13-14.1
		C424.9,11.8,430,17.3,430,25.4 M409.2,25.7c0,5.8,3.3,10.2,7.9,10.2c4.5,0,7.9-4.3,7.9-10.3c0-4.5-2.2-10.2-7.8-10.2
		C411.7,15.4,409.2,20.6,409.2,25.7"/>
	<path class="st0" d="M436,19.5c0-2.7-0.1-5-0.2-7.2h4.2l0.3,4.4h0.1c1.3-2.5,4.3-5,8.6-5c3.6,0,9.2,2.2,9.2,11.3v15.8h-4.8V23.6
		c0-4.3-1.6-7.8-6-7.8c-3.1,0-5.6,2.2-6.4,4.9c-0.2,0.6-0.3,1.4-0.3,2.2v15.9H436L436,19.5L436,19.5z"/>
	<path class="st0" d="M489.7,25.4c0,9.8-6.7,14.1-13,14.1c-7.1,0-12.5-5.3-12.5-13.6c0-8.9,5.7-14.1,13-14.1
		C484.6,11.8,489.7,17.3,489.7,25.4 M468.9,25.7c0,5.8,3.3,10.2,7.9,10.2c4.5,0,7.9-4.3,7.9-10.3c0-4.5-2.2-10.2-7.8-10.2
		C471.3,15.4,468.9,20.6,468.9,25.7"/>
	<path class="st0" d="M495.7,19.5c0-2.7-0.1-5-0.2-7.2h4.2l0.2,4.3h0.2c1.5-2.5,3.9-4.9,8.2-4.9c3.6,0,6.3,2.2,7.4,5.3h0.1
		c0.8-1.5,1.8-2.6,2.9-3.4c1.6-1.2,3.3-1.9,5.8-1.9c3.5,0,8.6,2.3,8.6,11.5v15.6h-4.6v-15c0-5.1-1.8-8.2-5.7-8.2
		c-2.7,0-4.8,2-5.6,4.4c-0.2,0.7-0.4,1.5-0.4,2.4v16.4h-4.6V23c0-4.2-1.8-7.3-5.5-7.3c-3,0-5.1,2.4-5.9,4.8
		c-0.3,0.7-0.4,1.5-0.4,2.4v16h-4.6L495.7,19.5L495.7,19.5z"/>
	<path class="st0" d="M546.1,4.9c0.1,1.6-1.1,3-3,3c-1.7,0-2.9-1.3-2.9-3c0-1.7,1.2-3,3-3C544.9,1.9,546.1,3.2,546.1,4.9
		 M540.8,12.4h4.8v26.5h-4.8V12.4z"/>
	<path class="st0" d="M572.1,37.9c-1.2,0.7-4,1.6-7.5,1.6c-7.9,0-13-5.5-13-13.6c0-8.2,5.5-14.1,14.1-14.1c2.8,0,5.3,0.7,6.6,1.4
		l-1.1,3.7c-1.1-0.7-2.9-1.3-5.5-1.3c-6,0-9.2,4.5-9.2,10c0,6.1,3.9,9.9,9.1,9.9c2.7,0,4.5-0.7,5.8-1.3L572.1,37.9z"/>
	<path class="st0" d="M582.3,24.5h0.1c0.6-0.9,1.6-2.1,2.3-3l7.7-9.1h5.7l-10.1,10.9l11.5,15.6h-5.8l-9-12.7l-2.4,2.7v10h-4.7V0h4.7
		V24.5z"/>
	<path class="st0" d="M622.3,32.5c0,2.3,0.1,4.5,0.4,6.3h-4.3l-0.4-3.3h-0.2c-1.5,2.1-4.3,3.9-8,3.9c-5.3,0-8-3.8-8-7.6
		c0-6.4,5.6-9.9,15.7-9.9v-0.5c0-2.2-0.6-6.1-5.9-6.1c-2.4,0-5,0.8-6.8,2l-1.1-3.2c2.2-1.4,5.3-2.4,8.6-2.4c8,0,9.9,5.5,9.9,10.8
		V32.5z M617.7,25.3c-5.2-0.1-11.1,0.8-11.1,6c0,3.1,2.1,4.6,4.5,4.6c3.4,0,5.6-2.2,6.3-4.4c0.2-0.5,0.3-1,0.3-1.5V25.3z M620.1,0.9
		l-6.6,7.8h-3.4l4.8-7.8C614.9,0.9,620.1,0.9,620.1,0.9z"/>
	<path class="st0" d="M133.6,89.5V66.7h-3.7V63h3.7v-1.3c0-3.7,0.8-7.1,3-9.2c1.8-1.8,4.2-2.5,6.4-2.5c1.7,0,3.1,0.4,4.1,0.8
		l-0.6,3.7c-0.7-0.3-1.7-0.6-3-0.6c-4.1,0-5.1,3.6-5.1,7.7V63h6.3v3.7h-6.3v22.8H133.6z"/>
	<path class="st0" d="M167.2,83.2c0,2.3,0.1,4.5,0.4,6.3h-4.3l-0.4-3.3h-0.2c-1.5,2.1-4.3,3.9-8,3.9c-5.3,0-8-3.8-8-7.6
		c0-6.4,5.6-9.9,15.7-9.8v-0.5c0-2.2-0.6-6.1-5.9-6.1c-2.4,0-5,0.8-6.8,2l-1.1-3.2c2.2-1.4,5.3-2.4,8.6-2.4c8,0,9.9,5.5,9.9,10.8
		L167.2,83.2L167.2,83.2z M162.7,76c-5.2-0.1-11.1,0.8-11.1,6c0,3.1,2.1,4.6,4.5,4.6c3.4,0,5.6-2.2,6.3-4.4c0.2-0.5,0.3-1,0.3-1.5
		L162.7,76L162.7,76z"/>
	<path class="st0" d="M179.6,75.2h0.1c0.6-0.9,1.6-2.1,2.3-3l7.7-9.1h5.7l-10.1,10.9l11.5,15.6h-5.8l-9-12.7l-2.4,2.7v10h-4.7V50.7
		h4.7L179.6,75.2L179.6,75.2z"/>
	<path class="st0" d="M222.4,82.3c0,2.7,0.1,5.1,0.2,7.2h-4.2l-0.3-4.3H218c-1.2,2.1-4,4.9-8.6,4.9c-4.1,0-9-2.3-9-11.6V63h4.8v14.7
		c0,5,1.5,8.4,5.8,8.4c3.2,0,5.4-2.2,6.3-4.4c0.3-0.7,0.4-1.6,0.4-2.5V63h4.8L222.4,82.3L222.4,82.3z"/>
</g>
<rect x="230.3" y="50.7" class="st0" width="4.8" height="38.8"/>
<g>
	<path class="st0" d="M248.8,56.7V63h6.8v3.7h-6.8V81c0,3.3,0.9,5.1,3.6,5.1c1.3,0,2.1-0.1,2.8-0.3l0.2,3.6
		c-0.9,0.4-2.4,0.7-4.2,0.7c-2.2,0-4-0.8-5.1-2.1c-1.4-1.4-1.8-3.8-1.8-6.9V66.7h-4.1V63h4.1v-4.9L248.8,56.7z"/>
	<path class="st0" d="M279.3,83.2c0,2.3,0.1,4.5,0.4,6.3h-4.3l-0.4-3.3h-0.2c-1.5,2.1-4.3,3.9-8,3.9c-5.3,0-8-3.8-8-7.6
		c0-6.4,5.6-9.9,15.7-9.8v-0.5c0-2.2-0.6-6.1-5.9-6.1c-2.4,0-5,0.8-6.8,2l-1.1-3.2c2.2-1.4,5.3-2.4,8.6-2.4c8,0,9.9,5.5,9.9,10.8
		L279.3,83.2L279.3,83.2z M274.7,76c-5.2-0.1-11.1,0.8-11.1,6c0,3.1,2.1,4.6,4.5,4.6c3.4,0,5.6-2.2,6.3-4.4c0.2-0.5,0.3-1,0.3-1.5
		L274.7,76L274.7,76z"/>
	<path class="st0" d="M85.6,17c0,0-5.7-0.4-8.1,1c0,0,5.3-0.3,11.3,3.2v-4.2C88.2,16.9,86.7,17,85.6,17"/>
	<path class="st0" d="M25.8,19.2c0,0,2.1-0.7,3.8-1.1c0,0-1.1-0.6-5.4-0.6c0,0-5.7,0.4-13.3-1.4c0,0,2.3,5.1,2.2,9.6
		C16.5,22.4,20.9,20,25.8,19.2L25.8,19.2z"/>
	<path class="st0" d="M24.2,41.8c0,2.9,2.4,5.3,5.3,5.3c2.9,0,5.3-2.4,5.3-5.3c0-2.9-2.4-5.3-5.3-5.3C26.5,36.5,24.2,38.9,24.2,41.8
		"/>
	<path class="st0" d="M19.8,32c1.2-1.2,2.6-2.1,4.2-2.8L21.4,23c-2.4,1-4.5,2.5-6.4,4.3L19.8,32z"/>
	<path class="st0" d="M16.8,36.5c0.6-1.5,1.6-2.9,2.7-4.1l-4.8-4.8c-1.7,1.8-3.1,3.9-4.1,6.3L16.8,36.5z"/>
	<path class="st0" d="M24.5,29c1.5-0.6,3.1-0.9,4.8-0.9v-6.7c-2.6,0-5,0.5-7.3,1.4L24.5,29z"/>
	<path class="st0" d="M35.2,29.3c1.5,0.7,2.9,1.6,4,2.8l4.8-4.8c-1.8-1.8-3.9-3.2-6.3-4.2L35.2,29.3z"/>
	<path class="st0" d="M44.4,27.7l-4.8,4.8c1.1,1.2,2,2.5,2.6,4l6.3-2.7C47.5,31.5,46.1,29.4,44.4,27.7"/>
	<path class="st0" d="M29.8,28.1c1.7,0,3.3,0.4,4.8,1l2.6-6.3c-2.3-0.9-4.8-1.5-7.4-1.5V28.1z"/>
	<path class="st0" d="M16.8,47.3c-0.6-1.5-1-3.1-1.1-4.8H8.9c0.1,2.7,0.6,5.2,1.6,7.5L16.8,47.3z"/>
	<path class="st0" d="M15.7,41.9C15.7,41.9,15.7,41.9,15.7,41.9c0-1.7,0.3-3.3,0.9-4.8l-6.2-2.6c-0.9,2.3-1.4,4.8-1.4,7.4
		C8.9,41.9,15.7,41.9,15.7,41.9z"/>
	<path class="st0" d="M42,47.6c-0.7,1.4-1.6,2.8-2.7,3.9l4.9,4.9c1.7-1.8,3.2-3.8,4.2-6.1L42,47.6z"/>
	<path class="st0" d="M43.2,42.4c-0.1,1.7-0.4,3.2-1,4.7l6.4,2.7c0.9-2.3,1.5-4.7,1.5-7.3C50.1,42.4,43.2,42.4,43.2,42.4z"/>
	<path class="st0" d="M42.4,37c0.6,1.5,0.9,3.1,0.9,4.9v0h6.9c0-2.7-0.5-5.2-1.5-7.6L42.4,37z"/>
	<path class="st0" d="M38.9,51.9c-1.2,1.1-2.5,2-4,2.6l2.6,6.4c2.4-1,4.5-2.4,6.3-4.1L38.9,51.9z"/>
	<path class="st0" d="M29.3,55.6c-1.6,0-3.2-0.3-4.6-0.9L22,61.1c2.3,0.9,4.7,1.4,7.3,1.4C29.3,62.6,29.3,55.6,29.3,55.6z"/>
	<path class="st0" d="M24.1,54.5c-1.5-0.6-2.8-1.5-4-2.6l-4.9,4.9c1.8,1.7,3.9,3.1,6.2,4.1L24.1,54.5z"/>
	<path class="st0" d="M19.7,51.6c-1.1-1.1-2-2.4-2.7-3.8l-6.3,2.7c1,2.2,2.4,4.3,4.1,6L19.7,51.6z"/>
	<path class="st0" d="M34.4,54.7c-1.4,0.5-2.9,0.8-4.5,0.9v6.9c2.5,0,4.9-0.5,7.2-1.4L34.4,54.7z"/>
	<path class="st0" d="M72.5,41.9c0,2.9,2.4,5.3,5.3,5.3c2.9,0,5.3-2.4,5.3-5.3c0-2.9-2.4-5.3-5.3-5.3C74.9,36.6,72.5,39,72.5,41.9"
		/>
	<path class="st0" d="M68.1,32.1c1.2-1.2,2.6-2.1,4.2-2.8l-2.5-6.2c-2.4,1-4.5,2.5-6.4,4.3L68.1,32.1z"/>
	<path class="st0" d="M65.1,36.6c0.6-1.5,1.6-2.9,2.7-4.1L63,27.7c-1.7,1.8-3.1,3.9-4.1,6.3L65.1,36.6z"/>
	<path class="st0" d="M72.8,29.1c1.5-0.6,3.1-0.9,4.8-0.9v-6.7c-2.6,0-5,0.5-7.3,1.4L72.8,29.1z"/>
	<path class="st0" d="M83.5,29.4c1.5,0.7,2.9,1.6,4,2.8l4.8-4.8c-1.8-1.8-3.9-3.2-6.2-4.2L83.5,29.4z"/>
	<path class="st0" d="M92.7,27.7l-4.8,4.8c1.1,1.2,2,2.5,2.6,4l6.3-2.7C95.8,31.6,94.4,29.5,92.7,27.7"/>
	<path class="st0" d="M78.1,28.2c1.7,0,3.3,0.4,4.8,1l2.6-6.3c-2.3-0.9-4.8-1.5-7.4-1.5V28.2z"/>
	<path class="st0" d="M65.1,47.3c-0.6-1.5-1-3.1-1.1-4.8h-6.8c0.1,2.7,0.6,5.2,1.6,7.5L65.1,47.3z"/>
	<path class="st0" d="M64,41.9C64,41.9,64,41.9,64,41.9c0-1.7,0.3-3.3,0.9-4.8l-6.2-2.6c-0.9,2.3-1.4,4.8-1.4,7.4
		C57.2,41.9,64,41.9,64,41.9z"/>
	<path class="st0" d="M90.3,47.7c-0.7,1.4-1.6,2.8-2.7,3.9l4.9,4.9c1.7-1.8,3.2-3.8,4.2-6.1L90.3,47.7z"/>
	<path class="st0" d="M91.5,42.5c-0.1,1.6-0.4,3.2-1,4.7l6.4,2.7c0.9-2.3,1.5-4.7,1.5-7.3H91.5z"/>
	<path class="st0" d="M90.7,37.1c0.6,1.5,0.9,3.1,0.9,4.9c0,0,0,0,0,0h6.9c0-2.7-0.5-5.2-1.5-7.6L90.7,37.1z"/>
	<path class="st0" d="M87.2,52c-1.2,1.1-2.5,2-4,2.6l2.6,6.4c2.4-1,4.5-2.4,6.3-4.1L87.2,52z"/>
	<path class="st0" d="M77.6,55.7c-1.6,0-3.2-0.3-4.6-0.9l-2.6,6.4c2.3,0.9,4.7,1.4,7.3,1.4L77.6,55.7L77.6,55.7z"/>
	<path class="st0" d="M72.4,54.6c-1.5-0.6-2.8-1.5-4-2.6l-4.9,4.9c1.8,1.7,3.9,3.1,6.2,4.1L72.4,54.6z"/>
	<path class="st0" d="M68,51.6c-1.1-1.1-2-2.4-2.7-3.8l-6.3,2.7c1,2.2,2.4,4.2,4.1,6L68,51.6z"/>
	<path class="st0" d="M82.7,54.8c-1.4,0.5-2.9,0.8-4.5,0.9v6.9c2.5,0,4.9-0.5,7.2-1.4L82.7,54.8z"/>
	<path class="st0" d="M57,52c-1.3-2.6-2.1-5.5-2.3-8.6h-2.2c-0.2,3.1-1,6-2.3,8.6C50.3,52,57,52,57,52z"/>
	<path class="st0" d="M59.5,56H47.8c-0.3,0.4-0.6,0.7-0.9,1.1l6.6,10.2l7.2-9.7C60.3,57.1,59.9,56.6,59.5,56"/>
	<path class="st0" d="M53.9,94.3c0,0-5.1-14.3-22.1-21.3c0,0,15.2,2.7,21.4,15.3c0,0,6.2-10.7,17.4-15.1
		C70.7,73.2,58.8,79.3,53.9,94.3 M77.7,65c-5.3,0-10.1-1.8-14-4.7L53.4,74.4L43.9,60c-4,3.2-9,5.1-14.4,5.1
		C16.7,65.1,6.4,54.8,6.4,42c0-5,1.6-9.5,4.2-13.3c0.2-2.6,0.2-10-5.1-16.2c0,0,10.6,2.8,16.2,2.7c0,0,8.6-0.5,12.8,2.3
		c1.8-0.5,10.9-2.9,21.9-2.5c0,0,9.1,0.2,16.4,2.3c1-0.7,4.8-3,11.6-2.8c0,0,2.7,0.2,4.3-0.1c-0.1-7-5.8-12.7-12.9-12.7h-63
		C5.8,1.7,0,7.5,0,14.6v63c0,7.1,5.8,12.9,12.9,12.9h36.9c0.1,0.1,2.9,4.7,4.5,10.4c0,0,1.1-6.4,3.3-10.4l0,0h18.3
		c7.1,0,12.9-5.8,12.9-12.9V62.2C85.5,64,81.7,65,77.7,65"/>
	<path class="st0" d="M101.6,12.5c0,0-4.9,5.5-4,17.6c0,0-1-2.1-2.6-3.6c0,0,0.2-6.6,1.9-10.6c0,0-3.1,0.7-8.2,0.9l0-2.5
		C88.8,14.4,96.4,14.3,101.6,12.5"/>
	<path class="st0" d="M36.4,19.5c0,0,16-4.7,35.9,0c0,0-12.3,2.1-18.4,14.2C53.9,33.7,49.2,22.7,36.4,19.5"/>
</g>
</svg>
